P2
# Created by IrfanView
64 11
255
0 0 0 0 0 0 0 0 254 0 0 7 0 2 0 255 255 
253 255 252 254 255 253 255 7 0 0 4 0 0 13 0 0 
0 0 0 0 0 0 0 247 7 3 0 1 10 0 0 255 
255 0 3 0 0 13 0 0 0 0 0 0 0 0 0 0 0 0 0 0 0 0 0 8 0 0 0 6 0 0 7 1 
4 1 0 0 255 254 254 246 255 0 0 0 12 0 1 0 
0 0 0 0 0 0 0 10 0 0 6 0 0 22 0 0 
4 255 0 5 4 0 12 0 0 0 0 0 0 0 0 0 0 0 0 0 0 0 0 4 0 11 0 0 0 5 0 0 
17 0 12 0 0 0 255 254 255 3 0 10 0 2 3 0 
0 0 0 0 0 0 0 0 0 6 12 3 0 4 0 0 
0 3 12 0 5 0 1 0 0 0 0 0 0 0 0 0 0 0 0 0 0 0 0 0 0 0 3 0 15 0 0 14 
0 0 4 4 0 24 0 7 245 0 10 0 8 0 0 0 
0 0 0 0 0 0 0 0 17 5 0 0 255 249 253 254 
2 1 0 0 1 2 6 0 0 0 0 0 0 0 0 0 0 0 0 0 0 0 0 0 16 0 0 19 0 247 255 255 
255 254 255 249 255 229 10 2 2 1 0 0 8 2 0 0 
0 0 0 0 0 0 0 0 243 255 254 254 249 253 255 255 
255 252 11 0 0 2 0 0 0 0 0 0 0 0 0 0 0 0 0 0 0 0 0 0 0 8 0 255 255 255 247 244 
255 13 249 0 16 9 4 2 0 0 13 0 0 2 8 0 
0 0 0 0 0 0 0 0 15 0 244 255 13 1 1 0 
0 0 255 0 0 0 11 0 0 0 0 0 0 0 0 0 0 0 0 0 0 0 0 11 0 6 0 255 6 0 255 255 
253 0 255 255 246 247 0 2 8 249 7 5 12 0 0 0 
0 0 0 0 0 0 0 6 239 9 8 255 0 0 0 254 
15 247 246 11 0 1 0 0 0 0 0 0 0 0 0 0 0 0 0 0 0 0 0 1 0 5 0 0 250 8 0 255 
251 255 243 255 6 255 3 5 0 15 250 0 0 3 6 0 
0 0 0 0 0 0 0 0 6 0 2 254 255 253 255 255 
0 5 255 255 252 4 0 0 0 0 0 0 0 0 0 0 0 9 7 0 5 8 0 3 0 8 255 248 255 9 0 255 
239 255 255 0 0 15 0 0 0 0 0 0 0 0 0 0 
0 0 0 0 0 0 0 0 5 0 3 4 251 5 255 0 
0 0 0 0 0 0 0 0 0 0 0 0 0 0 0 4 16 0 0 2 255 250 255 0 10 0 9 255 0 0 4 5 
7 0 7 0 5 0 0 0 0 0 0 0 0 0 0 0 
0 0 0 0 0 0 0 5 0 0 0 0 3 0 0 0 
0 0 0 0 0 0 0 0 0 0 0 0 0 0 0 0 0 1 10 1 0 0 3 6 0 3 0 2 6 0 0 0 
0 1 0 10 0 0 2 0 0 0 0 0 0 0 0 0 
0 0 0 0 0 0 0 1 0 6 16 0 7 1 0 0 
0 0 0 0 0 0 0 0 0 0 0 0 0 0 0 