P2
# Created by IrfanView
64 15
255
4 0 245 255 255 255 3 0 4 0 0 5 0 0 8 0 0 
0 5 1 0 4 2 0 0 0 4 0 0 0 11 249 0 
0 8 0 11 0 0 5 0 19 0 10 12 0 3 0 0 
0 0 0 0 0 0 0 0 0 0 0 0 0 0 0 255 255 255 246 255 252 0 8 0 1 0 7 14 0 0 8 6 
3 0 14 0 0 10 5 3 250 0 0 10 12 0 255 0 
0 0 8 0 3 4 0 5 0 15 0 4 12 6 1 0 
0 0 0 0 0 0 0 0 0 0 0 0 0 0 0 243 255 245 255 255 255 12 0 2 0 15 0 0 4 1 0 0 
19 0 0 5 12 0 0 0 11 0 2 5 0 6 0 5 
0 9 238 255 0 255 255 0 5 0 24 0 3 0 0 0 
0 0 0 0 0 0 0 0 0 0 0 0 0 0 0 6 3 4 5 246 249 250 0 0 255 248 255 11 2 0 1 0 
0 6 0 1 2 2 2 255 0 246 255 246 0 0 0 0 
255 252 255 9 0 0 0 1 255 247 0 11 0 1 13 0 
0 0 0 0 0 0 0 0 0 0 0 0 0 0 0 0 0 0 0 255 255 253 3 0 11 254 255 1 0 4 0 14 
8 0 11 249 253 255 251 253 255 255 251 253 255 6 0 9 
1 0 7 0 2 0 9 6 0 255 255 0 0 0 0 0 
0 0 0 0 0 0 0 0 0 0 0 0 0 0 0 0 13 0 2 7 243 255 255 0 0 0 255 255 0 8 1 0 
0 12 0 255 255 246 255 248 254 254 242 255 255 242 255 243 
255 255 245 246 255 254 250 255 238 0 255 254 255 255 0 0 
0 0 0 0 0 0 0 0 0 0 0 0 0 0 0 0 11 0 5 0 255 240 2 21 0 3 255 251 16 0 0 255 
255 255 255 250 248 254 255 255 255 255 0 9 0 12 252 13 
247 251 28 5 0 11 0 4 0 255 255 248 252 254 255 0 
0 0 0 0 0 0 0 0 0 0 0 0 0 0 0 8 0 11 0 0 252 255 0 0 4 12 0 255 239 3 0 254 
255 0 250 255 255 253 252 0 251 255 253 252 255 252 253 251 
255 255 246 249 255 255 254 253 255 255 244 255 247 255 255 0 
0 0 0 0 0 0 0 0 0 0 0 0 0 0 0 0 7 2 0 12 0 255 255 4 0 0 9 253 0 1 0 0 
255 251 255 255 255 255 0 255 254 0 6 244 1 0 0 9 
0 0 0 0 3 4 0 1 3 250 254 3 255 253 255 0 
0 0 0 0 0 0 0 4 0 6 0 0 7 0 0 4 0 0 4 5 24 235 255 244 20 0 246 255 245 254 5 0 
2 255 252 244 255 255 254 3 244 241 8 255 249 7 0 0 
10 0 6 8 3 0 0 0 5 4 0 0 2 0 0 0 
0 0 0 0 0 0 0 0 1 2 0 17 12 0 12 12 0 6 3 0 0 19 252 252 9 0 254 249 252 255 0 0 
0 0 5 255 255 232 255 0 255 255 255 13 250 248 0 2 
255 255 255 253 247 0 255 0 0 0 6 11 0 18 8 0 
0 0 0 0 0 0 0 13 0 3 0 0 0 2 0 0 9 0 8 0 4 10 249 255 245 15 0 247 255 253 18 4 
6 5 0 0 255 255 247 255 248 8 0 0 10 6 250 1 
254 246 255 0 0 10 0 0 3 7 8 0 3 0 0 0 
0 0 0 0 0 0 0 0 2 255 5 0 15 9 0 3 2 3 0 1 5 0 255 255 247 0 18 253 255 252 0 0 
0 1 0 13 0 255 250 255 251 251 255 255 255 243 10 255 
255 251 255 246 0 7 0 11 0 0 0 17 1 6 4 0 
0 0 0 0 0 0 0 15 243 0 0 4 2 0 1 0 0 0 13 0 10 2 0 246 255 6 0 0 255 255 253 1 
9 0 7 8 4 0 6 0 255 255 255 252 249 255 253 253 
241 255 0 3 8 0 8 5 0 10 2 0 0 11 0 0 
0 0 0 0 0 0 0 240 14 2 3 3 0 5 2 9 0 0 3 0 1 0 0 255 255 248 17 0 248 246 255 2 
0 4 0 0 0 0 0 4 0 0 0 16 0 0 0 1 
8 0 5 3 0 0 0 0 3 16 2 0 20 0 1 0 
0 0 0 0 0 0 0 255 0 0 0 15 0 0 1 