P2
# Created by IrfanView
64 17
255
2 0 1 248 255 253 2 0 4 0 9 0 7 0 0 5 2 
0 4 4 0 0 5 0 10 0 0 0 254 0 3 0 0 
0 0 0 0 0 0 0 0 0 0 0 0 0 0 0 0 
0 0 0 0 0 0 0 0 0 0 0 0 0 0 0 8 0 8 255 255 248 0 5 0 0 0 0 9 6 0 0 0 
13 0 0 7 0 3 0 241 1 8 7 12 246 15 0 0 
0 0 0 0 0 0 0 0 0 0 0 0 0 0 0 0 
0 0 0 0 0 0 0 0 0 0 0 0 0 0 0 0 0 6 255 243 255 0 0 8 3 6 6 0 0 4 6 3 
0 0 13 0 0 11 2 6 0 254 0 1 255 0 9 0 
0 0 0 0 0 0 0 0 0 0 0 0 0 0 0 0 
0 0 0 0 0 0 0 0 0 0 0 0 0 0 0 7 1 5 241 255 250 0 255 14 0 0 3 0 11 2 0 0 
1 4 0 0 10 0 0 253 0 1 12 0 0 0 4 0 
0 0 0 0 0 0 0 0 0 0 0 0 0 0 0 0 
0 0 0 0 0 0 0 0 0 0 0 0 0 0 0 0 255 8 252 248 255 3 254 0 0 8 0 0 2 0 4 7 
0 0 0 11 0 10 255 1 4 0 1 247 9 0 3 0 
0 0 0 0 0 0 0 0 0 0 0 0 0 0 0 0 
0 0 0 0 0 0 0 0 0 0 0 0 0 0 0 16 252 0 255 249 255 255 255 0 16 0 0 7 0 0 3 0 
0 8 0 7 5 0 252 0 0 1 0 255 0 6 0 0 
0 0 0 0 0 0 0 0 0 0 0 0 0 0 0 0 
0 0 0 0 0 0 0 0 0 0 0 0 0 0 0 0 236 21 255 255 255 243 254 255 232 12 0 1 3 5 0 6 
0 9 7 0 0 4 255 3 10 0 255 253 255 0 0 0 
0 0 0 0 0 0 0 0 0 0 0 0 0 0 0 0 
0 0 0 0 0 0 0 0 0 0 0 0 0 0 0 0 255 0 254 255 252 255 255 250 255 0 10 3 0 8 0 1 
3 0 0 7 0 1 255 250 255 7 247 255 254 0 8 0 
0 0 0 0 0 0 0 0 0 0 0 0 0 0 0 0 
0 0 0 0 0 0 0 0 0 0 0 0 0 0 0 0 4 0 0 254 255 249 1 0 11 0 0 13 4 0 7 0 
3 4 0 5 0 0 255 0 247 255 255 246 255 4 0 0 
2 0 3 0 0 10 0 0 0 0 0 0 0 0 0 0 
0 0 0 0 0 0 0 0 0 0 0 0 0 0 0 7 0 0 7 255 248 255 252 8 0 18 0 0 8 5 0 3 
0 0 0 0 4 0 255 0 255 14 255 255 255 0 7 1 
8 5 9 0 9 0 0 0 0 0 0 0 0 0 0 0 
0 0 0 0 0 0 0 0 0 0 0 0 0 0 0 0 19 0 0 255 255 245 255 0 0 1 0 10 0 0 0 0 
0 1 8 0 0 255 246 255 0 0 255 248 246 255 0 0 
0 0 0 0 0 8 6 0 0 0 0 0 0 0 0 0 
0 0 0 0 0 0 0 0 0 0 0 0 0 0 0 0 255 0 6 0 255 255 242 255 255 2 12 0 0 0 10 12 
0 0 4 7 3 254 255 255 10 0 255 3 255 255 254 3 
4 5 0 2 18 0 5 0 0 0 0 0 0 0 0 0 
0 0 0 0 0 0 0 0 0 0 0 0 0 0 0 0 0 7 6 0 0 255 255 0 245 4 0 5 2 0 0 0 
9 0 0 0 0 255 0 250 254 1 254 251 255 251 247 246 
254 255 255 255 242 10 0 0 0 0 0 0 0 0 0 0 
0 0 0 0 0 0 0 0 0 0 0 0 0 0 0 15 0 6 0 1 4 255 247 253 255 244 12 2 0 4 4 1 
0 2 0 22 3 246 8 255 248 255 252 255 252 255 255 255 
252 251 248 255 250 255 251 0 0 0 0 0 0 0 0 0 
0 0 0 0 0 0 0 0 0 0 0 0 0 0 0 0 2 0 16 1 255 0 255 255 255 255 243 0 0 9 0 0 
8 2 7 0 6 254 253 2 249 255 250 0 2 2 0 0 
0 13 6 0 0 246 255 0 0 0 0 0 0 0 0 0 
0 0 0 0 0 0 0 0 0 0 0 0 0 0 0 255 255 10 0 2 1 1 0 1 246 254 6 1 6 0 4 0 
0 1 0 0 8 252 255 254 255 247 248 255 254 252 255 255 
255 244 255 255 255 255 247 0 0 0 0 0 0 0 0 0 
0 0 0 0 0 0 0 0 0 0 0 0 0 0 0 0 2 255 0 0 4 0 1 0 255 254 255 0 2 0 0 0 
0 0 0 0 0 0 0 0 1 0 3 0 0 255 254 0 
0 0 0 0 0 0 0 0 0 0 0 0 0 0 0 0 
0 0 0 0 0 0 0 0 0 0 0 0 0 0 0 