P2
# Created by IrfanView
64 11
255
18 17 14 21 32 30 28 36 56 92 112 114 125 142 151 156 150 
152 144 151 126 83 78 79 112 141 168 190 213 222 235 0 247 
247 245 239 228 216 206 200 185 202 217 230 227 229 233 210 195 
184 196 193 212 230 222 253 228 230 232 235 238 235 221 207 18 17 13 18 28 29 32 45 70 103 124 134 147 152 163 187 215 
229 205 222 226 194 163 96 98 119 146 173 198 214 233 0 246 
247 247 241 231 220 213 210 232 241 236 247 253 240 240 246 243 
208 203 204 206 220 231 247 232 233 233 234 236 233 220 206 18 16 12 17 26 28 38 57 80 123 137 131 142 158 188 231 210 
255 250 254 247 227 224 163 138 128 132 151 173 198 231 0 243 
245 246 242 234 226 221 219 231 247 231 234 250 240 243 255 255 
247 244 238 213 217 238 223 233 233 232 233 235 233 222 209 17 16 14 19 27 29 42 66 84 133 136 118 143 180 200 215 203 
221 207 208 219 236 255 241 191 150 129 145 166 187 225 1 242 
243 243 242 238 231 222 215 210 231 219 204 197 189 188 180 196 
226 236 250 230 212 236 227 229 230 231 233 238 237 226 213 17 17 17 24 32 32 45 70 97 126 123 117 151 173 147 117 102 
81 90 93 111 147 176 221 198 151 125 145 173 187 215 0 247 
244 241 242 241 231 215 201 200 175 139 96 42 36 64 56 74 
127 148 213 250 221 220 220 228 230 232 236 241 240 229 215 17 16 18 30 39 38 50 75 112 118 114 105 100 85 58 36 13 
5 54 55 60 93 112 182 189 159 126 131 163 184 214 0 251 
247 244 244 242 231 212 197 195 144 118 100 40 27 77 94 27 
89 82 115 193 223 225 206 233 234 235 238 242 241 230 217 17 15 17 32 44 44 56 81 113 105 98 72 37 30 45 52 27 
12 37 51 107 167 140 125 173 180 142 115 147 184 219 6 247 
247 247 246 243 235 223 215 195 169 165 160 89 24 27 33 102 
154 121 84 125 193 232 221 237 236 235 236 241 242 234 223 18 14 15 32 47 48 61 86 104 89 75 47 29 64 106 108 51 
32 21 40 143 235 184 89 143 187 159 115 146 191 222 2 239 
243 248 248 245 241 238 237 206 206 197 180 125 70 72 88 152 
201 214 189 164 171 202 215 238 236 233 233 240 244 240 231 20 16 23 40 52 59 75 94 98 96 95 79 68 101 146 159 127 
105 102 146 198 214 196 169 173 198 167 126 153 195 222 0 242 
245 247 245 244 245 243 239 224 215 218 220 202 187 192 201 228 
237 236 223 217 223 225 220 242 247 248 244 238 236 233 230 18 15 23 44 61 76 99 122 133 133 139 131 119 139 171 178 173 
177 184 205 214 210 213 213 194 199 172 142 162 194 220 0 245 
248 248 246 245 246 245 242 242 233 236 240 232 227 231 233 247 
253 255 247 241 245 248 245 240 245 246 242 236 234 231 228 17 15 24 47 69 92 122 147 166 161 169 170 157 166 186 190 197 
205 205 218 217 208 219 222 214 193 175 158 169 194 220 2 248 
250 249 246 246 248 248 245 247 239 240 244 246 252 255 248 241 
240 246 248 240 241 246 246 238 243 244 240 234 231 229 226 