P2
# Created by IrfanView
64 64
255
29 32 36 39 43 53 68 80 94 112 136 159 176 190 200 204 210 
219 223 229 240 242 239 241 239 243 247 248 245 242 244 248 251 
248 245 243 244 247 249 250 244 249 249 246 245 247 247 244 247 
248 248 246 246 246 243 239 236 237 241 242 231 217 218 227 25 28 32 36 42 55 70 82 97 115 139 160 176 188 198 205 216 
222 222 225 235 238 238 243 240 242 246 247 246 245 248 251 244 
244 245 247 248 247 245 243 243 248 251 249 247 247 243 237 248 
245 244 245 247 247 245 244 236 236 239 240 230 218 217 225 20 23 26 32 41 56 72 84 98 114 138 157 169 181 195 206 212 
218 219 223 234 237 238 246 241 243 244 244 245 247 249 251 244 
245 246 247 248 247 244 241 248 248 247 244 244 247 249 248 250 
241 238 242 246 244 243 245 238 237 239 240 233 222 220 225 16 17 20 27 39 55 71 82 96 108 125 138 144 152 168 183 192 
200 205 214 227 231 233 242 243 245 245 243 243 245 246 245 251 
249 246 245 245 244 243 241 248 247 245 242 240 241 244 245 234 
224 223 233 240 239 240 244 240 239 241 242 237 228 225 227 15 14 16 23 36 52 66 74 83 91 103 112 112 115 128 143 164 
168 170 178 192 200 210 226 240 245 248 245 243 244 243 239 250 
249 248 246 244 240 234 231 226 226 225 219 211 204 204 206 205 
201 206 219 228 229 229 232 236 238 241 243 238 230 226 226 16 14 14 20 32 46 56 61 58 68 85 100 102 100 106 117 127 
123 115 117 131 146 168 195 223 236 245 245 244 244 243 238 244 
246 249 250 245 234 220 210 194 186 172 156 142 141 155 171 187 
193 202 212 216 215 209 204 224 231 238 240 235 227 223 222 19 15 14 19 29 40 46 48 39 53 80 104 108 97 90 91 81 
72 58 57 73 94 125 159 194 215 235 240 241 244 244 240 244 
247 251 251 243 228 209 197 182 168 143 114 93 95 123 151 173 
190 207 214 215 214 204 192 213 224 235 237 231 223 219 218 21 17 14 18 27 36 40 40 36 53 84 111 111 87 65 57 45 
36 23 25 42 65 99 135 170 197 223 234 238 242 244 241 250 
251 251 248 239 224 207 196 190 179 158 127 97 87 105 129 154 
181 207 217 223 226 218 204 206 220 234 236 229 221 217 217 6 1 0 0 6 1 0 0 0 0 2 1 3 0 0 4 0 
0 0 2 1 0 0 3 6 0 2 0 0 0 9 0 0 
0 2 2 2 1 0 0 0 0 0 6 1 0 5 0 1 
0 0 0 6 3 0 0 0 2 2 1 2 4 2 0 20 17 13 20 30 29 28 38 69 87 104 118 131 136 142 154 153 
152 144 141 121 89 75 68 112 146 166 191 216 243 212 15 244 
244 243 235 224 214 209 208 189 202 211 228 231 221 223 218 198 
187 188 196 207 218 231 251 225 228 231 233 234 231 221 210 17 17 13 18 27 27 32 46 70 102 127 138 147 156 172 190 212 
224 218 228 224 193 157 107 90 126 143 179 177 210 237 0 248 
251 250 242 229 218 213 212 233 246 243 249 250 240 244 246 237 
219 206 204 209 225 238 238 231 232 234 236 238 234 219 204 18 19 16 18 25 25 35 54 81 119 137 128 134 162 194 215 206 
250 253 252 244 231 217 168 147 129 119 170 172 193 240 7 240 
243 244 242 236 229 223 220 217 237 232 233 242 245 252 252 253 
251 241 229 216 221 235 224 234 232 229 230 235 233 220 205 16 18 18 22 29 32 46 68 90 125 133 120 140 185 210 213 209 
226 213 208 217 238 255 247 183 147 123 151 175 196 215 0 248 
245 244 243 241 234 222 213 225 239 223 204 194 190 191 177 198 
222 238 251 234 212 226 231 233 231 229 232 239 240 227 211 13 16 17 21 27 31 44 66 98 126 132 128 149 168 150 118 93 
82 78 87 110 143 182 214 195 162 136 136 163 183 204 15 250 
245 241 241 239 230 213 200 197 177 133 88 47 40 63 62 83 
119 153 216 245 222 218 217 226 227 229 235 243 242 228 212 18 22 23 28 36 39 51 72 104 116 113 103 100 86 56 33 16 
22 56 58 67 99 124 169 192 156 122 127 170 188 207 2 247 
244 242 243 241 232 215 202 188 151 122 96 41 26 69 88 26 
78 84 128 196 221 228 213 230 231 232 236 242 242 231 217 8 13 17 27 40 47 60 81 119 112 92 66 43 26 33 57 22 
8 34 41 97 165 142 127 184 177 139 120 148 182 224 0 247 
247 249 249 245 234 220 210 190 160 168 170 88 22 32 37 100 
170 123 79 122 189 234 224 241 238 235 234 238 241 234 225 23 11 15 35 46 48 62 83 101 86 74 47 27 64 111 115 51 
26 23 51 153 236 181 97 140 190 157 115 137 195 228 1 242 
245 247 245 245 245 242 238 210 198 193 173 123 80 73 83 155 
200 214 190 174 176 194 220 233 234 235 235 239 242 239 234 27 18 22 39 50 56 76 101 102 95 95 81 69 102 147 157 127 
107 110 142 195 222 194 163 169 204 160 131 154 200 229 0 242 
245 246 244 243 244 242 238 224 217 222 221 200 185 189 198 220 
238 240 224 215 216 221 226 242 246 246 241 238 236 233 228 12 14 28 50 65 74 93 114 132 128 134 130 119 139 172 182 178 
172 177 206 217 204 207 213 198 203 167 158 160 185 210 0 244 
247 247 244 243 245 245 242 239 232 234 237 231 231 235 234 251 
248 249 247 243 246 247 239 244 249 250 243 236 232 229 227 25 21 25 42 66 96 130 157 173 167 170 170 160 164 181 187 202 
210 204 220 222 210 225 223 215 182 179 164 143 218 240 1 247 
249 248 245 244 247 248 246 248 243 244 245 245 252 255 249 243 
235 244 252 243 245 253 248 236 240 242 238 234 233 231 229 0 0 0 0 5 4 0 0 3 0 0 0 0 0 5 9 0 
4 0 0 2 0 8 0 0 5 0 0 11 0 0 2 0 
2 0 0 0 0 1 0 1 0 0 0 0 1 5 0 0 
0 0 6 0 0 1 0 2 4 3 1 2 3 0 0 21 18 17 35 75 127 165 182 194 193 192 195 198 201 206 212 230 
228 223 231 233 227 230 228 203 191 190 171 178 214 233 227 249 
251 250 247 247 250 251 249 250 247 249 245 236 237 240 236 254 
246 246 250 250 250 248 241 244 243 239 235 234 233 226 217 8 11 15 32 74 129 168 183 199 207 208 205 208 212 218 226 224 
221 228 228 226 226 218 221 201 198 175 176 179 193 231 246 245 
247 246 244 244 247 247 245 249 245 251 255 250 250 255 255 242 
245 241 240 248 250 245 244 252 252 249 242 236 232 225 218 6 14 22 37 75 126 164 177 199 216 221 214 214 219 227 238 230 
232 245 225 222 234 213 205 187 201 154 173 189 184 228 234 246 
249 249 247 247 249 250 247 251 244 248 252 245 240 243 244 240 
255 255 247 251 250 248 255 242 246 245 237 228 223 219 216 11 13 15 31 75 131 166 174 205 216 225 225 221 223 229 233 234 
232 228 236 234 227 224 202 176 173 168 165 172 193 220 241 246 
247 247 246 245 245 246 247 244 245 246 247 248 249 250 251 249 
249 249 249 249 249 249 249 247 248 246 239 233 227 217 208 28 13 6 28 73 120 154 171 205 217 228 229 226 227 230 233 231 
232 229 237 233 225 219 195 173 163 153 154 168 192 220 238 246 
247 248 247 246 245 245 246 246 247 248 249 250 250 250 249 249 
249 249 249 249 249 249 249 246 247 245 238 232 225 215 206 47 16 0 25 66 103 136 163 195 210 225 230 230 231 232 233 229 
232 230 237 233 222 214 187 173 153 137 141 165 194 222 239 245 
246 248 247 245 243 243 243 246 247 249 251 251 250 249 248 249 
249 249 249 249 249 249 249 245 246 244 237 230 222 212 203 51 20 4 22 55 87 122 152 177 194 214 224 229 232 233 233 230 
233 231 237 232 222 211 182 164 142 123 129 157 192 221 237 243 
245 246 246 244 241 240 240 242 244 247 249 251 250 249 248 248 
248 248 248 248 248 248 248 244 245 242 235 227 220 209 199 35 21 10 18 42 77 116 143 164 181 202 216 224 229 231 230 232 
234 230 235 232 223 210 176 143 131 118 120 145 184 218 235 243 
245 247 247 244 242 240 240 236 239 242 246 248 249 248 248 248 
248 248 248 248 248 248 248 243 244 241 233 225 218 207 197 17 16 13 13 30 67 108 135 158 174 194 207 216 224 227 227 234 
235 229 234 234 225 206 166 129 137 135 127 139 178 217 237 245 
246 248 247 245 244 243 243 233 235 239 242 245 247 247 247 248 
248 248 248 248 248 248 248 242 243 239 232 224 217 206 196 14 14 11 10 22 53 93 122 152 166 184 197 209 219 226 227 235 
235 228 235 237 226 199 151 130 159 167 144 137 170 212 232 244 
245 245 245 243 242 243 244 233 235 237 240 243 245 246 246 247 
247 247 247 247 247 247 247 241 242 239 231 224 217 206 196 21 15 9 8 17 40 78 109 145 158 175 189 203 217 226 229 235 
235 229 237 239 226 193 139 135 177 190 155 132 159 200 221 241 
241 242 241 239 239 241 242 235 236 238 240 242 244 245 246 247 
247 247 247 247 247 247 247 240 241 238 231 224 217 206 197 40 14 1 11 19 26 58 97 121 144 172 190 196 202 215 227 226 
235 238 231 231 226 175 104 125 164 176 152 138 151 177 199 220 
224 232 227 220 238 246 229 240 239 238 237 239 243 246 249 247 
248 249 249 249 247 245 243 244 244 237 230 227 214 202 202 47 22 6 14 25 33 56 83 110 131 159 179 191 203 218 231 230 
237 241 237 235 221 157 78 99 140 148 113 94 112 143 165 177 
181 192 199 202 216 233 240 238 238 238 238 239 242 246 250 247 
248 248 248 247 246 244 243 231 234 230 229 228 217 206 208 42 22 5 4 12 29 58 84 102 118 142 163 178 193 209 220 223 
229 235 236 233 212 141 61 77 112 107 57 28 43 74 95 138 
144 142 128 106 102 141 194 221 228 237 241 242 241 243 245 243 
243 243 242 241 240 240 239 241 243 238 234 229 212 198 200 22 23 21 18 18 29 51 70 87 103 127 152 174 194 210 220 225 
228 235 236 230 208 147 79 43 71 69 34 8 8 25 42 46 
70 81 74 55 41 68 121 212 226 243 253 254 250 247 247 247 
246 245 244 243 243 243 243 234 236 232 229 223 207 197 203 45 38 24 10 8 24 46 62 71 87 112 141 168 190 206 215 232 
232 236 234 224 208 169 124 57 76 88 88 82 71 73 88 131 
145 147 150 164 168 176 197 215 227 243 251 251 247 244 244 244 
244 243 242 241 240 240 240 240 240 234 229 221 205 198 209 64 44 18 4 11 30 47 55 72 87 112 139 165 186 201 209 228 
227 231 230 223 218 204 182 144 144 146 155 160 151 155 175 217 
215 200 188 196 209 218 223 236 242 248 250 248 246 247 249 248 
248 247 246 246 245 244 244 239 238 234 230 223 208 206 222 8 2 0 0 1 1 0 0 0 0 3 5 3 1 0 0 0 
0 1 4 0 1 0 0 4 0 0 0 0 0 0 15 3 
4 5 0 0 0 5 3 0 0 0 0 0 0 0 0 0 
0 0 0 0 0 0 0 0 0 0 3 0 0 0 9 55 49 39 26 13 11 27 45 70 82 102 124 145 165 183 195 212 
207 210 212 206 205 203 196 171 180 187 197 205 198 190 194 232 
212 206 206 204 219 235 232 237 240 245 250 251 248 244 241 243 
244 245 246 245 243 241 239 243 242 238 232 218 195 189 204 75 56 84 100 46 5 20 39 58 75 100 124 144 161 177 188 198 
202 205 205 203 201 198 196 190 188 192 200 204 203 202 205 219 
214 206 202 203 213 229 241 242 235 234 241 242 238 241 250 245 
245 244 244 243 240 236 233 237 239 236 224 206 192 186 187 160 141 157 161 94 24 17 40 60 74 95 117 137 154 168 177 187 
191 196 202 207 210 210 208 218 215 204 191 188 194 198 197 201 
190 179 182 194 206 211 211 221 227 240 250 244 234 238 252 245 
244 243 243 243 243 242 241 238 237 232 221 207 194 187 185 207 190 199 203 137 43 13 40 56 66 85 108 131 151 165 172 185 
188 195 203 208 208 204 202 189 190 178 162 166 189 205 207 217 
210 205 209 219 225 222 217 221 211 211 226 235 234 234 240 242 
241 239 238 238 239 240 241 239 235 228 218 206 196 188 184 198 187 193 206 161 63 14 35 50 58 74 99 126 151 167 175 175 
179 185 187 179 165 154 149 154 155 149 141 150 175 196 204 228 
235 240 235 225 216 211 208 214 195 187 200 215 218 223 231 237 
237 237 237 236 235 235 236 236 233 225 215 203 193 188 187 199 192 192 205 181 95 27 23 54 58 70 92 118 142 159 166 159 
162 165 159 139 113 97 93 120 112 102 96 96 104 118 131 171 
186 195 187 169 155 146 142 151 154 162 165 152 147 175 214 225 
230 235 237 237 235 233 233 232 231 225 212 197 188 188 192 207 204 198 204 195 132 52 12 59 62 69 85 107 128 144 153 136 
131 124 111 87 61 48 48 49 42 39 40 43 48 62 77 109 
122 133 135 133 130 120 110 94 95 98 91 70 69 113 167 208 
215 226 232 234 232 230 230 231 230 222 207 191 185 189 197 198 204 199 196 199 166 85 13 50 53 62 78 101 125 145 157 128 
109 84 62 39 18 12 16 10 23 41 60 79 99 116 126 129 
141 152 160 169 174 167 154 130 108 94 95 94 97 123 155 200 
209 221 229 231 230 230 230 233 228 217 201 189 186 191 198 188 202 201 192 201 189 111 21 33 39 53 74 101 131 158 174 161 
128 87 57 34 18 15 20 24 55 90 118 146 175 189 188 189 
203 214 216 217 218 212 202 209 186 177 194 204 195 190 196 207 
216 227 234 235 234 234 235 236 227 212 197 188 188 192 197 187 200 204 200 194 197 154 57 23 35 50 55 81 122 151 184 180 
169 153 134 104 70 45 37 46 59 86 118 139 151 168 185 192 
203 219 231 231 221 205 194 180 191 208 223 231 232 229 227 234 
233 233 234 235 234 235 236 228 223 210 194 188 191 193 190 193 201 203 203 201 208 179 100 19 35 48 38 51 97 144 187 191 
192 195 190 164 117 70 41 47 52 71 99 121 134 148 160 180 
185 193 200 204 204 201 199 206 212 220 228 234 237 239 241 238 
237 235 235 235 235 235 235 226 213 197 186 187 192 192 188 194 197 194 196 198 207 196 142 53 24 27 45 58 71 107 166 175 
180 191 200 192 157 111 78 55 53 62 85 109 125 138 147 159 
161 166 174 185 196 205 210 225 228 232 236 238 240 242 244 243 
241 236 232 229 227 225 223 225 206 188 185 193 199 197 192 207 205 198 201 202 207 207 178 68 28 20 25 25 40 92 162 181 
182 187 195 198 183 151 124 98 91 91 102 118 130 139 146 147 
153 164 178 193 207 218 224 235 239 246 250 250 247 245 243 235 
234 230 227 228 231 230 227 209 192 178 181 191 195 192 189 203 202 193 197 197 195 200 186 116 28 2 31 35 24 56 124 158 
163 169 178 188 186 167 145 128 126 126 133 144 156 168 177 175 
182 193 206 218 228 235 238 234 239 245 249 248 244 241 238 242 
240 233 225 222 221 216 208 196 189 185 189 194 194 193 192 203 207 200 204 205 199 204 199 129 31 0 18 22 19 47 98 156 
165 170 171 176 181 175 162 155 157 159 161 166 173 184 192 208 
211 215 221 226 230 233 234 244 245 247 247 247 246 247 248 240 
239 232 223 220 219 212 201 185 191 195 193 191 192 193 192 0 4 0 1 4 0 1 0 1 0 7 0 0 2 8 0 0 
2 8 0 0 0 0 0 0 1 1 0 0 0 0 0 0 
0 1 3 4 5 5 5 0 0 0 0 0 0 0 3 0 
2 0 0 2 9 4 0 0 4 11 2 0 1 3 0 196 209 202 205 209 202 204 202 172 55 3 16 23 19 19 32 95 
125 151 156 158 168 174 171 164 170 178 189 200 211 218 220 231 
235 239 243 245 245 243 242 243 244 245 245 244 243 245 246 233 
233 225 214 209 206 194 179 189 207 212 199 192 199 203 197 198 203 206 207 205 205 208 211 178 64 7 13 6 9 21 13 48 
94 141 160 167 174 172 164 171 171 178 189 197 202 211 220 231 
235 240 246 249 248 243 239 242 242 244 245 244 242 242 243 234 
236 224 214 210 191 174 181 206 224 230 191 182 201 193 194 198 201 205 205 203 203 205 208 178 71 4 10 8 6 20 14 28 
66 109 136 155 172 175 167 170 171 177 188 198 206 215 224 226 
230 237 242 245 244 242 240 243 244 245 247 247 245 244 244 239 
229 215 212 205 179 173 198 226 227 222 194 192 204 190 190 199 202 204 205 203 202 204 206 186 88 5 10 12 1 17 13 14 
39 73 106 140 169 181 180 177 177 181 190 200 208 215 221 228 
233 240 243 244 243 244 245 247 247 247 247 248 247 245 243 230 
224 209 195 181 168 182 216 244 230 215 198 202 205 189 189 202 204 206 206 205 204 205 206 196 104 11 13 17 0 12 9 11 
23 45 75 113 151 178 189 175 175 179 188 199 209 216 220 231 
236 242 243 241 240 243 246 246 246 243 242 243 245 242 237 218 
221 203 172 160 177 207 230 240 230 213 198 200 198 188 188 204 205 206 207 206 205 205 205 192 98 13 14 19 2 8 7 9 
11 21 44 76 114 153 180 163 167 174 185 199 212 220 224 224 
229 233 234 233 234 239 243 243 242 239 237 241 244 239 231 216 
201 177 161 171 205 231 237 232 233 214 196 191 189 189 188 204 204 205 206 206 205 205 204 171 70 8 12 16 10 7 7 9 
5 9 23 44 73 115 149 159 167 178 187 199 211 220 224 216 
219 221 222 224 228 235 240 240 241 240 239 242 242 231 216 198 
158 142 167 201 225 237 235 238 235 206 191 192 191 197 194 205 205 205 206 207 208 207 206 149 38 4 9 12 19 7 7 13 
6 6 15 23 37 69 102 140 154 169 179 189 202 212 217 212 
211 210 211 214 219 224 228 229 233 233 231 229 221 198 174 148 
126 142 190 221 232 237 234 245 219 172 173 193 195 201 197 208 207 208 209 210 211 210 209 137 19 3 9 9 24 6 7 14 
5 4 10 10 11 32 60 105 123 145 160 173 190 205 213 208 
205 200 199 201 205 209 211 212 217 218 214 207 190 157 125 101 
119 170 215 228 236 245 240 242 192 131 148 187 192 197 191 