P2
# Created by IrfanView
64 15
255
60 48 33 22 13 6 21 48 63 81 106 128 145 162 182 195 204 
209 214 213 208 203 200 198 181 174 181 200 205 194 192 200 231 
217 202 199 208 222 233 239 237 240 246 252 255 250 242 236 242 
243 245 247 247 245 240 237 245 243 242 233 211 192 192 204 77 65 82 89 50 16 22 36 59 75 99 122 141 160 178 190 197 
200 204 207 206 202 196 192 187 190 196 202 203 200 195 191 215 
214 210 203 199 208 227 244 239 237 236 238 239 241 246 250 248 
247 246 245 244 240 237 234 241 235 231 224 208 190 186 192 156 133 159 167 91 23 21 34 60 72 92 114 135 154 169 177 190 
192 197 205 212 213 211 209 214 216 207 190 188 200 206 201 203 
194 185 184 195 207 213 214 220 229 242 250 247 239 240 247 244 
243 242 241 241 240 240 240 242 234 227 221 209 194 186 186 211 189 203 206 128 37 17 40 57 66 82 106 131 152 166 173 184 
187 193 202 206 206 205 206 194 193 179 160 162 186 205 210 222 
209 198 203 220 231 222 207 223 213 210 219 225 227 231 238 241 
241 240 239 238 239 241 243 241 235 228 221 210 196 188 187 193 191 198 206 163 66 14 34 50 57 72 97 127 152 168 175 174 
179 187 189 178 162 153 152 158 156 151 149 155 172 191 203 226 
235 241 236 227 220 215 210 217 199 191 203 217 221 226 235 241 
242 241 239 235 233 234 235 234 231 226 216 202 190 186 188 192 198 192 197 183 99 24 23 55 59 70 91 117 142 158 166 157 
161 167 163 141 112 95 92 117 108 101 99 100 105 120 136 166 
186 198 188 168 153 147 144 143 150 165 172 159 150 174 210 227 
231 235 236 235 233 233 234 231 231 226 212 196 186 187 193 210 209 198 198 192 133 55 16 59 61 68 84 106 129 146 154 139 
133 126 114 89 62 48 48 48 42 38 38 40 48 65 81 117 
128 136 135 134 130 118 104 95 97 100 91 67 64 113 173 206 
215 226 233 234 234 234 235 233 231 224 209 193 187 192 198 197 193 196 205 200 161 84 13 51 53 61 77 101 126 146 157 128 
109 85 63 38 17 11 16 13 26 44 62 80 100 117 127 128 
138 148 157 168 176 168 154 134 108 91 94 96 99 124 156 199 
210 223 231 232 230 228 227 232 229 219 203 190 187 192 197 195 196 195 202 200 181 118 21 36 44 60 70 100 134 152 176 159 
129 92 61 34 15 13 22 22 58 96 120 144 172 191 196 190 
201 213 219 222 220 212 202 205 186 179 193 201 195 193 199 213 
219 228 236 237 235 234 235 231 229 216 196 186 189 194 193 193 198 199 202 199 195 148 53 20 33 52 57 82 123 153 184 184 
168 150 130 101 66 43 36 43 60 89 117 137 153 168 180 191 
206 223 233 234 228 213 200 189 189 201 223 233 227 222 224 230 
232 236 237 236 234 234 234 234 225 209 194 188 191 193 192 193 197 201 202 196 208 184 100 23 31 46 44 58 99 141 180 190 
190 193 190 165 120 74 49 51 50 68 102 124 132 146 165 180 
187 193 197 200 201 199 195 204 210 222 233 237 237 240 245 243 
242 239 235 233 233 233 233 234 215 196 190 192 193 192 191 199 194 198 202 193 207 204 142 48 31 35 37 42 71 118 170 179 
185 196 205 194 157 109 75 61 52 60 89 112 121 135 152 162 
163 165 170 180 194 206 214 228 233 236 233 231 236 242 246 241 
239 234 230 229 231 231 229 226 203 184 185 194 195 192 191 208 194 195 205 195 199 206 172 80 26 17 31 34 47 92 154 175 
177 183 194 198 183 149 119 95 88 89 102 119 131 142 150 147 
154 167 183 199 212 222 228 230 239 245 246 246 247 245 240 237 
235 231 226 227 230 227 220 211 192 179 184 194 196 192 191 212 200 195 207 202 195 203 191 112 27 4 27 27 26 63 124 170 
169 170 176 186 188 170 149 132 131 130 132 143 158 168 171 173 
179 191 206 218 223 226 229 236 240 245 248 251 250 245 240 240 
238 232 226 226 227 220 209 196 188 183 187 193 195 193 191 204 206 196 204 207 199 202 200 131 32 1 23 21 15 45 98 155 
161 165 167 174 180 172 158 150 152 154 156 163 174 186 193 213 
213 217 225 231 233 236 241 246 243 242 243 243 242 243 246 245 
243 234 225 224 224 214 200 184 190 193 193 192 193 192 190 