P2
# Created by IrfanView
64 17
255
14 9 10 32 76 127 164 180 193 195 194 192 195 203 210 212 222 
218 230 231 226 230 230 231 208 197 181 172 182 207 228 237 248 
248 248 247 246 246 247 248 252 251 249 245 241 239 239 239 248 
244 242 244 249 251 247 243 248 246 242 238 236 234 225 216 9 13 17 33 76 131 168 179 197 204 207 204 203 209 219 226 228 
223 231 232 226 226 223 218 197 191 179 170 177 199 223 237 247 
248 248 248 246 246 247 249 249 249 250 249 248 248 250 252 248 
245 244 246 249 250 248 245 245 246 244 239 234 230 223 216 6 14 20 34 75 132 168 177 199 212 221 218 212 215 227 236 233 
228 231 234 229 225 219 206 188 185 178 170 175 195 222 240 246 
247 248 248 247 247 248 249 247 248 249 249 247 247 248 249 247 
247 248 248 249 249 248 248 243 247 246 239 231 225 220 215 15 12 12 32 75 126 161 174 201 216 227 225 218 219 228 235 233 
231 230 237 235 229 222 200 180 175 168 164 172 194 221 239 245 
247 248 248 247 247 247 248 245 246 248 247 246 245 245 245 246 
248 251 250 249 248 249 250 244 247 246 239 231 225 218 211 33 11 3 31 75 115 149 173 203 216 227 228 225 225 229 231 232 
234 228 238 236 228 222 192 172 161 151 152 168 193 220 236 244 
246 248 248 247 246 246 246 242 244 248 250 251 251 252 252 246 
249 252 251 248 247 249 251 248 247 243 237 233 227 216 205 47 14 1 29 69 101 135 166 198 210 223 229 231 232 232 231 230 
236 226 237 234 221 216 181 169 152 137 142 165 195 223 239 243 
245 247 247 245 244 243 243 243 246 250 252 252 250 249 249 246 
248 251 251 249 248 249 251 249 247 242 236 232 226 213 200 46 18 5 25 56 86 121 153 180 195 213 224 229 233 234 233 229 
239 226 237 232 217 215 177 162 142 126 132 157 191 222 242 243 
244 246 246 244 242 240 240 242 245 249 250 249 246 244 243 246 
248 249 249 249 248 249 249 245 245 242 235 228 220 208 198 39 20 9 20 44 75 112 141 161 180 203 217 223 228 232 233 227 
239 226 238 233 217 217 179 150 130 114 119 145 180 215 238 242 
244 246 245 243 240 239 238 235 239 245 250 251 251 250 250 247 
247 247 248 249 249 248 248 240 244 243 235 224 214 205 197 14 19 17 14 29 67 108 132 157 173 192 206 216 225 227 224 237 
235 227 232 234 227 208 165 128 137 131 124 140 173 211 241 241 
242 249 253 248 241 241 245 236 236 237 240 245 248 248 247 247 
246 245 245 244 245 246 247 239 246 242 234 228 215 202 200 14 13 11 11 23 52 94 126 152 167 184 196 207 218 227 229 235 
239 234 238 237 227 201 150 132 165 169 142 140 172 212 239 255 
243 240 247 244 239 239 239 232 233 237 242 247 248 246 245 248 
248 247 247 246 247 247 247 241 245 239 232 227 215 203 201 24 12 6 10 17 35 75 114 140 156 176 189 200 212 223 230 230 
239 235 237 236 226 191 130 130 174 185 153 137 159 193 217 231 
228 237 240 232 240 252 246 236 237 239 241 244 245 246 247 248 
248 249 249 248 248 247 247 242 243 236 230 227 216 204 202 41 17 5 12 18 27 60 100 123 143 169 187 198 208 218 225 228 
237 233 233 235 225 180 107 131 168 179 155 141 155 182 205 218 
228 242 233 218 235 245 226 244 243 240 238 237 241 247 252 247 
248 248 249 248 247 246 245 240 240 234 230 229 217 203 202 48 20 4 12 20 27 54 88 112 131 158 179 192 202 214 224 230 
238 233 236 237 219 161 77 100 140 145 109 91 111 141 161 178 
181 191 193 193 214 237 240 236 238 239 239 238 241 247 253 245 
246 246 246 246 244 243 242 237 238 234 232 230 215 201 201 41 21 6 10 18 29 53 78 104 118 141 163 180 195 212 226 226 
234 232 237 234 206 141 56 69 117 116 58 26 48 79 93 143 
139 139 134 112 100 135 188 216 226 239 245 246 245 246 248 244 
244 244 244 243 242 241 240 236 238 235 233 229 212 199 203 33 26 16 10 13 28 51 69 89 101 124 151 173 190 208 222 223 
229 229 235 230 202 150 81 37 70 72 35 7 7 25 41 54 
71 76 71 57 39 71 138 208 223 242 252 252 247 245 246 245 
244 243 242 241 241 240 240 238 239 235 231 224 207 199 208 29 33 27 12 9 25 48 62 74 88 115 147 172 189 203 215 227 
231 229 236 230 211 178 127 69 75 86 97 89 65 65 91 122 
150 149 147 169 170 168 192 214 229 246 255 252 247 246 247 246 
245 243 242 241 240 241 241 240 240 235 229 220 203 199 212 73 46 15 3 14 33 46 50 68 85 112 141 167 187 203 211 225 
227 233 231 222 214 199 175 149 137 135 151 158 146 155 186 220 
222 204 186 191 208 220 227 236 242 248 249 245 242 244 247 246 
246 245 245 244 243 242 242 239 240 236 231 221 204 204 223 