P2
# Created by IrfanView
64 64
255
29 32 36 39 43 53 68 80 94 112 136 159 176 190 200 204 210 
219 223 229 240 242 239 241 239 243 247 248 245 242 244 248 251 
248 245 243 244 247 249 250 244 249 249 246 245 247 247 244 247 
248 248 246 246 246 243 239 236 237 241 242 231 217 218 227 25 28 32 36 42 55 70 82 97 115 139 160 176 188 198 205 216 
222 222 225 235 238 238 243 240 242 246 247 246 245 248 251 244 
244 245 247 248 247 245 243 243 248 251 249 247 247 243 237 248 
245 244 245 247 247 245 244 236 236 239 240 230 218 217 225 20 23 26 32 41 56 72 84 98 114 138 157 169 181 195 206 212 
218 219 223 234 237 238 246 241 243 244 244 245 247 249 251 244 
245 246 247 248 247 244 241 248 248 247 244 244 247 249 248 250 
241 238 242 246 244 243 245 238 237 239 240 233 222 220 225 16 17 20 27 39 55 71 82 96 108 125 138 144 152 168 183 192 
200 205 214 227 231 233 242 243 245 245 243 243 245 246 245 251 
249 246 245 245 244 243 241 248 247 245 242 240 241 244 245 234 
224 223 233 240 239 240 244 240 239 241 242 237 228 225 227 15 14 16 23 36 52 66 74 83 91 103 112 112 115 128 143 164 
168 170 178 192 200 210 226 240 245 248 245 243 244 243 239 250 
249 248 246 244 240 234 231 226 226 225 219 211 204 204 206 205 
201 206 219 228 229 229 232 236 238 241 243 238 230 226 226 16 14 14 20 32 46 56 61 58 68 85 100 102 100 106 117 127 
123 115 117 131 146 168 195 223 236 245 245 244 244 243 238 244 
246 249 250 245 234 220 210 194 186 172 156 142 141 155 171 187 
193 202 212 216 215 209 204 224 231 238 240 235 227 223 222 19 15 14 19 29 40 46 48 39 53 80 104 108 97 90 91 81 
72 58 57 73 94 125 159 194 215 235 240 241 244 244 240 244 
247 251 251 243 228 209 197 182 168 143 114 93 95 123 151 173 
190 207 214 215 214 204 192 213 224 235 237 231 223 219 218 21 17 14 18 27 36 40 40 36 53 84 111 111 87 65 57 45 
36 23 25 42 65 99 135 170 197 223 234 238 242 244 241 250 
251 251 248 239 224 207 196 190 179 158 127 97 87 105 129 154 
181 207 217 223 226 218 204 206 220 234 236 229 221 217 217 14 11 9 20 36 35 30 36 34 76 105 106 105 103 97 93 75 
66 59 53 50 61 87 115 139 167 189 211 236 241 240 250 246 
246 244 241 233 220 205 195 191 192 177 167 159 160 161 136 140 
161 184 196 219 236 228 224 219 223 228 234 239 236 221 205 19 16 12 19 32 31 29 37 48 85 113 123 131 139 146 155 153 
151 145 144 124 92 81 79 112 141 170 192 214 227 230 234 246 
247 246 240 229 217 207 201 194 206 210 222 228 225 226 213 194 
188 194 204 215 222 230 244 225 227 230 233 237 235 221 206 21 18 14 18 27 27 31 45 70 106 132 136 140 152 172 193 213 
221 213 227 225 191 151 99 101 118 145 168 188 213 232 233 244 
247 246 240 229 219 214 212 229 241 237 245 249 242 246 248 238 
212 200 208 214 220 233 242 231 231 231 233 236 234 222 208 18 18 14 17 25 28 38 57 86 122 138 130 134 160 193 218 216 
252 250 251 245 232 219 171 138 124 133 154 172 202 233 241 243 
245 245 242 235 228 222 218 221 237 232 238 245 243 250 254 255 
246 235 231 219 217 232 233 231 231 231 233 236 235 223 209 17 18 16 18 26 30 43 65 91 122 130 121 143 184 208 212 202 
219 209 209 219 235 255 244 187 147 133 150 166 190 221 236 245 
244 243 243 241 233 221 211 222 232 218 205 194 183 185 178 206 
228 242 254 234 211 225 232 228 229 231 234 239 237 225 211 18 19 18 22 30 34 47 68 98 122 127 124 145 164 146 115 93 
84 84 96 115 144 183 220 198 154 129 142 164 186 213 233 248 
245 243 243 241 231 215 201 201 178 136 95 54 42 65 69 73 
116 150 210 241 225 222 217 228 230 232 236 241 240 228 215 14 17 19 26 36 41 52 72 109 121 117 105 101 89 60 36 16 
20 53 55 60 90 121 173 186 159 129 129 158 188 215 237 249 
247 246 245 241 230 215 203 188 150 119 93 38 21 64 83 24 
79 85 126 194 221 228 209 233 234 234 236 241 241 232 220 9 13 17 28 41 47 58 77 114 113 94 65 41 28 34 54 22 
8 35 45 101 166 142 129 187 174 138 120 148 187 215 238 247 
248 249 248 242 231 220 213 194 164 169 170 90 26 35 37 99 
168 122 78 122 189 234 225 239 238 235 236 241 242 234 224 21 12 17 36 45 45 60 84 101 87 75 48 29 65 111 115 56 
26 22 54 155 232 177 97 140 197 156 113 144 192 229 237 240 
244 246 244 243 243 241 236 212 202 197 176 123 79 74 85 158 
201 213 189 175 178 194 217 235 237 237 237 240 242 237 231 18 13 22 41 51 54 73 98 104 96 95 81 67 100 145 154 122 
101 105 141 195 222 195 167 170 199 165 128 151 193 226 243 242 
245 246 244 243 244 242 238 220 215 221 219 197 180 186 196 220 
238 239 224 217 219 223 228 240 244 245 241 238 237 233 229 15 15 26 46 60 72 96 122 133 128 133 129 118 139 173 183 177 
174 179 207 218 208 211 216 201 196 174 146 159 197 223 249 245 
247 247 244 243 245 245 242 239 234 237 240 233 232 238 238 250 
248 249 247 242 244 246 240 240 246 248 243 236 232 230 228 15 15 24 45 69 95 125 149 170 163 166 167 158 166 185 194 197 
211 205 217 218 213 227 221 213 189 180 158 165 204 226 250 247 
249 248 244 244 247 247 245 243 238 240 242 241 249 254 247 243 
237 248 253 240 240 249 246 237 242 244 239 234 232 229 226 16 13 18 39 75 116 150 169 187 180 180 184 184 188 198 205 212 
226 213 219 225 228 240 223 211 188 186 166 169 210 229 244 248 
250 248 245 244 248 249 247 246 243 245 243 240 248 253 245 248 
241 251 255 242 239 246 243 240 241 240 237 236 234 229 222 15 12 14 34 77 128 165 179 194 192 191 193 197 202 208 215 224 
225 220 228 231 228 232 228 206 194 187 171 175 208 229 237 248 
249 248 245 245 248 249 248 252 249 250 247 239 240 243 238 252 
244 245 250 249 248 247 241 247 246 242 238 236 234 226 217 12 13 16 34 77 131 168 180 198 207 208 205 207 211 217 225 228 
223 230 230 227 223 215 220 200 196 178 173 180 198 226 237 247 
249 248 246 246 249 249 247 250 245 249 254 250 251 255 254 243 
245 241 241 250 253 248 245 247 248 246 240 234 230 223 216 8 14 20 35 76 129 166 178 196 214 219 214 215 219 227 239 231 
228 240 227 224 231 210 207 193 193 166 172 183 189 224 241 246 
248 248 246 246 249 249 247 255 245 247 252 247 242 243 242 241 
255 252 243 250 250 245 252 242 247 247 239 230 225 220 217 11 13 15 31 75 131 166 174 205 216 225 225 221 223 229 233 234 
232 228 236 234 227 224 202 176 173 168 165 172 193 220 241 246 
247 247 246 245 245 246 247 244 245 246 247 248 249 250 251 249 
249 249 249 249 249 249 249 247 248 246 239 233 227 217 208 28 13 6 28 73 120 154 171 205 217 228 229 226 227 230 233 231 
232 229 237 233 225 219 195 173 163 153 154 168 192 220 238 246 
247 248 247 246 245 245 246 246 247 248 249 250 250 250 249 249 
249 249 249 249 249 249 249 246 247 245 238 232 225 215 206 47 16 0 25 66 103 136 163 195 210 225 230 230 231 232 233 229 
232 230 237 233 222 214 187 173 153 137 141 165 194 222 239 245 
246 248 247 245 243 243 243 246 247 249 251 251 250 249 248 249 
249 249 249 249 249 249 249 245 246 244 237 230 222 212 203 51 20 4 22 55 87 122 152 177 194 214 224 229 232 233 233 230 
233 231 237 232 222 211 182 164 142 123 129 157 192 221 237 243 
245 246 246 244 241 240 240 242 244 247 249 251 250 249 248 248 
248 248 248 248 248 248 248 244 245 242 235 227 220 209 199 35 21 10 18 42 77 116 143 164 181 202 216 224 229 231 230 232 
234 230 235 232 223 210 176 143 131 118 120 145 184 218 235 243 
245 247 247 244 242 240 240 236 239 242 246 248 249 248 248 248 
248 248 248 248 248 248 248 243 244 241 233 225 218 207 197 17 16 13 13 30 67 108 135 158 174 194 207 216 224 227 227 234 
235 229 234 234 225 206 166 129 137 135 127 139 178 217 237 245 
246 248 247 245 244 243 243 233 235 239 242 245 247 247 247 248 
248 248 248 248 248 248 248 242 243 239 232 224 217 206 196 14 14 11 10 22 53 93 122 152 166 184 197 209 219 226 227 235 
235 228 235 237 226 199 151 130 159 167 144 137 170 212 232 244 
245 245 245 243 242 243 244 233 235 237 240 243 245 246 246 247 
247 247 247 247 247 247 247 241 242 239 231 224 217 206 196 21 15 9 8 17 40 78 109 145 158 175 189 203 217 226 229 235 
235 229 237 239 226 193 139 135 177 190 155 132 159 200 221 241 
241 242 241 239 239 241 242 235 236 238 240 242 244 245 246 247 
247 247 247 247 247 247 247 240 241 238 231 224 217 206 197 37 16 5 13 19 28 58 94 120 141 168 187 196 204 217 227 224 
234 239 234 234 228 175 102 121 161 175 152 140 154 180 201 213 
221 233 229 222 237 244 225 240 240 239 239 239 242 247 250 247 
248 249 249 248 247 244 243 243 242 234 228 226 215 203 203 45 21 4 7 18 32 58 86 115 134 159 178 190 202 216 227 226 
233 237 234 233 220 157 80 101 142 148 111 92 111 143 165 185 
186 194 198 200 217 239 250 236 238 239 238 238 240 246 250 246 
246 247 247 246 244 243 242 239 240 234 231 229 216 204 204 39 23 9 7 15 31 56 77 103 119 142 164 181 198 213 224 227 
231 235 234 230 210 142 63 76 111 106 57 29 43 74 96 130 
139 142 129 107 100 137 189 222 231 240 244 243 243 245 249 245 
245 245 244 243 242 241 241 237 239 235 232 228 213 201 203 27 24 19 12 12 26 51 71 86 101 126 151 174 194 210 219 227 
229 234 234 228 207 147 80 40 68 71 39 14 10 23 40 50 
74 86 77 58 44 73 128 210 224 243 252 252 248 246 246 246 
245 244 243 242 241 241 241 238 240 236 231 224 207 197 204 40 33 20 10 12 27 48 62 73 89 116 145 171 192 207 215 227 
229 235 235 227 211 173 128 63 78 90 93 85 70 70 88 123 
140 145 150 162 165 172 192 216 229 246 254 252 247 246 247 246 
246 245 243 243 242 242 242 240 241 236 230 221 204 199 212 70 45 17 5 13 29 44 51 68 85 112 141 166 187 202 211 225 
226 232 232 224 216 198 174 146 138 136 148 154 146 156 186 222 
218 199 184 190 207 222 231 234 240 247 248 245 243 245 247 246 
246 246 245 244 243 243 242 240 241 237 231 221 204 203 221 78 51 22 10 12 22 34 45 67 84 109 134 156 176 193 203 218 
216 221 222 215 211 206 193 186 171 161 169 177 174 185 213 237 
223 203 180 172 193 225 241 241 244 247 247 244 243 244 245 245 
245 246 246 245 243 242 241 239 241 239 233 219 199 199 218 63 48 32 22 12 9 25 45 67 82 105 127 146 165 183 196 210 
206 210 213 207 204 201 192 176 178 184 199 206 194 186 196 232 
213 207 206 203 218 237 236 235 240 246 250 249 247 243 241 244 
244 245 246 245 243 241 239 240 243 240 234 217 193 190 209 75 56 84 100 46 5 20 39 58 75 100 124 144 161 177 188 198 
202 205 205 203 201 198 196 190 188 192 200 204 203 202 205 219 
214 206 202 203 213 229 241 242 235 234 241 242 238 241 250 245 
245 244 244 243 240 236 233 237 239 236 224 206 192 186 187 160 141 157 161 94 24 17 40 60 74 95 117 137 154 168 177 187 
191 196 202 207 210 210 208 218 215 204 191 188 194 198 197 201 
190 179 182 194 206 211 211 221 227 240 250 244 234 238 252 245 
244 243 243 243 243 242 241 238 237 232 221 207 194 187 185 207 190 199 203 137 43 13 40 56 66 85 108 131 151 165 172 185 
188 195 203 208 208 204 202 189 190 178 162 166 189 205 207 217 
210 205 209 219 225 222 217 221 211 211 226 235 234 234 240 242 
241 239 238 238 239 240 241 239 235 228 218 206 196 188 184 198 187 193 206 161 63 14 35 50 58 74 99 126 151 167 175 175 
179 185 187 179 165 154 149 154 155 149 141 150 175 196 204 228 
235 240 235 225 216 211 208 214 195 187 200 215 218 223 231 237 
237 237 237 236 235 235 236 236 233 225 215 203 193 188 187 199 192 192 205 181 95 27 23 54 58 70 92 118 142 159 166 159 
162 165 159 139 113 97 93 120 112 102 96 96 104 118 131 171 
186 195 187 169 155 146 142 151 154 162 165 152 147 175 214 225 
230 235 237 237 235 233 233 232 231 225 212 197 188 188 192 207 204 198 204 195 132 52 12 59 62 69 85 107 128 144 153 136 
131 124 111 87 61 48 48 49 42 39 40 43 48 62 77 109 
122 133 135 133 130 120 110 94 95 98 91 70 69 113 167 208 
215 226 232 234 232 230 230 231 230 222 207 191 185 189 197 198 204 199 196 199 166 85 13 50 53 62 78 101 125 145 157 128 
109 84 62 39 18 12 16 10 23 41 60 79 99 116 126 129 
141 152 160 169 174 167 154 130 108 94 95 94 97 123 155 200 
209 221 229 231 230 230 230 233 228 217 201 189 186 191 198 188 202 201 192 201 189 111 21 33 39 53 74 101 131 158 174 161 
128 87 57 34 18 15 20 24 55 90 118 146 175 189 188 189 
203 214 216 217 218 212 202 209 186 177 194 204 195 190 196 207 
216 227 234 235 234 234 235 236 227 212 197 188 188 192 197 189 201 203 199 194 198 156 60 20 40 57 52 73 119 153 185 180 
167 154 138 106 65 39 34 48 60 87 118 138 150 167 184 194 
204 219 230 231 221 207 197 182 193 209 223 231 232 230 228 236 
233 233 234 236 236 235 235 229 223 208 193 188 192 193 190 191 199 200 199 198 206 178 99 26 32 43 44 62 100 138 181 192 
188 187 184 160 115 74 53 45 51 69 97 119 134 148 161 184 
188 194 200 203 202 200 198 205 211 219 226 232 235 238 240 241 
238 235 234 235 234 232 231 229 216 198 188 189 195 195 191 196 199 196 198 200 210 199 146 47 26 27 35 48 72 114 171 183 
185 194 204 195 157 109 76 59 57 64 86 108 123 135 144 158 
161 166 174 185 197 207 213 226 229 232 235 238 240 243 245 242 
239 234 232 231 231 229 226 223 204 186 183 191 197 195 191 203 202 194 198 199 204 205 176 79 27 15 29 35 45 87 152 175 
176 183 196 202 185 149 118 95 88 89 102 119 133 144 152 149 
155 165 179 195 210 221 228 232 237 242 246 247 245 243 242 239 
236 231 227 227 229 226 221 209 193 180 183 193 196 193 191 205 205 196 200 200 199 204 190 107 29 5 24 27 27 64 127 164 
167 171 178 188 188 170 148 131 128 127 133 142 153 165 174 176 
182 192 205 216 224 229 232 235 240 246 249 249 246 243 242 241 
238 231 224 224 225 220 212 193 188 186 189 193 192 191 191 202 206 199 204 205 200 204 198 129 32 0 18 22 19 45 96 147 
161 170 170 175 181 174 159 153 154 156 160 165 174 186 194 208 
211 218 225 231 236 239 240 241 243 244 245 245 245 247 248 245 
242 234 224 221 220 211 199 182 191 198 197 192 191 193 193 196 207 201 206 209 202 205 202 151 42 0 17 21 16 29 62 124 
154 176 175 174 180 180 171 163 167 173 179 186 195 204 210 223 
226 231 236 241 244 246 247 243 243 242 241 241 243 247 250 243 
241 231 220 216 214 202 187 182 200 210 201 192 194 197 196 193 207 202 206 210 202 203 200 168 53 4 18 21 15 19 39 87 
128 161 163 159 166 172 168 168 173 181 190 200 211 218 220 229 
233 239 245 247 246 244 242 240 241 241 241 241 242 244 246 236 
234 226 215 212 210 197 180 185 207 217 203 193 198 202 198 198 203 206 207 205 205 208 211 178 64 7 13 6 9 21 13 48 
94 141 160 167 174 172 164 171 171 178 189 197 202 211 220 231 
235 240 246 249 248 243 239 242 242 244 245 244 242 242 243 234 
236 224 214 210 191 174 181 206 224 230 191 182 201 193 194 198 201 205 205 203 203 205 208 178 71 4 10 8 6 20 14 28 
66 109 136 155 172 175 167 170 171 177 188 198 206 215 224 226 
230 237 242 245 244 242 240 243 244 245 247 247 245 244 244 239 
229 215 212 205 179 173 198 226 227 222 194 192 204 190 190 199 202 204 205 203 202 204 206 186 88 5 10 12 1 17 13 14 
39 73 106 140 169 181 180 177 177 181 190 200 208 215 221 228 
233 240 243 244 243 244 245 247 247 247 247 248 247 245 243 230 
224 209 195 181 168 182 216 244 230 215 198 202 205 189 189 202 204 206 206 205 204 205 206 196 104 11 13 17 0 12 9 11 
23 45 75 113 151 178 189 175 175 179 188 199 209 216 220 231 
236 242 243 241 240 243 246 246 246 243 242 243 245 242 237 218 
221 203 172 160 177 207 230 240 230 213 198 200 198 188 188 204 205 206 207 206 205 205 205 192 98 13 14 19 2 8 7 9 
11 21 44 76 114 153 180 163 167 174 185 199 212 220 224 224 
229 233 234 233 234 239 243 243 242 239 237 241 244 239 231 216 
201 177 161 171 205 231 237 232 233 214 196 191 189 189 188 204 204 205 206 206 205 205 204 171 70 8 12 16 10 7 7 9 
5 9 23 44 73 115 149 159 167 178 187 199 211 220 224 216 
219 221 222 224 228 235 240 240 241 240 239 242 242 231 216 198 
158 142 167 201 225 237 235 238 235 206 191 192 191 197 194 205 205 205 206 207 208 207 206 149 38 4 9 12 19 7 7 13 
6 6 15 23 37 69 102 140 154 169 179 189 202 212 217 212 
211 210 211 214 219 224 228 229 233 233 231 229 221 198 174 148 
126 142 190 221 232 237 234 245 219 172 173 193 195 201 197 208 207 208 209 210 211 210 209 137 19 3 9 9 24 6 7 14 
5 4 10 10 11 32 60 105 123 145 160 173 190 205 213 208 
205 200 199 201 205 209 211 212 217 218 214 207 190 157 125 101 
119 170 215 228 236 245 240 242 192 131 148 187 192 197 191 