P2
# Created by IrfanView
64 64
255
121 121 112 112 127 137 143 153 156 162 163 164 173 185 186 177 184 
186 189 193 197 200 203 205 199 205 208 206 203 203 201 197 186 
203 211 202 195 200 206 207 208 204 203 204 200 192 188 189 183 
184 188 191 190 188 191 198 195 195 190 181 175 173 169 164 112 114 107 107 125 138 144 160 162 162 158 156 165 180 185 179 186 
186 190 193 199 201 200 199 198 205 205 202 201 202 199 192 184 
204 210 195 186 198 208 212 197 195 196 202 198 188 182 185 183 
186 192 198 196 193 198 209 196 192 187 177 171 164 160 161 104 106 108 110 117 131 146 161 165 157 154 162 170 172 176 182 188 
187 187 197 205 209 206 204 198 201 199 199 199 204 198 187 188 
204 207 196 190 200 212 215 204 201 203 207 203 192 185 183 183 
184 191 197 196 191 194 202 206 190 182 180 171 155 152 160 103 102 112 116 110 122 144 151 159 149 157 174 179 173 175 185 188 
187 184 194 205 214 215 214 202 204 199 197 201 208 199 187 187 
201 209 203 199 204 208 209 217 209 206 204 195 183 177 177 183 
182 189 194 191 186 187 194 216 192 181 184 174 152 150 162 101 96 115 122 106 118 147 146 158 150 156 171 173 166 176 194 186 
182 178 183 191 201 206 208 204 203 200 199 203 209 203 193 175 
191 203 206 205 202 197 191 191 182 171 167 158 151 152 153 176 
174 183 191 189 185 190 195 214 190 179 183 175 152 150 162 99 87 112 123 101 118 152 142 155 151 149 149 148 152 170 191 175 
172 169 168 170 175 184 186 200 200 199 195 199 206 202 195 172 
180 192 197 198 191 180 177 148 138 128 123 120 119 126 133 157 
155 164 174 177 176 185 195 207 190 180 178 168 151 148 155 100 80 110 123 97 115 150 132 134 144 145 134 130 137 149 158 149 
155 159 159 158 160 169 174 190 194 193 189 190 197 197 193 184 
183 183 185 184 179 174 175 146 140 131 129 129 130 138 145 155 
154 158 168 170 170 180 191 207 197 187 175 166 156 149 148 105 84 112 125 93 110 144 122 107 133 145 132 117 118 117 111 123 
138 153 156 156 160 172 179 183 188 191 187 185 190 193 188 201 
191 180 177 177 177 179 185 184 175 166 159 156 153 157 166 169 
168 171 178 177 179 189 198 212 209 199 183 169 161 152 145 103 96 100 106 104 116 123 101 113 120 138 158 171 175 170 166 147 
132 138 162 166 153 155 169 182 181 181 179 180 188 195 196 205 
192 181 174 172 172 168 163 147 146 155 169 180 185 192 202 199 
190 185 182 173 165 177 193 200 199 196 170 146 159 165 141 88 82 99 114 115 125 131 111 135 122 116 133 160 187 197 200 206 
189 175 167 155 138 139 151 157 157 159 165 180 190 187 172 203 
198 193 180 166 156 152 146 170 177 193 210 219 221 220 224 212 
204 197 195 187 177 176 180 197 197 196 169 143 154 159 143 79 79 106 124 118 118 118 99 136 132 139 158 183 201 206 204 194 
203 211 214 204 184 164 155 137 134 129 141 171 201 202 189 200 
197 189 171 152 144 150 154 188 198 215 223 221 216 204 196 198 
189 180 180 181 181 183 187 201 200 198 174 149 161 168 151 72 73 106 128 118 110 112 99 107 122 144 155 160 168 178 187 192 
215 236 244 242 233 212 193 165 154 133 126 153 194 217 219 197 
186 166 147 141 152 175 188 211 221 229 228 226 226 222 219 210 
201 188 176 167 167 179 186 200 190 186 170 154 167 174 155 66 63 99 128 125 122 131 127 140 135 135 141 154 175 196 213 225 
221 208 194 195 206 209 204 201 194 166 136 140 172 202 214 200 
181 153 142 151 173 192 200 185 186 186 185 185 191 207 218 217 
221 216 197 169 157 163 171 184 168 159 154 151 168 171 152 81 78 106 135 129 126 138 135 175 152 139 149 174 188 180 168 141 
125 104 101 122 151 170 177 190 198 188 155 141 165 195 211 205 
183 160 159 177 193 191 185 165 150 135 127 105 83 86 103 129 
156 184 185 172 165 173 181 179 162 156 157 159 174 175 156 98 93 115 139 129 121 130 123 149 135 132 142 151 143 117 101 57 
46 48 86 131 156 166 168 177 198 199 166 147 167 197 213 202 
183 165 170 193 206 199 191 197 173 163 163 126 66 45 54 74 
107 148 165 168 177 189 198 175 167 169 172 164 174 181 164 97 86 108 138 131 124 128 125 157 161 164 154 137 126 129 144 89 
67 68 117 172 189 191 195 201 223 218 176 149 163 193 208 197 
178 162 170 193 215 217 213 176 163 182 215 188 108 75 87 124 
147 170 175 171 178 188 193 166 166 177 176 158 161 171 166 98 83 91 125 134 126 142 176 148 140 156 166 150 155 179 197 160 
176 179 176 180 194 209 211 216 219 198 158 141 162 183 187 196 
180 163 161 180 203 212 213 207 203 190 175 170 170 173 169 197 
187 175 171 178 186 175 159 185 184 173 168 177 191 188 175 90 83 94 123 135 135 148 176 138 135 159 182 170 156 163 166 178 
188 191 191 193 199 203 196 213 206 181 152 149 166 182 183 193 
177 164 163 178 195 206 208 200 199 196 192 191 190 191 190 184 
180 179 185 187 187 178 168 188 183 178 174 186 197 191 180 78 81 96 118 135 147 164 180 152 137 162 197 190 170 169 168 173 
186 196 202 207 214 209 203 209 186 159 147 154 169 178 181 187 
175 166 164 171 185 197 202 208 207 206 202 198 194 191 187 192 
185 188 202 201 185 178 179 191 185 181 182 195 204 197 186 70 80 97 113 132 157 174 179 185 152 162 198 198 184 188 195 164 
179 192 203 211 218 216 209 199 173 149 147 160 170 179 188 184 
174 168 166 170 177 190 199 212 211 209 204 198 190 184 176 203 
192 196 211 203 179 176 189 193 185 180 185 197 205 199 193 67 81 97 111 129 158 174 175 199 161 167 196 199 193 201 210 193 
202 206 209 213 218 210 205 186 170 152 153 162 171 183 197 182 
173 168 169 171 173 186 198 204 207 210 213 214 211 208 203 213 
198 198 205 196 175 175 194 197 188 183 191 203 207 205 202 68 78 92 107 128 152 172 177 190 163 171 193 196 197 200 192 201 
204 204 204 207 214 208 205 172 169 158 151 159 172 186 198 183 
171 165 172 173 172 182 194 207 205 211 217 217 217 213 211 211 
200 196 196 189 176 182 196 197 194 199 207 212 211 208 209 69 70 86 106 127 145 165 180 188 172 175 184 183 193 198 181 185 
189 190 193 203 213 208 207 162 169 156 145 153 176 188 184 183 
167 161 169 175 173 180 190 207 204 208 208 207 203 198 195 198 
197 190 185 184 185 192 199 187 195 210 223 222 211 206 209 69 64 76 103 126 142 166 185 201 184 178 168 165 189 201 182 193 
195 195 195 204 209 206 202 158 167 153 135 148 179 186 173 185 
165 155 166 175 171 176 186 195 197 200 203 205 205 201 202 191 
193 189 181 182 193 199 200 176 190 213 230 226 208 198 204 65 86 103 101 113 144 169 168 186 185 189 186 178 174 176 182 184 
182 192 201 205 218 208 176 165 162 147 140 158 187 192 179 163 
162 166 175 177 172 181 191 202 195 191 192 195 196 191 187 178 
188 191 191 197 203 198 183 175 192 207 223 226 196 185 209 69 89 109 109 114 135 160 169 188 188 191 188 182 179 179 183 187 
184 195 200 195 206 198 163 177 164 146 143 158 180 187 185 176 
165 160 172 185 187 187 184 201 197 194 197 201 199 193 188 191 
195 196 195 199 203 194 183 176 191 206 226 232 205 189 207 62 83 109 117 115 122 150 169 180 183 192 191 188 185 185 185 189 
187 197 196 185 192 186 157 182 159 144 149 165 177 186 192 181 
160 146 158 183 192 188 176 194 190 192 195 198 198 195 191 195 
198 197 197 197 197 187 176 172 185 196 219 232 205 187 202 43 66 105 119 113 115 143 170 167 174 185 191 190 187 189 190 186 
184 192 189 178 189 192 170 171 151 144 160 176 180 185 197 185 
162 145 150 174 195 195 189 189 187 188 189 192 193 195 197 190 
191 190 192 192 190 179 171 167 174 180 202 221 200 181 198 28 58 109 124 116 115 139 162 164 169 180 184 181 180 181 182 183 
181 189 186 180 198 207 194 161 152 151 171 185 185 183 191 188 
174 156 151 167 188 203 207 204 200 196 191 189 190 191 196 187 
184 184 188 190 185 179 174 168 166 168 189 210 193 184 201 27 70 121 126 111 116 137 150 168 169 174 175 171 167 170 171 180 
177 187 188 188 207 214 200 156 159 163 178 189 187 181 179 178 
174 161 145 147 166 189 198 218 213 209 202 195 189 188 192 185 
181 177 184 190 184 181 181 169 168 168 186 207 194 189 208 28 79 124 115 102 117 140 141 166 166 167 164 161 162 168 174 180 
178 189 196 195 209 205 180 147 160 166 175 187 196 191 182 170 
175 166 146 139 151 169 174 208 207 211 208 201 192 190 189 185 
176 172 179 183 180 177 184 166 169 172 190 208 196 193 213 26 79 121 101 87 115 142 140 158 158 161 160 157 162 174 181 180 
179 192 201 202 212 198 162 138 157 165 166 180 199 200 190 179 
187 181 160 149 157 168 167 186 192 205 210 204 197 192 190 182 
171 167 175 180 175 173 181 162 168 173 193 210 195 189 213 30 43 133 119 80 123 140 152 164 144 145 157 158 172 186 180 180 
186 199 208 207 188 164 149 142 154 158 167 205 237 235 213 193 
175 168 165 150 155 173 174 194 178 187 207 214 197 191 201 184 
167 168 160 150 179 189 146 163 159 176 200 200 189 201 221 31 41 125 118 86 124 140 149 160 140 144 155 157 169 184 178 189 
199 202 195 197 196 161 120 142 158 175 184 192 204 210 213 162 
197 197 161 142 153 163 155 197 185 189 201 207 205 201 205 194 
172 166 163 154 154 166 168 164 161 175 198 202 193 203 221 34 47 120 127 100 128 148 155 152 132 141 155 158 169 184 177 193 
204 200 184 191 201 163 107 78 113 166 200 186 155 157 183 195 
182 107 62 96 140 162 182 201 195 191 191 200 210 208 203 198 
181 169 179 180 148 142 176 167 161 173 196 204 198 206 220 32 44 114 134 107 116 149 160 147 128 136 157 161 168 183 182 193 
196 190 183 190 197 168 131 101 86 107 168 195 175 155 163 135 
115 72 102 173 159 131 166 200 200 194 182 192 211 208 191 187 
191 178 195 218 184 146 163 170 164 172 197 207 205 208 219 29 40 100 136 105 96 141 158 143 125 134 160 164 170 185 185 199 
186 182 185 184 168 156 150 172 85 32 73 136 152 141 132 93 
128 146 182 213 162 127 173 182 192 190 180 190 210 208 187 181 
194 177 186 226 222 175 148 168 165 177 198 209 209 212 218 43 53 98 150 116 94 149 165 140 122 133 162 168 170 183 186 203 
185 180 185 170 141 133 144 152 115 87 85 90 92 105 126 158 
187 167 136 146 153 155 176 164 179 184 180 187 206 207 194 183 
194 171 162 205 228 202 151 164 170 185 205 213 210 209 215 59 64 91 156 133 104 156 163 137 118 129 163 168 167 180 185 186 
183 182 177 163 144 134 136 127 165 190 178 146 134 149 164 173 
179 162 137 143 166 161 138 160 173 182 180 185 193 199 199 186 
185 175 160 175 214 211 165 157 172 193 210 212 208 209 214 65 59 75 147 133 102 152 150 137 113 126 161 167 164 175 183 161 
177 180 169 164 165 155 137 132 148 157 166 190 215 198 162 170 
166 178 175 151 149 176 195 172 181 186 184 181 181 188 197 183 
178 187 178 163 193 206 169 150 172 196 214 214 208 206 212 67 45 85 137 127 112 134 147 141 119 131 159 162 165 180 191 180 
173 187 172 167 173 143 139 147 166 172 160 165 184 180 155 154 
167 179 175 165 162 171 189 160 185 183 169 179 184 186 201 182 
176 184 172 157 192 216 187 163 180 221 203 205 215 194 229 70 53 73 113 113 96 114 149 143 117 126 155 167 173 183 184 165 
172 198 172 147 152 139 157 181 170 154 142 153 168 157 128 165 
165 169 171 168 171 176 185 159 180 177 177 184 180 178 195 186 
179 186 173 158 189 208 182 169 177 213 207 210 219 202 233 68 63 62 98 123 95 94 153 144 118 124 155 170 181 184 174 166 
176 196 161 132 136 129 151 173 162 152 150 151 152 150 142 169 
157 154 156 164 169 166 165 152 165 169 180 192 176 170 190 187 
184 184 173 164 187 202 183 170 174 210 217 217 218 206 228 64 70 53 90 151 121 94 156 141 124 133 156 167 181 182 166 177 
171 182 153 144 159 142 149 127 141 159 166 144 126 136 160 170 
160 154 156 163 165 161 157 148 155 163 183 196 175 164 188 184 
185 181 170 169 187 195 186 166 177 212 226 214 210 210 219 65 72 33 61 149 136 100 153 134 132 147 162 164 175 180 159 164 
163 179 154 151 174 156 159 146 162 183 189 164 140 155 187 177 
175 173 172 175 176 175 178 151 156 162 181 193 168 155 175 180 
185 176 167 176 189 191 193 171 187 211 223 199 203 227 217 63 67 12 18 107 125 106 145 130 136 154 164 161 176 177 157 151 
166 189 151 127 138 125 135 150 142 143 152 154 153 164 182 165 
168 172 171 172 175 177 187 155 164 162 170 180 161 149 162 177 
185 173 163 181 189 185 196 182 199 209 215 190 205 243 200 48 52 5 2 73 116 117 141 126 135 153 163 166 185 183 151 146 
157 175 135 116 129 114 116 105 100 99 103 113 124 134 139 150 
151 149 152 152 154 155 160 147 159 153 152 165 162 154 162 179 
191 173 163 185 188 177 195 185 208 212 221 199 213 232 149 30 40 8 3 68 125 133 141 126 130 147 157 170 195 186 147 141 
137 144 119 134 169 148 133 122 140 155 149 136 131 138 141 144 
136 131 130 132 131 123 120 123 143 142 140 161 172 168 170 178 
194 174 164 189 186 174 192 177 207 217 235 217 225 209 96 30 18 19 11 18 96 159 149 147 116 138 164 163 199 211 156 150 
149 148 148 152 160 169 175 183 177 173 173 168 163 170 180 192 
178 161 158 168 180 186 186 182 160 134 120 126 146 169 181 185 
188 178 158 160 185 188 170 192 211 231 238 198 252 169 66 23 9 10 2 3 66 129 129 144 121 144 160 153 188 208 170 157 
164 165 160 155 156 163 169 177 178 187 198 198 191 193 200 188 
188 185 189 193 194 185 181 173 168 156 146 143 155 175 190 190 
191 182 164 164 176 181 167 198 217 198 225 223 199 58 23 22 15 15 4 1 41 107 131 142 130 152 156 143 173 203 186 160 
173 177 172 162 158 162 170 160 166 176 188 188 184 185 192 182 
187 193 198 198 192 183 178 172 174 172 159 148 151 168 184 191 
186 179 170 167 169 175 175 206 233 190 229 246 117 0 12 23 24 23 11 2 26 92 143 144 140 155 154 144 169 196 188 157 
167 172 171 165 162 162 164 155 155 158 163 160 154 157 164 174 
178 179 177 174 172 175 179 179 179 176 166 157 158 168 179 185 
179 174 176 170 168 175 186 196 230 202 241 226 49 0 34 18 19 17 13 2 9 72 144 147 146 152 148 149 172 186 180 168 
168 166 168 170 169 163 155 164 168 173 177 171 157 156 158 170 
171 175 172 168 170 178 186 189 181 172 172 176 183 190 193 181 
177 175 176 170 166 175 185 187 199 199 238 187 13 0 34 19 17 13 15 8 2 48 134 148 150 148 144 155 175 182 178 188 
179 169 171 174 174 164 155 160 168 182 193 186 169 158 156 158 
167 175 178 176 176 176 178 179 169 163 170 189 201 203 200 184 
184 180 172 169 169 173 171 199 188 192 231 179 12 8 12 25 22 14 21 18 0 27 113 144 149 147 139 154 176 183 190 190 
185 175 173 174 177 173 170 160 165 176 186 180 168 162 167 158 
164 172 178 179 177 173 173 175 166 166 177 196 206 201 196 181 
188 181 166 166 175 178 162 208 205 196 222 186 9 13 13 27 22 6 15 14 0 7 93 144 152 150 138 153 172 185 206 182 
182 178 173 174 175 180 186 185 182 178 178 174 172 181 197 176 
177 178 177 176 179 181 179 185 181 182 192 207 208 199 191 173 
187 180 163 164 184 184 159 198 225 203 209 184 0 5 32 16 28 10 7 23 0 0 51 128 149 136 114 150 180 182 199 178 
181 188 176 151 160 188 193 188 190 189 179 168 165 170 178 157 
156 158 160 168 173 175 175 175 191 200 202 209 213 207 197 180 
175 154 161 177 183 198 178 210 173 174 228 128 3 29 22 18 31 10 7 21 0 0 36 119 135 124 102 138 175 178 184 177 
178 185 175 156 168 192 199 183 175 164 157 155 157 157 158 155 
160 168 176 187 189 187 183 180 190 200 202 209 212 207 195 194 
171 160 171 169 171 191 189 207 191 190 221 113 3 35 21 20 29 11 6 19 0 0 7 114 136 137 116 142 182 186 180 178 
179 186 180 162 174 199 199 184 169 151 149 159 166 163 154 164 
165 171 178 186 192 193 192 186 194 201 205 210 210 202 195 198 
159 164 178 162 173 199 206 181 188 189 205 89 0 32 16 22 28 14 7 20 5 0 0 89 131 159 142 143 171 185 179 178 
179 190 187 170 178 191 183 175 165 154 159 175 183 179 168 188 
178 168 165 169 178 186 191 191 195 201 204 207 205 199 191 192 
154 175 176 165 203 216 207 163 172 182 208 92 0 24 14 22 26 17 10 17 17 5 0 31 93 158 155 133 147 174 176 180 
179 196 195 180 180 180 162 163 162 163 171 180 184 179 173 191 
180 169 163 168 174 181 185 192 192 197 203 205 199 191 187 187 
163 187 170 178 234 212 183 172 167 185 237 123 0 17 13 21 25 21 9 14 26 20 0 2 61 144 166 142 147 179 184 181 
181 197 201 187 184 175 150 167 171 178 185 188 184 178 174 177 
176 178 182 185 186 183 179 194 189 192 199 200 193 186 185 188 
173 194 165 193 237 179 159 182 163 184 244 136 1 10 7 22 24 26 10 6 28 30 0 1 28 105 154 146 149 171 161 185 
178 194 201 190 190 184 158 174 176 184 190 192 191 185 181 174 
176 182 189 195 193 190 183 193 187 190 199 201 191 183 185 184 
169 187 162 208 222 134 156 180 164 176 229 129 6 21 5 22 25 24 12 8 24 26 5 2 10 62 114 127 133 140 132 178 
179 189 195 192 193 189 173 170 171 174 181 188 190 187 182 183 
182 182 184 187 190 190 190 192 189 191 199 199 192 186 186 178 
165 173 173 205 193 134 166 175 173 179 193 124 47 39 12 