P2
# Created by IrfanView
64 64
255
31 14 36 29 44 73 68 102 109 127 157 186 203 209 211 213 221 
223 221 219 222 228 228 225 229 230 231 229 225 221 219 218 224 
222 221 222 223 224 227 231 228 230 228 223 221 222 222 218 212 
211 206 201 201 202 198 191 200 189 184 180 169 160 142 116 24 33 38 16 54 89 71 101 92 142 192 206 202 205 216 224 216 
221 223 220 221 225 227 227 224 226 228 228 226 224 224 224 222 
220 220 221 222 223 226 228 228 231 230 226 224 224 221 216 212 
212 207 200 198 200 198 194 196 187 184 181 173 168 154 131 32 37 24 15 76 102 66 97 125 169 201 199 194 206 215 213 220 
226 227 224 222 226 229 230 221 223 226 227 226 225 225 225 225 
225 224 224 224 226 227 227 229 232 232 227 224 223 218 212 206 
208 204 197 193 194 196 194 191 184 184 183 177 176 167 148 33 22 24 41 78 78 69 121 167 182 184 173 174 193 207 207 221 
222 219 214 215 221 226 226 218 220 223 223 222 220 220 221 226 
227 225 222 220 221 220 218 217 219 216 209 204 203 200 195 192 
197 197 192 187 188 190 189 188 182 183 182 176 177 173 157 23 13 44 65 55 59 104 165 169 172 172 166 163 170 186 199 196 
193 186 183 189 199 205 204 209 212 215 217 217 217 218 219 221 
223 219 211 207 208 206 201 192 191 185 175 171 171 171 168 178 
185 189 186 183 183 183 182 185 180 183 181 173 173 171 157 32 17 39 59 61 101 155 171 168 164 164 171 176 172 165 160 166 
165 161 158 165 176 182 182 197 201 206 211 213 216 219 221 221 
223 217 205 200 202 201 195 180 178 171 162 159 162 165 164 177 
183 185 183 181 182 181 177 180 178 182 180 171 171 170 158 39 24 28 64 108 149 169 153 165 165 165 171 183 186 170 151 170 
176 179 175 172 175 180 183 191 196 202 207 211 214 218 220 222 
224 217 203 198 203 203 197 185 186 182 176 176 182 187 187 191 
191 188 183 182 185 183 179 174 175 182 182 172 173 173 163 22 28 40 94 147 151 146 151 140 166 180 170 168 184 196 194 195 
208 217 209 195 190 193 197 193 197 202 207 209 212 215 217 218 
220 213 198 194 201 203 197 192 195 195 193 196 203 207 207 205 
201 192 184 184 188 187 182 170 172 182 183 175 177 178 169 23 20 45 127 151 159 136 149 148 176 180 189 197 199 214 218 221 
215 210 215 210 205 198 198 202 197 197 204 212 215 218 221 224 
221 216 210 206 203 202 201 195 200 204 190 194 217 220 215 212 
209 200 212 191 197 184 182 159 169 177 178 176 176 175 172 21 16 71 137 155 162 144 156 160 159 163 191 203 212 226 208 225 
232 229 210 196 203 206 195 205 200 199 204 209 212 216 221 224 
221 216 213 210 206 201 197 206 182 196 209 197 200 208 203 208 
219 199 205 207 210 184 189 177 181 182 178 175 175 174 170 24 14 108 144 153 152 137 142 147 193 187 187 198 172 167 192 173 
176 192 196 195 200 211 207 204 201 203 207 209 211 216 224 224 
221 217 217 216 210 199 191 173 193 163 130 142 144 139 157 156 
130 144 188 182 190 192 183 178 178 175 172 173 178 179 177 25 14 138 149 155 151 138 131 147 165 158 125 97 139 195 178 196 
180 169 143 143 151 178 182 192 194 201 209 212 214 220 228 226 
222 219 219 217 207 190 176 175 129 92 117 160 187 207 209 188 
191 132 95 139 187 182 177 174 174 171 170 176 183 184 181 18 19 152 153 165 165 157 139 155 127 83 114 167 151 112 91 79 
74 95 107 134 116 141 172 172 179 192 206 213 216 222 229 231 
226 220 215 207 191 168 151 109 149 137 122 106 74 71 79 120 
138 182 173 121 117 161 173 174 176 176 176 180 184 181 175 16 40 158 155 167 167 162 139 97 100 135 130 48 24 42 0 31 
64 56 2 51 81 120 136 160 166 181 199 211 216 221 227 234 
228 220 210 195 174 149 132 133 108 68 68 45 15 30 19 12 
30 52 85 146 142 136 151 159 165 172 176 180 183 179 173 15 68 163 159 166 163 162 140 129 153 110 15 0 109 140 21 64 
18 12 70 169 89 64 129 163 166 177 194 209 216 222 227 231 
228 220 208 192 171 149 136 93 12 79 204 117 14 47 31 26 
55 68 16 29 104 170 146 150 161 172 178 181 184 182 177 9 85 166 166 171 168 174 157 111 33 37 99 124 169 161 35 32 
41 40 78 228 187 95 53 173 172 179 194 209 218 224 229 226 
225 220 210 195 177 161 151 53 156 159 186 197 80 15 44 32 
104 176 151 102 45 73 113 166 177 186 188 187 186 183 179 5 121 153 177 178 180 178 170 129 142 156 166 173 174 169 161 72 
65 125 181 175 183 188 151 184 179 183 198 212 219 224 229 234 
229 219 208 198 191 187 185 187 182 179 178 174 158 134 114 144 
163 178 179 172 160 136 112 152 174 191 193 190 190 185 176 22 134 159 177 177 181 186 184 177 184 189 190 191 191 186 179 195 
173 190 207 192 201 217 202 200 194 194 203 213 218 221 224 229 
225 218 211 205 201 199 198 198 191 184 181 184 188 192 192 199 
202 196 184 180 185 185 179 171 186 195 192 188 189 184 176 44 148 165 177 172 178 189 193 199 202 201 198 198 201 201 199 212 
197 196 195 184 189 203 204 202 197 197 204 214 220 225 229 226 
223 218 213 210 208 207 208 193 187 179 173 175 185 199 208 198 
199 193 183 182 191 196 194 191 197 197 190 188 190 187 179 54 153 166 175 168 173 184 192 196 198 195 191 192 197 199 198 175 
180 181 182 186 189 194 204 199 196 196 202 211 220 226 230 226 
224 220 215 211 209 208 208 201 199 197 195 193 192 193 193 191 
197 200 199 200 202 200 194 199 199 195 190 190 193 191 184 52 149 160 173 170 174 184 191 204 205 202 196 193 193 192 188 188 
197 193 189 198 202 206 220 204 203 202 203 208 216 221 224 227 
225 222 218 214 212 210 210 208 206 206 208 211 210 206 201 208 
211 211 210 210 212 212 209 200 198 194 191 192 193 189 182 54 145 154 170 172 178 188 195 206 210 210 206 204 203 198 193 200 
209 206 201 207 208 207 212 200 203 204 205 210 220 226 228 226 
225 223 220 218 217 216 216 214 205 196 194 200 208 213 215 212 
215 217 218 217 214 209 206 203 200 196 193 191 188 181 175 68 149 149 163 168 176 187 194 200 206 210 211 212 213 210 205 201 
205 209 208 210 214 211 204 195 201 205 206 212 223 230 231 224 
223 222 220 218 217 216 216 223 216 206 198 199 206 217 224 216 
220 227 231 229 220 210 205 204 201 197 194 189 183 177 174 83 157 148 157 160 170 181 189 202 208 213 214 215 216 213 207 206 
199 196 191 190 203 210 202 201 207 210 208 210 218 222 220 223 
222 220 218 215 213 211 210 211 212 211 207 202 203 211 218 221 
219 218 217 214 210 207 207 204 200 197 193 187 181 178 178 106 143 139 155 155 170 178 184 193 202 209 212 214 218 218 216 207 
206 208 213 214 210 206 205 204 202 201 203 209 215 218 219 222 
219 215 215 217 217 215 213 213 222 226 222 217 217 219 220 220 
220 220 218 215 211 206 204 200 197 194 192 189 183 175 168 103 137 132 150 153 171 178 183 190 198 206 209 213 219 221 220 220 
221 221 218 214 210 205 201 199 198 200 206 213 219 221 221 221 
219 215 211 209 209 211 213 217 225 230 227 223 223 223 222 221 
221 220 218 214 210 205 202 197 195 192 190 187 181 173 167 99 128 120 142 149 169 176 180 186 194 202 206 211 219 224 224 220 
226 226 219 215 214 208 199 188 190 195 205 215 221 222 220 214 
213 211 208 206 208 214 220 219 226 230 229 227 228 226 223 221 
220 218 215 211 205 201 198 195 193 190 187 183 177 170 166 97 120 109 132 143 163 170 175 184 192 199 203 209 218 224 225 217 
224 225 219 216 214 199 181 180 182 189 202 215 222 221 217 215 
211 206 203 203 203 203 202 213 221 227 228 229 229 227 222 220 
219 216 211 206 200 196 193 193 192 189 186 181 175 169 165 93 113 100 124 135 155 162 169 183 191 198 201 207 216 222 223 224 
228 228 222 217 206 182 158 185 185 191 203 217 225 224 221 226 
217 206 202 201 193 179 166 203 214 224 228 229 230 228 224 222 
220 216 211 205 200 195 193 192 192 189 185 179 173 169 166 88 106 91 116 127 146 155 166 181 189 197 201 207 215 220 220 223 
224 225 223 215 199 181 168 198 194 195 203 217 226 227 225 227 
217 208 208 211 203 182 164 190 206 221 227 228 230 230 228 225 
223 218 213 207 202 198 195 191 191 189 183 177 171 167 166 80 98 85 110 121 139 152 167 176 186 195 201 207 215 220 219 220 
219 221 220 205 189 188 199 204 196 190 194 206 217 220 219 215 
209 207 213 220 217 201 186 175 195 216 224 224 226 229 231 224 
221 217 211 206 201 197 195 188 189 187 181 173 167 165 165 75 93 81 107 117 136 152 169 173 183 194 201 208 216 220 220 226 
223 223 216 192 173 186 214 202 191 181 182 193 204 209 209 205 
203 204 211 217 214 203 192 163 186 210 219 219 220 226 230 220 
218 213 208 202 198 195 193 186 187 185 179 171 165 163 163 69 88 81 113 120 129 144 166 172 181 190 197 205 213 215 214 220 
214 214 215 199 177 178 194 191 180 170 169 177 187 193 196 186 
191 190 211 200 189 208 187 172 192 197 203 223 223 214 223 217 
214 210 207 203 197 191 186 185 182 180 179 171 161 160 166 69 88 77 105 114 127 138 153 169 178 188 195 202 210 213 211 217 
209 205 205 196 179 168 167 102 60 59 120 171 173 164 170 185 
122 62 52 116 195 198 155 184 201 200 197 212 216 213 220 213 
211 208 205 202 197 191 187 186 182 179 178 172 163 160 163 68 89 76 99 109 127 134 140 163 174 185 192 199 206 209 208 205 
204 206 210 205 179 137 105 62 38 19 35 84 132 151 149 114 
42 4 5 74 140 137 151 201 214 206 192 198 209 212 216 209 
207 205 202 200 196 190 186 187 181 177 175 172 165 160 160 62 89 78 98 108 128 134 135 158 170 182 189 195 202 205 205 200 
206 212 215 212 189 141 98 127 157 150 102 83 105 113 96 55 
108 176 184 146 98 100 172 213 222 212 192 191 204 211 211 208 
206 203 201 198 194 189 185 187 182 176 173 171 166 160 156 57 86 77 97 106 126 131 133 152 165 179 186 191 197 201 202 204 
209 209 207 210 209 191 168 172 189 202 186 141 100 92 103 181 
217 209 202 199 187 200 210 217 221 216 200 191 201 209 206 207 
205 202 199 197 192 186 182 186 182 176 171 169 166 160 154 65 85 70 92 102 120 125 130 145 159 175 182 186 192 196 197 196 
204 209 207 209 215 214 208 216 200 202 219 211 183 180 201 195 
221 209 222 223 207 227 223 217 214 216 208 193 196 204 199 203 
201 198 196 194 190 185 181 184 183 178 171 166 164 159 153 91 91 62 85 99 116 120 125 138 153 169 177 181 186 190 192 190 
200 209 209 204 201 200 201 213 209 210 219 226 221 208 198 245 
220 207 218 215 204 209 210 216 206 213 214 194 188 196 193 195 
193 192 192 191 189 185 181 181 184 181 171 164 162 158 154 115 100 58 81 99 116 117 123 133 149 166 173 177 182 186 188 199 
201 202 198 191 188 196 206 207 209 213 215 215 215 218 223 211 
210 238 215 198 223 218 208 217 201 210 216 193 181 189 189 188 
187 187 188 189 188 185 182 179 184 182 171 162 160 158 154 122 91 57 76 94 108 94 131 130 142 158 170 174 176 178 180 189 
196 197 190 185 190 199 204 207 211 213 214 221 228 224 214 217 
220 220 215 208 206 211 217 205 206 207 205 197 189 188 191 185 
186 186 186 184 182 180 178 176 173 170 169 168 165 159 155 115 124 54 69 96 99 119 110 128 139 153 164 169 172 176 179 183 
186 188 187 183 182 185 190 192 203 211 209 207 210 215 216 221 
218 215 217 218 214 203 193 205 199 193 193 195 193 189 185 183 
183 184 183 182 180 178 176 175 173 170 169 168 164 158 153 102 171 39 76 98 98 130 107 127 136 148 158 163 167 171 175 168 
160 160 171 179 182 187 194 185 184 184 190 202 212 209 201 194 
193 195 204 213 216 211 205 198 192 183 177 175 176 176 175 180 
180 181 181 180 178 175 174 174 173 172 171 168 163 157 152 79 204 35 74 95 104 108 122 127 135 147 156 162 165 166 168 159 
141 136 151 162 155 146 145 140 136 137 149 166 175 170 161 146 
150 153 154 157 166 181 193 175 176 171 160 154 160 173 182 178 
179 180 180 179 177 175 174 175 175 175 173 169 163 157 153 56 214 80 42 95 107 91 127 129 137 149 158 164 165 165 164 143 
121 110 122 132 122 106 99 106 121 137 142 137 134 139 148 149 
148 143 135 130 135 149 161 174 173 164 153 151 162 175 181 178 
179 180 180 179 178 176 175 177 178 177 175 169 163 157 154 51 202 147 20 99 111 108 125 132 138 148 158 165 168 168 167 140 
110 77 62 58 59 65 72 58 66 78 82 76 68 68 74 91 
85 79 80 86 89 87 84 102 102 101 108 133 161 174 173 178 
179 180 180 180 179 177 176 179 179 178 173 167 161 157 155 57 160 159 46 86 108 123 127 134 138 145 154 164 171 175 176 164 
142 104 62 34 32 50 68 46 39 36 43 48 43 36 33 42 
43 47 56 63 62 52 42 34 51 73 94 125 160 179 182 177 
178 179 180 179 178 177 175 179 179 177 170 162 157 155 155 57 114 121 87 59 99 118 131 134 136 141 150 161 172 180 184 173 
183 179 152 123 116 131 147 165 164 167 169 164 158 161 170 164 
174 184 184 174 160 150 146 124 155 179 177 167 170 179 184 176 
177 178 179 179 177 176 175 179 178 175 167 159 154 153 154 58 179 145 61 47 96 118 125 128 135 143 152 162 173 182 185 169 
186 184 156 132 132 138 138 154 164 183 197 193 183 187 200 195 
195 182 164 159 169 177 175 166 180 195 199 193 188 189 193 180 
178 176 176 179 181 182 181 183 182 178 169 157 150 152 158 44 173 200 120 31 81 103 126 131 134 138 143 154 169 180 184 186 
177 177 177 155 121 114 128 143 154 171 181 179 173 174 180 174 
176 171 163 164 171 169 159 173 185 198 201 195 189 190 193 182 
180 178 177 178 179 179 178 183 180 175 167 159 153 151 153 39 171 234 189 73 46 87 116 131 134 137 141 152 168 178 180 190 
174 176 189 172 129 109 117 133 145 158 165 168 171 173 172 174 
171 162 155 161 174 176 169 181 190 200 201 195 189 187 189 184 
182 179 177 178 177 176 174 180 175 168 161 157 153 150 147 32 169 215 217 163 37 65 103 121 128 134 137 148 164 171 169 174 
178 181 180 174 160 138 120 125 133 136 133 136 144 144 136 139 
141 140 141 152 168 176 176 186 193 199 199 192 186 183 183 182 
180 177 177 177 177 175 173 173 170 163 154 150 151 150 148 26 178 203 218 216 102 31 90 109 119 124 123 133 152 164 165 165 
178 180 171 174 184 171 146 116 116 107 94 90 92 88 78 113 
130 150 166 177 184 187 187 192 195 198 197 192 186 181 180 176 
175 174 175 176 177 175 174 169 168 162 151 147 150 153 152 38 195 228 223 212 193 28 68 104 115 117 111 119 143 164 172 168 
169 170 173 180 186 184 177 177 173 164 154 150 150 146 140 159 
172 188 196 197 197 199 202 197 198 198 196 193 188 183 180 170 
170 170 172 175 176 174 173 168 167 160 150 149 154 153 146 33 162 215 221 208 227 107 44 86 104 113 108 112 136 159 168 163 
162 166 174 181 185 189 194 196 192 192 196 199 198 198 199 206 
205 204 200 195 193 196 201 197 196 195 194 192 188 183 179 168 
167 168 170 173 173 172 170 166 162 153 146 151 156 143 124 0 93 158 204 222 210 208 32 60 87 107 106 109 128 145 150 149 
160 168 170 176 188 195 195 201 198 204 217 223 219 218 223 216 
216 217 219 218 213 209 207 195 193 190 190 189 186 181 177 167 
167 167 169 171 171 169 167 163 155 144 141 152 156 133 102 0 6 63 152 195 208 203 153 17 90 75 110 123 110 116 142 145 
148 153 159 167 180 195 206 202 205 210 215 219 221 222 222 224 
223 222 222 222 219 212 206 197 192 190 190 185 175 172 175 165 
163 163 167 171 171 165 159 151 155 148 144 161 158 77 101 15 24 5 55 151 188 196 209 60 57 76 90 84 102 111 128 135 
141 149 155 162 172 185 195 206 208 211 214 216 216 216 215 220 
218 216 215 215 212 206 202 195 187 181 182 180 173 167 166 161 
161 163 167 170 168 160 153 148 139 164 144 154 113 72 197 2 45 30 5 38 120 199 219 127 16 61 81 73 102 102 106 120 
130 143 151 156 164 176 185 203 204 206 208 209 209 208 207 217 
216 214 213 211 208 204 201 193 184 178 179 180 175 168 163 157 
158 161 165 167 163 154 147 143 169 122 169 145 58 197 214 5 30 44 45 13 12 100 183 194 16 34 64 78 92 90 93 104 
117 133 144 151 158 170 179 192 193 196 198 200 200 200 200 208 
209 210 210 208 203 198 194 185 181 178 178 177 172 165 161 157 
157 158 160 160 157 150 145 150 159 155 137 117 147 235 216 0 40 26 34 47 0 7 85 181 44 17 30 57 66 85 92 89 
102 118 130 139 149 161 171 181 183 187 190 192 191 190 189 190 
194 198 200 197 192 185 181 174 177 178 172 164 157 153 151 159 
158 156 155 154 152 150 148 145 160 169 102 137 234 197 237 0 42 29 18 37 40 27 5 69 41 19 16 37 54 82 85 82 
89 100 110 121 132 145 153 169 172 177 181 182 180 176 173 176 
181 187 189 187 181 176 174 173 177 175 164 152 147 147 148 161 
159 156 153 151 151 151 151 153 160 100 150 193 222 229 207 20 13 28 47 28 25 45 19 0 20 24 27 27 49 66 76 86 
86 88 93 103 116 127 134 149 154 161 167 169 166 162 158 167 
170 175 176 173 171 170 170 170 170 161 147 140 145 153 156 160 
159 158 156 154 153 153 154 162 109 132 205 213 228 232 170 0 39 39 23 21 28 38 28 27 19 23 33 13 35 42 75 94 
89 84 85 94 106 116 121 129 135 146 155 159 157 153 149 157 
159 161 161 159 159 161 164 160 155 141 128 129 144 157 161 158 
159 161 160 158 155 154 154 119 114 210 226 224 229 207 163 