P2
# Created by IrfanView
64 64
255
52 54 83 107 110 126 148 148 141 147 161 178 186 187 188 192 203 
201 200 199 196 193 198 206 208 207 206 206 206 203 199 195 207 
205 204 207 211 213 210 207 216 212 207 206 208 209 207 204 196 
195 190 180 171 167 169 173 157 150 146 142 124 91 60 43 54 60 89 112 115 130 149 149 152 158 167 175 182 191 200 206 208 
208 211 212 206 197 194 197 209 209 209 208 207 206 205 204 207 
205 204 207 213 216 215 213 206 208 211 212 211 208 205 204 206 
202 195 189 184 176 167 160 158 151 148 146 133 104 72 53 54 66 96 117 122 133 147 148 142 161 178 185 190 197 199 195 196 
198 204 210 211 209 212 218 209 212 213 211 207 206 207 210 207 
205 204 207 213 216 216 214 214 217 220 217 211 207 208 210 195 
188 183 183 186 184 175 166 157 150 148 150 143 119 85 62 52 73 101 120 127 135 143 144 157 173 180 172 170 179 184 179 181 
177 174 172 170 172 182 193 202 207 212 211 206 203 204 207 206 
205 205 207 210 210 205 201 203 198 189 178 170 168 171 175 186 
181 175 171 169 168 166 165 154 149 147 151 150 130 95 68 54 82 110 125 134 138 141 144 158 175 182 169 157 150 138 122 119 
115 113 114 118 127 144 159 184 192 201 204 202 200 201 204 205 
204 204 205 204 198 188 180 160 149 134 120 113 110 108 108 141 
150 158 160 157 158 167 176 155 150 149 154 155 139 105 76 59 94 120 130 141 144 142 147 160 165 162 147 132 122 108 94 82 
85 93 104 115 127 143 157 166 174 185 193 197 200 202 205 203 
202 200 200 196 188 176 166 147 139 128 120 116 112 106 100 112 
129 148 157 154 152 156 162 156 155 155 158 161 148 117 88 61 102 125 132 145 146 141 148 177 158 130 111 109 123 142 155 142 
143 145 148 147 144 148 155 163 167 174 183 190 197 202 204 203 
199 196 193 190 183 174 166 164 161 158 156 156 157 157 157 161 
166 171 170 162 147 131 121 155 156 158 161 163 154 127 100 61 104 125 131 144 145 138 146 146 137 135 144 159 171 182 191 190 
186 184 180 173 166 167 173 169 169 171 177 185 193 199 201 203 
198 192 189 186 183 177 172 167 168 168 167 169 178 191 201 195 
187 181 181 183 174 154 136 151 155 157 160 163 155 131 106 77 112 132 133 138 144 145 148 128 156 148 165 193 187 188 197 192 
192 204 186 183 188 176 174 176 177 178 181 186 191 197 200 201 
200 197 193 188 182 177 174 163 177 169 188 179 192 188 192 189 
190 192 188 193 188 166 164 150 156 155 163 156 146 142 113 80 115 136 137 143 148 147 150 139 159 168 171 170 173 179 176 191 
181 175 189 187 191 175 177 177 178 180 184 189 195 199 202 200 
199 197 193 188 182 177 175 174 184 166 188 187 193 193 198 197 
180 173 178 184 179 169 176 157 163 161 167 159 149 143 112 80 115 137 139 146 149 147 147 149 153 176 173 163 186 195 183 194 
202 186 194 170 171 175 187 176 178 182 188 193 199 203 205 203 
201 198 194 188 182 178 175 167 197 175 177 176 183 183 167 166 
183 192 187 177 175 177 174 164 170 166 170 162 152 143 109 82 117 139 143 151 154 150 148 161 153 165 157 154 168 159 150 144 
172 172 179 176 181 184 166 174 177 182 189 196 201 205 207 208 
205 201 194 187 180 175 172 171 164 148 180 186 161 166 179 144 
127 105 128 170 189 186 164 168 173 168 170 163 154 143 105 86 121 143 148 157 161 156 153 136 160 178 164 139 117 112 132 139 
140 134 121 139 153 173 163 171 175 181 188 196 202 206 209 211 
207 200 192 183 175 169 165 159 154 136 98 70 69 81 72 89 
109 110 144 167 151 164 186 172 177 170 172 167 160 146 103 84 118 139 146 156 161 156 153 169 156 130 135 136 118 93 49 22 
49 81 54 33 61 117 180 170 173 179 186 194 202 208 211 211 
206 199 189 179 171 164 161 156 89 60 8 35 110 95 20 0 
72 62 63 118 152 168 161 178 184 175 175 171 166 150 102 84 117 138 144 157 163 159 156 152 160 147 128 54 41 91 34 10 
69 112 81 25 82 61 91 170 173 178 185 194 203 211 215 213 
208 201 191 182 174 169 166 103 45 119 75 9 13 28 50 37 
173 130 43 63 112 153 161 184 188 178 176 172 167 148 97 91 124 144 151 164 172 168 166 165 135 103 101 43 87 179 67 20 
39 18 9 31 206 108 43 171 173 178 185 194 204 213 218 216 
212 205 196 188 181 176 174 56 76 217 117 7 39 38 14 55 
176 134 92 139 150 160 179 186 190 178 175 170 164 143 91 84 129 136 157 175 164 173 175 173 151 160 151 123 147 163 117 10 
40 25 2 78 189 180 87 164 183 196 196 198 208 214 212 220 
215 207 200 194 190 186 183 148 146 189 177 73 16 36 45 152 
155 160 167 176 184 191 195 195 198 180 177 169 167 150 75 80 126 138 156 170 164 174 177 195 180 187 182 162 179 191 159 74 
50 41 73 128 168 180 177 177 192 202 200 201 211 218 218 222 
216 208 202 198 196 194 193 178 162 186 196 159 147 165 163 186 
187 187 189 190 192 194 194 199 198 181 177 167 160 144 82 73 120 141 154 164 165 177 180 191 185 190 189 180 185 190 179 183 
164 162 179 185 175 178 195 190 201 206 203 203 212 220 222 222 
216 208 202 200 201 202 202 192 169 164 175 183 197 206 199 197 
197 198 198 199 200 201 201 200 193 179 177 167 154 140 102 67 109 141 154 161 169 180 182 189 193 193 194 194 187 185 191 180 
192 194 179 165 164 167 168 197 205 208 205 205 211 217 219 224 
217 208 201 199 201 204 205 202 195 178 168 175 184 188 190 192 
193 195 198 200 202 204 205 198 187 177 177 168 152 141 129 70 98 136 154 160 173 180 184 190 197 195 196 198 186 179 192 188 
183 178 174 171 177 195 213 201 206 210 209 209 212 216 217 228 
221 210 203 200 201 204 205 203 213 202 187 189 192 195 206 200 
201 202 203 203 203 202 201 200 186 178 175 168 151 140 148 88 92 129 151 159 174 178 185 187 194 194 194 195 187 181 188 189 
184 178 177 180 189 199 205 206 209 211 212 213 215 218 220 233 
226 215 206 202 202 203 204 205 212 207 199 201 201 199 204 205 
205 207 207 207 206 204 203 203 188 181 171 166 151 135 156 115 92 122 145 154 171 174 185 195 200 204 204 203 204 203 201 185 
196 199 196 202 215 215 204 210 209 209 211 212 216 221 225 232 
225 215 206 202 201 202 202 219 215 212 212 209 205 202 201 205 
206 208 209 209 208 206 204 200 187 181 165 163 152 132 159 135 94 117 140 151 168 170 185 190 192 200 201 199 208 211 201 214 
202 199 205 205 198 201 212 212 208 206 206 209 214 221 228 228 
222 212 204 200 199 199 198 213 205 210 215 207 202 208 211 216 
216 216 214 211 206 202 199 194 183 178 159 161 155 133 163 147 112 101 129 155 160 170 190 189 193 199 203 206 207 208 210 209 
212 211 207 207 211 211 208 207 201 206 213 210 214 225 228 229 
223 215 207 199 193 193 195 206 212 219 221 216 210 210 214 214 
214 215 214 211 206 201 198 188 190 170 156 160 150 137 143 128 111 105 123 143 154 166 179 188 193 200 205 208 210 212 214 214 
216 216 212 212 215 216 213 209 201 205 212 209 215 225 227 231 
226 217 207 198 193 194 197 206 211 218 221 219 216 217 220 216 
216 216 214 210 205 200 197 182 188 175 160 158 148 118 92 126 123 121 125 137 152 165 171 185 190 198 204 208 211 213 215 215 
218 218 215 215 218 219 216 208 197 200 207 207 213 224 225 232 
228 219 206 195 191 192 195 205 210 217 221 223 224 225 226 219 
218 217 214 210 204 199 196 191 181 173 163 154 153 146 129 98 98 99 107 124 146 166 177 181 187 195 201 205 207 209 210 212 
216 216 214 214 217 217 214 202 191 193 201 202 211 222 222 229 
227 219 205 193 189 188 188 203 210 216 220 223 227 228 227 221 
220 218 214 209 203 197 194 197 171 166 166 146 145 169 184 131 116 106 111 121 133 150 167 180 185 193 200 203 204 204 205 209 
213 214 213 213 216 215 212 196 186 190 198 199 206 218 219 223 
223 216 203 194 192 188 182 198 209 217 219 221 226 226 223 222 
221 218 213 207 201 196 193 186 167 166 163 142 142 161 167 183 161 139 130 127 128 142 158 179 185 193 200 202 203 203 203 208 
212 214 213 214 217 216 212 190 183 189 196 193 197 208 211 213 
212 204 194 192 195 191 181 191 207 219 219 219 223 224 220 221 
220 216 211 205 199 194 192 180 174 166 154 149 162 171 164 167 160 144 124 118 130 150 163 174 180 189 197 201 202 202 202 206 
211 213 212 213 216 215 211 182 179 186 191 181 181 191 194 197 
194 184 176 182 194 193 182 182 204 221 221 218 221 223 221 220 
218 214 209 203 198 194 191 182 174 162 156 150 140 151 178 178 185 169 131 112 126 145 150 167 174 184 193 198 199 200 201 203 
208 211 210 211 213 212 208 175 173 182 184 170 166 175 179 184 
178 165 159 171 190 192 181 176 202 222 223 218 221 224 223 219 
216 213 208 202 197 193 191 181 164 160 171 141 74 78 152 182 165 151 128 139 121 137 152 163 167 173 182 191 197 200 200 204 
209 210 208 208 212 215 214 174 146 177 135 52 74 136 166 157 
185 136 40 42 139 185 154 167 201 224 218 213 222 225 217 210 
208 207 205 202 197 190 185 176 159 166 157 134 34 0 25 179 132 87 59 90 122 140 152 165 168 174 181 189 194 197 198 201 
206 208 206 206 210 213 213 171 128 146 114 23 7 68 135 147 
120 72 40 57 102 125 120 185 209 223 217 211 215 217 212 208 
206 204 203 199 194 186 181 177 159 168 153 124 24 14 27 101 60 26 12 55 131 138 142 166 168 173 179 185 191 195 197 203 
209 211 210 211 215 218 217 190 109 96 127 134 114 78 59 82 
99 136 160 135 98 109 151 204 214 220 217 212 210 211 210 205 
203 201 199 196 190 182 177 174 160 165 149 100 11 28 27 21 14 16 15 40 129 133 139 162 165 170 175 181 187 194 198 203 
209 212 212 213 217 220 219 235 175 131 133 166 191 181 162 140 
158 190 209 195 172 181 207 212 212 214 218 216 211 210 212 202 
201 199 196 193 186 179 173 168 164 157 149 65 6 30 21 21 25 31 23 23 103 130 145 154 159 165 171 177 185 192 198 197 
203 207 207 208 212 214 213 192 214 217 207 200 202 208 205 203 
202 198 196 202 210 214 212 212 209 211 218 219 212 208 209 199 
198 196 194 190 184 177 172 165 170 152 148 34 15 26 18 34 33 28 23 16 71 125 138 147 153 162 169 174 181 189 195 195 
201 205 205 206 209 211 209 209 211 202 208 209 202 207 198 181 
195 210 212 203 196 197 202 208 207 209 214 214 208 202 200 195 
194 192 191 188 182 175 170 166 169 153 129 17 25 22 19 25 24 20 27 20 38 118 126 143 150 160 167 171 176 184 189 194 
200 204 204 204 207 207 205 202 197 190 208 206 197 210 198 199 
195 195 201 205 204 201 199 199 203 205 204 203 202 199 194 190 
189 188 187 184 180 173 168 167 156 157 93 11 26 20 20 27 29 24 32 17 9 115 129 141 150 160 167 170 173 179 185 189 
195 199 198 198 200 200 198 191 193 188 202 197 200 223 198 199 
209 213 207 202 201 196 188 191 197 199 195 195 199 199 194 186 
185 184 184 182 178 171 167 166 142 160 62 10 21 19 20 29 29 21 26 28 10 49 141 131 149 156 159 167 170 171 179 181 
182 185 192 196 194 185 176 172 177 184 190 193 192 189 187 207 
202 192 184 188 196 197 191 182 182 182 184 191 197 193 184 192 
184 178 181 183 179 171 165 166 141 137 25 19 16 17 35 28 29 21 26 30 12 37 108 136 145 149 156 167 166 165 175 172 
176 182 186 185 178 170 164 164 170 170 156 138 132 144 158 164 
167 161 147 139 145 157 164 182 169 163 170 179 182 188 194 183 
183 181 179 177 174 169 164 154 162 94 16 19 27 16 16 28 30 22 26 33 18 23 62 132 139 143 152 164 163 161 170 172 
169 168 172 174 166 148 133 132 137 136 121 102 97 109 124 135 
138 134 119 106 104 110 115 135 102 88 119 159 177 179 179 175 
183 184 176 170 170 168 162 146 153 29 11 24 32 18 22 31 31 24 26 35 26 17 28 108 133 146 148 158 164 163 166 165 
162 166 177 175 142 84 37 60 57 53 51 49 44 37 31 69 
68 67 65 62 54 43 33 45 30 37 82 138 173 181 179 173 
182 184 174 169 170 167 158 152 106 0 19 26 21 15 36 36 33 25 26 34 32 22 16 71 121 148 144 150 165 167 163 175 
168 163 163 161 144 114 89 70 70 78 99 127 148 155 155 117 
124 137 153 163 165 161 157 134 154 167 164 158 163 170 173 176 
181 179 173 170 170 163 152 138 47 12 27 18 14 13 27 38 31 26 26 31 33 28 19 39 100 137 136 142 158 164 162 176 
174 167 157 153 162 182 199 175 171 165 162 167 181 198 210 204 
208 209 198 177 158 155 162 162 188 200 182 165 169 178 180 177 
176 173 172 169 163 154 147 92 4 36 25 11 28 24 16 36 27 26 28 26 29 31 26 23 73 113 126 137 145 151 160 151 
164 177 177 168 163 167 175 176 173 165 154 147 153 170 186 178 
181 183 177 163 155 165 180 189 196 195 186 180 180 176 168 173 
168 169 171 164 148 141 144 70 0 36 21 16 38 27 23 33 24 26 29 22 24 31 29 19 54 91 120 134 133 140 160 158 
158 160 164 171 178 185 188 175 173 169 163 158 157 158 160 163 
157 155 158 159 159 164 172 176 182 191 195 188 177 173 176 168 
162 166 171 158 135 131 142 89 23 25 23 23 30 11 31 32 25 26 26 21 28 36 33 30 34 92 107 112 130 135 136 139 
152 161 161 163 172 177 176 180 176 169 160 149 139 131 126 126 
127 134 147 162 171 172 169 177 186 192 189 183 178 174 170 164 
150 168 162 143 104 155 194 149 25 16 32 21 22 26 37 33 33 37 35 29 31 33 26 20 73 135 118 86 125 134 121 143 
143 145 152 160 167 172 174 177 176 173 168 162 155 149 145 141 
143 148 159 170 177 179 178 190 193 191 182 173 170 168 166 172 
149 154 146 124 135 191 205 120 18 19 36 28 19 23 20 28 34 37 34 32 33 30 22 43 124 178 146 60 104 120 116 122 
132 148 159 158 154 158 168 174 176 178 179 179 176 173 171 166 
169 173 179 185 190 193 194 194 195 190 180 173 172 171 168 153 
143 152 136 91 156 217 204 121 30 12 17 20 21 41 26 26 32 30 27 33 34 29 26 101 164 196 180 56 77 95 116 116 
128 141 146 148 152 156 158 164 168 174 181 185 186 186 185 185 
188 190 192 193 195 198 200 191 191 187 179 174 171 166 160 143 
144 149 119 52 163 227 204 184 103 57 32 25 32 46 16 30 35 30 31 39 32 22 29 149 189 202 204 66 69 78 94 121 
126 123 119 133 156 160 149 153 158 167 176 182 187 188 188 193 
194 195 195 193 192 194 195 192 189 180 169 164 161 154 147 158 
138 117 86 46 185 228 190 195 159 133 100 72 93 92 66 29 36 32 34 39 20 17 47 172 205 210 213 81 81 81 64 82 
107 125 125 126 137 145 145 154 159 167 176 184 190 193 195 200 
200 199 198 197 195 193 191 189 182 170 160 158 160 156 149 139 
106 78 73 85 210 199 150 171 182 186 152 103 165 158 162 30 37 31 32 32 14 39 107 193 214 214 216 95 91 96 65 55 
75 105 125 126 120 127 140 153 157 165 174 183 190 195 197 203 
200 199 199 199 197 191 187 179 175 166 160 159 156 145 133 90 
83 79 84 112 190 157 148 194 210 207 156 86 187 152 169 36 41 32 30 30 21 76 178 217 216 212 220 106 90 109 89 83 
53 50 89 123 127 126 135 144 148 155 164 173 181 187 190 197 
193 191 192 194 192 184 177 174 173 169 163 156 140 114 91 64 
89 106 93 100 143 136 195 201 207 193 141 71 195 123 131 13 46 45 35 8 16 163 216 193 232 210 213 120 93 102 90 95 
72 47 44 67 99 123 134 141 144 150 157 165 173 180 185 180 
183 187 188 185 180 173 169 163 162 158 148 130 107 82 67 96 
100 109 95 122 191 213 203 192 195 192 177 123 86 59 96 49 6 24 27 31 96 203 209 216 225 214 216 137 93 118 108 84 
89 86 69 51 54 80 106 121 132 144 152 155 156 160 164 173 
172 172 173 173 172 169 167 163 169 160 127 85 66 78 98 97 
102 108 106 150 211 209 187 179 181 181 190 184 175 118 105 136 45 37 8 54 156 211 215 231 211 218 220 145 89 124 112 90 
93 90 75 57 46 49 56 105 117 131 139 141 144 152 160 154 
153 155 158 162 161 157 153 157 125 87 71 79 90 91 86 100 
113 113 107 154 197 174 154 165 180 181 181 180 191 142 121 215 164 117 50 115 186 198 235 224 204 219 226 138 98 129 115 117 
106 95 93 93 87 70 56 33 59 97 130 147 151 150 148 136 
139 146 154 158 154 144 135 101 90 79 78 88 100 107 109 118 
139 135 116 150 176 152 150 156 177 178 166 149 159 125 121 218 223 191 142 182 198 202 222 217 213 219 220 115 111 133 122 108 
105 101 95 89 81 73 68 59 51 42 41 53 75 97 111 125 
124 122 118 110 96 79 67 67 80 93 93 87 90 105 121 125 
143 136 117 145 164 141 144 150 155 158 168 166 166 116 105 223 226 228 219 217 211 240 211 225 227 218 200 96 116 130 124 124 
121 116 107 97 90 86 85 85 77 68 61 56 50 41 34 28 
32 38 46 55 63 70 73 91 86 83 89 102 115 123 125 141 
142 134 120 145 161 132 123 142 141 147 170 173 166 113 108 222 213 222 221 215 209 241 213 214 214 209 183 114 134 146 143 132 
124 115 112 113 110 103 95 91 85 77 71 68 68 69 69 81 
82 83 82 80 83 90 97 89 95 102 107 112 123 141 154 155 
146 144 132 141 156 138 128 138 146 156 171 162 155 113 117 23 31 34 22 45 33 36 45 47 45 61 42 18 30 48 45 43 
44 45 46 45 44 44 43 41 43 43 40 37 36 37 39 34 
41 48 50 49 51 59 66 61 68 80 91 101 109 116 120 127 
121 130 115 108 127 132 135 137 152 165 181 177 173 123 114 