P2
# Created by IrfanView
64 64
255
78 78 100 132 152 171 183 183 196 200 204 206 206 207 209 210 211 
214 216 218 218 220 223 225 227 227 227 227 227 228 230 230 230 
229 228 229 232 233 233 232 232 229 224 218 214 212 211 211 209 
211 208 206 210 207 183 153 145 134 124 115 105 99 109 124 79 74 101 137 154 172 187 178 188 187 193 201 208 215 214 216 209 
213 217 217 217 219 223 224 224 226 225 226 228 228 228 228 233 
232 233 236 237 238 233 229 223 225 225 226 223 218 213 210 217 
217 209 200 207 212 193 170 142 137 131 124 108 88 86 102 79 77 107 145 159 172 186 175 203 199 202 206 210 213 208 208 205 
210 214 216 218 220 225 230 222 224 225 228 229 229 227 227 232 
233 235 239 240 237 230 225 229 228 228 224 221 215 209 208 208 
210 203 195 201 209 198 187 137 132 127 123 110 91 86 95 76 78 112 152 162 173 187 178 207 208 210 211 207 203 203 204 200 
203 208 212 214 216 221 225 220 224 227 229 232 231 229 228 228 
227 229 232 233 232 228 223 230 226 219 216 214 214 217 222 205 
213 211 210 212 216 209 205 151 139 120 115 105 92 91 96 73 76 114 154 164 174 188 182 192 200 210 211 204 202 208 220 208 
210 214 214 213 214 217 219 220 223 227 230 231 230 229 228 225 
224 224 225 227 229 228 227 223 221 220 220 219 221 222 225 206 
207 202 196 196 199 196 195 173 150 125 116 105 86 77 83 71 76 117 154 161 170 186 185 200 206 213 208 197 192 200 209 220 
219 222 222 222 220 223 226 218 221 223 227 227 228 229 227 228 
226 222 222 225 227 228 227 229 231 230 227 215 200 183 177 162 
153 136 127 129 135 138 140 159 134 118 118 116 96 78 77 73 78 120 154 156 164 179 183 187 185 179 169 162 158 159 157 181 
185 191 196 202 207 214 217 216 216 217 218 222 222 223 225 225 
222 221 221 222 221 218 216 215 213 205 191 174 153 139 127 127 
116 110 112 123 128 131 127 150 123 105 112 119 107 91 86 75 79 121 152 151 158 180 191 140 128 108 101 105 110 111 106 111 
122 138 155 171 185 196 202 223 216 214 213 216 219 222 224 220 
220 220 221 219 216 210 211 179 172 156 137 123 116 117 114 131 
130 144 171 193 196 185 177 164 128 100 103 110 103 93 91 94 80 115 158 163 167 155 111 98 119 148 173 179 170 153 146 136 
120 110 115 126 136 154 168 177 208 231 223 215 224 221 209 213 
229 227 214 214 217 195 165 150 153 140 130 141 165 181 180 211 
208 197 187 191 208 210 203 189 194 161 106 87 107 106 87 97 91 126 153 146 148 152 122 181 194 210 207 197 199 210 222 182 
177 169 157 137 120 123 133 154 179 199 201 201 214 222 222 221 
223 218 212 212 209 184 155 145 145 153 168 182 191 203 215 190 
205 216 214 202 194 191 191 191 197 174 129 104 104 103 90 94 104 137 149 133 135 154 147 183 189 197 197 202 207 198 186 200 
199 190 177 158 143 143 148 145 161 185 200 206 209 214 218 226 
216 210 211 210 198 172 153 185 168 155 152 138 120 122 137 138 
137 150 172 191 194 189 185 183 188 179 148 114 97 88 89 89 107 140 148 138 144 163 172 175 182 188 185 184 182 161 140 108 
103 93 91 98 104 110 113 133 140 164 197 218 218 214 211 222 
213 211 213 206 187 170 164 142 129 114 103 91 76 66 63 87 
77 85 110 141 158 173 185 167 169 166 154 129 98 84 87 90 117 142 146 147 150 156 164 172 184 189 169 139 117 109 109 104 
112 115 111 106 111 120 123 118 110 127 165 202 220 223 223 221 
217 216 211 193 170 159 168 144 144 134 121 121 119 100 73 75 
75 82 89 96 112 145 176 169 162 159 161 146 116 93 87 98 133 151 147 158 153 141 142 165 149 144 147 132 91 45 24 39 
62 78 68 51 50 65 72 141 124 122 138 171 203 222 229 224 
225 216 196 170 152 145 146 123 104 70 47 40 41 34 27 45 
41 39 51 85 126 150 151 174 161 156 159 156 133 103 91 98 140 155 153 169 163 145 152 170 145 139 150 132 83 50 53 33 
36 27 28 47 79 102 100 157 157 151 141 154 187 216 224 231 
227 208 178 158 152 140 126 131 105 98 113 105 70 59 77 27 
37 35 34 64 119 153 155 171 166 162 161 164 153 128 108 92 138 159 158 178 179 165 178 151 156 167 139 55 6 64 179 106 
60 8 21 100 181 205 192 132 159 164 145 148 184 215 221 234 
227 201 165 152 156 139 116 118 113 167 240 212 91 16 16 35 
106 133 70 10 38 125 185 171 174 174 172 177 177 157 133 93 148 156 146 184 184 158 173 185 163 114 60 31 46 89 131 97 
71 42 46 98 148 166 166 98 116 155 181 165 168 205 230 237 
223 190 161 170 188 170 138 82 115 137 132 105 80 70 63 101 
95 99 101 89 87 124 172 187 188 189 185 186 179 160 144 99 152 161 153 182 187 170 186 166 172 174 161 135 114 102 103 105 
122 136 138 138 137 128 119 163 168 195 201 178 177 211 231 232 
222 200 181 183 196 192 182 164 167 160 147 134 131 137 144 127 
108 107 127 146 159 179 198 198 198 196 191 189 183 166 151 104 151 164 156 180 187 179 198 193 197 200 201 191 173 149 136 118 
149 180 188 183 186 193 196 208 202 213 206 175 174 201 219 219 
209 195 185 184 192 205 216 207 202 197 193 194 192 189 186 180 
161 156 178 200 208 207 207 208 207 203 197 194 189 171 157 103 141 160 158 174 183 183 198 214 205 197 191 189 191 191 190 191 
198 199 196 202 214 219 219 214 206 209 195 164 168 198 213 220 
200 185 184 184 184 201 222 209 213 218 223 225 213 197 181 199 
200 205 212 210 201 202 212 209 208 202 194 192 189 175 162 102 132 156 165 172 182 186 193 192 197 203 207 203 200 197 197 202 
206 206 207 213 218 210 198 220 212 210 194 167 177 210 223 231 
202 185 188 192 193 204 222 223 221 216 211 207 204 205 205 196 
202 212 214 206 201 209 222 208 206 199 191 192 191 178 167 107 126 154 168 174 185 193 192 191 201 213 219 211 202 199 201 182 
197 208 209 211 221 231 237 222 213 211 191 168 182 215 222 225 
199 181 185 196 200 209 216 219 221 222 217 213 212 219 225 214 
211 206 208 213 215 212 210 209 206 199 193 194 193 181 169 114 122 147 164 168 184 197 191 209 208 208 207 202 205 211 218 225 
230 224 211 205 212 224 231 216 209 204 187 164 183 212 216 210 
196 185 183 192 201 206 210 207 215 227 233 231 226 220 218 230 
222 212 209 213 216 210 201 209 207 201 193 192 190 177 165 118 118 141 156 161 182 199 186 200 198 199 204 208 213 215 217 209 
209 209 216 233 239 228 210 214 209 206 189 167 186 216 219 207 
207 199 192 193 204 210 209 221 218 216 219 221 222 220 217 205 
216 222 216 207 209 215 223 210 208 200 190 188 186 172 160 141 66 141 156 172 171 192 193 208 207 207 206 204 206 213 217 217 
223 221 218 219 225 224 221 216 210 191 173 174 193 211 222 214 
195 182 193 199 192 199 210 215 214 218 222 226 226 223 218 224 
220 216 212 211 210 204 203 194 193 192 196 194 185 167 157 160 84 126 153 163 172 184 192 202 203 208 208 209 209 211 213 218 
220 220 218 221 226 224 217 209 207 192 175 173 191 211 224 214 
197 188 197 202 194 198 205 222 219 219 222 223 224 227 227 225 
220 215 211 209 207 206 203 205 200 194 190 185 175 160 151 181 102 94 146 148 173 171 193 197 200 207 211 212 213 212 212 218 
224 224 223 224 227 221 215 200 202 190 174 171 191 211 226 210 
199 192 199 203 199 198 202 224 222 220 219 217 219 227 237 230 
224 216 210 207 205 205 203 204 199 190 186 179 169 155 148 191 116 66 135 138 172 165 194 195 198 205 207 209 210 214 215 222 
226 230 228 230 230 221 213 198 200 189 174 173 189 210 224 206 
197 194 200 206 203 202 202 217 220 222 220 215 217 227 236 232 
226 215 209 205 204 203 201 196 192 188 182 177 165 155 147 183 124 55 125 137 166 164 188 196 195 200 201 204 209 215 219 224 
229 232 232 232 231 222 213 202 201 189 175 175 191 208 217 201 
197 192 197 205 206 206 205 214 220 226 227 221 221 225 234 231 
224 215 207 203 201 199 200 192 189 186 177 170 159 149 143 147 112 52 108 141 150 164 177 194 192 195 198 202 207 215 221 224 
229 233 231 231 231 221 212 209 201 187 176 181 199 210 214 203 
200 191 192 199 205 208 207 216 220 229 233 232 230 230 233 228 
222 213 206 202 200 196 196 193 189 178 164 153 144 136 135 85 68 35 76 140 129 167 165 188 188 193 197 202 207 215 218 222 
227 227 225 226 227 220 210 212 199 182 175 189 210 216 213 211 
204 192 188 191 201 207 205 217 218 224 228 230 231 229 230 223 
220 210 205 202 199 194 192 188 178 162 143 131 125 127 133 33 23 17 48 134 117 174 165 185 184 194 200 205 208 212 215 222 
225 225 223 222 224 218 210 215 200 179 173 194 217 223 213 218 
207 194 182 185 199 207 203 214 212 213 220 226 229 228 225 221 
217 211 207 202 199 195 192 183 172 149 127 116 118 128 135 38 43 22 75 114 116 156 144 170 181 193 194 200 211 212 203 208 
211 217 221 220 219 212 213 197 186 181 190 198 199 206 216 225 
199 185 193 198 189 189 196 220 217 217 218 216 216 217 216 207 
211 211 202 195 193 187 182 184 143 122 125 116 116 127 129 51 45 12 66 120 112 139 156 160 173 189 193 199 208 211 206 209 
211 214 217 217 215 211 212 205 199 187 183 192 210 226 234 231 
213 202 199 190 182 193 211 215 213 214 216 216 215 213 214 212 
214 209 203 198 197 186 179 150 120 111 117 109 110 127 129 74 67 22 64 129 110 115 158 148 166 185 192 196 200 204 202 206 
206 208 210 209 209 206 209 188 182 168 168 193 222 220 202 224 
196 172 167 171 176 194 214 212 212 212 214 213 210 207 206 211 
209 202 197 195 193 176 165 134 111 104 108 98 102 121 125 100 116 68 73 135 121 104 150 142 159 181 191 193 192 194 195 206 
205 204 204 204 204 204 208 184 162 128 121 163 213 216 189 189 
154 121 124 153 180 197 205 211 211 213 212 209 208 205 203 202 
198 192 189 191 188 166 148 125 103 97 104 101 110 125 122 115 156 124 89 135 142 109 138 135 149 170 183 189 190 194 198 204 
202 202 201 201 203 203 205 200 179 133 97 113 162 195 199 146 
136 131 145 169 189 203 210 211 212 213 214 213 209 205 203 196 
194 187 188 191 185 156 136 94 82 88 107 113 123 123 104 109 149 139 92 130 161 124 133 129 135 152 172 185 189 198 205 202 
201 200 200 201 201 200 202 200 212 196 149 110 108 127 144 132 
163 196 209 202 198 207 222 209 211 214 214 213 209 205 203 196 
194 192 191 190 179 149 123 84 79 94 110 108 104 87 70 88 94 107 79 120 171 140 141 134 132 141 160 178 184 191 199 198 
198 199 200 200 199 197 197 192 211 222 203 160 126 116 114 162 
189 221 227 215 204 205 216 205 209 211 214 211 208 204 203 194 
196 195 190 184 168 132 103 101 95 101 100 80 73 71 65 69 44 69 69 114 172 147 149 141 133 135 156 173 179 181 187 195 
194 198 200 201 200 196 194 203 192 188 197 198 187 180 175 196 
193 195 200 204 208 204 196 205 208 211 212 213 209 203 201 189 
196 195 188 178 156 121 90 115 105 103 88 60 64 90 93 51 50 45 43 121 181 155 166 162 158 144 137 152 176 187 180 196 
200 204 199 187 182 187 195 188 194 197 199 196 196 200 201 207 
208 210 208 202 198 196 196 199 201 202 202 201 202 204 209 193 
190 184 180 169 139 99 68 87 70 58 35 33 95 137 103 39 38 39 37 109 170 153 167 162 161 152 145 155 175 185 183 200 
193 189 184 183 188 193 196 202 201 204 208 213 212 208 201 207 
208 210 207 204 199 197 195 201 202 201 203 201 201 203 206 190 
191 192 189 174 138 91 59 45 27 31 42 59 105 126 102 33 31 36 31 95 166 162 177 170 170 165 156 157 173 186 189 199 
189 180 184 195 202 201 196 199 191 184 190 205 213 214 210 214 
214 208 204 201 203 210 214 206 202 202 198 197 196 192 194 185 
185 189 192 187 164 131 107 86 70 83 107 104 105 115 111 32 26 29 23 78 160 169 179 177 179 176 168 162 170 185 196 194 
189 188 192 198 194 183 175 161 150 139 137 149 166 179 186 165 
159 150 143 143 155 172 182 205 199 197 195 192 193 190 186 193 
186 179 181 186 185 178 172 168 160 174 179 135 87 96 126 27 11 16 6 49 143 168 170 182 183 185 180 171 170 185 200 201 
195 188 174 155 136 122 115 102 101 97 95 96 104 116 124 113 
113 108 106 107 113 124 129 160 159 164 175 186 190 193 190 203 
189 178 172 175 178 179 176 181 180 187 188 144 82 83 123 30 14 24 5 28 124 168 174 182 183 189 188 179 173 184 198 213 
203 185 150 110 80 66 65 73 80 88 91 85 78 72 72 88 
94 101 104 101 94 90 84 92 98 115 140 164 182 190 190 192 
189 182 183 184 185 179 175 179 175 165 167 159 115 89 113 43 36 52 13 6 93 154 168 183 181 190 194 187 177 185 196 213 
208 195 165 127 96 81 76 90 96 104 111 111 103 94 81 90 
92 96 95 91 85 80 78 79 89 109 140 169 187 191 191 187 
187 188 194 197 196 192 189 184 191 166 148 157 137 112 123 51 48 71 16 0 64 133 151 182 179 187 196 191 181 185 196 201 
209 213 204 178 148 125 115 127 121 119 124 135 136 130 117 141 
134 128 122 121 127 138 146 121 126 141 168 195 207 207 200 199 
196 192 192 192 188 185 183 171 197 166 128 132 130 127 146 56 100 63 2 1 14 77 169 175 182 197 194 183 179 185 190 202 
204 205 203 200 179 138 104 107 108 110 124 143 157 164 164 180 
176 163 143 122 106 99 98 104 135 172 192 200 202 199 193 201 
193 187 185 189 193 191 190 170 179 164 127 121 147 160 149 64 83 47 8 7 6 53 140 159 168 184 183 184 185 187 180 200 
202 201 192 185 178 166 156 125 118 107 106 116 129 138 143 119 
119 118 114 111 113 119 120 147 166 188 198 202 205 202 199 191 
194 200 202 201 193 187 183 177 167 140 116 122 145 151 144 70 64 32 20 22 2 15 86 153 165 182 178 179 193 194 180 193 
197 199 190 185 187 192 195 165 157 137 121 117 118 121 124 106 
111 117 123 130 140 152 155 181 190 199 201 199 202 204 203 190 
197 202 204 200 192 182 178 177 148 115 109 124 142 145 140 68 53 27 26 26 3 3 32 129 156 186 180 172 183 193 188 185 
195 199 197 193 192 187 186 184 182 173 169 162 155 145 140 150 
153 153 157 162 169 177 177 182 188 195 193 193 201 204 202 203 
198 192 191 191 189 180 179 155 132 108 114 127 131 138 145 59 52 33 26 26 14 5 3 65 118 177 186 173 173 183 182 192 
196 199 196 198 197 189 178 173 178 185 194 197 197 191 187 184 
183 180 177 179 179 179 179 181 188 193 193 197 202 204 199 211 
199 187 189 195 191 175 169 111 109 108 119 123 122 139 156 50 51 43 27 22 27 16 1 7 69 146 184 187 181 182 182 197 
195 192 190 194 203 199 192 186 186 188 191 194 197 200 202 196 
192 189 188 188 190 189 186 190 197 202 201 203 205 204 198 201 
195 192 197 200 185 156 138 85 97 108 120 119 121 141 159 48 45 42 33 23 28 23 4 1 23 82 140 173 177 177 178 185 
191 194 190 192 202 206 206 203 201 197 192 190 191 195 197 204 
201 197 198 199 201 200 197 198 203 205 201 202 205 202 195 192 
194 195 192 180 158 130 112 110 109 112 115 121 130 141 149 49 37 39 40 25 22 22 9 2 1 21 89 146 168 167 169 166 
185 199 199 194 196 201 204 196 200 204 204 204 204 207 207 213 
208 203 202 203 203 200 196 192 197 195 192 195 201 200 195 192 
196 194 182 160 132 106 89 143 133 118 115 124 138 138 136 53 51 33 34 44 27 12 24 4 5 12 29 84 119 128 179 158 
177 195 200 196 194 198 201 206 201 196 197 204 207 207 204 210 
205 201 198 200 202 203 203 194 203 207 203 193 189 188 192 187 
184 188 170 109 66 108 185 162 127 110 117 132 158 158 136 52 57 47 37 38 34 24 26 6 5 32 66 64 99 147 133 143 
161 180 188 190 190 197 202 201 197 196 197 200 200 196 190 200 
197 196 196 197 198 196 194 210 186 169 181 189 182 181 191 172 
197 160 82 74 144 189 180 149 109 80 135 168 151 143 139 55 65 61 44 41 49 42 31 39 7 27 97 78 115 192 97 104 
128 156 181 190 192 194 197 203 202 203 206 206 203 198 192 197 
193 194 197 199 198 193 190 181 186 193 196 187 177 164 162 166 
126 72 72 137 207 213 183 156 117 70 164 219 161 144 142 67 62 63 63 57 63 56 41 48 28 32 125 114 119 192 101 58 
89 129 166 186 190 191 193 192 194 197 199 200 200 197 194 194 
193 191 193 194 196 193 190 195 207 189 152 150 176 179 162 109 
71 81 164 222 211 181 184 155 146 87 169 227 178 161 138 81 56 63 84 78 76 68 48 25 56 52 147 163 113 143 116 29 
55 83 120 150 168 184 196 181 182 183 184 184 184 188 191 194 
191 187 187 188 189 188 188 185 175 162 160 172 169 133 94 63 
135 204 222 206 192 181 181 138 155 117 145 191 193 183 138 88 63 79 102 90 92 89 51 40 69 46 137 230 194 153 134 33 
41 42 66 93 119 150 177 184 183 183 184 183 185 192 196 195 
192 189 187 188 188 185 184 167 151 163 181 147 84 64 82 157 
203 231 211 188 194 192 183 131 142 147 136 151 206 207 165 83 85 115 113 85 109 113 49 67 70 47 95 204 231 181 154 61 
54 38 44 58 69 93 112 143 144 151 157 161 167 174 179 171 
172 172 174 175 169 162 158 173 152 126 96 59 58 125 197 239 
210 193 195 202 199 191 196 144 104 166 152 127 194 209 202 76 101 128 112 90 113 114 61 61 74 83 77 107 153 158 149 94 
73 56 53 52 49 54 63 81 89 102 113 122 130 137 143 144 
146 150 153 151 144 134 126 109 107 90 78 108 167 204 209 205 
208 207 201 195 194 194 193 152 99 152 155 131 168 191 221 