P2
# Created by IrfanView
64 64
255
254 246 208 159 118 86 73 81 100 126 141 140 136 123 111 111 129 
135 144 154 163 168 171 172 161 154 145 141 144 149 153 155 152 
158 166 175 183 178 153 126 98 127 167 196 203 191 173 161 143 
128 109 91 77 76 93 113 128 132 143 162 180 184 169 152 251 241 204 154 113 84 77 89 122 146 157 155 151 140 130 132 133 
136 141 148 155 161 166 169 171 170 169 171 175 178 178 176 169 
173 178 184 190 188 171 152 141 157 178 191 193 186 178 173 169 
161 150 140 131 129 142 157 163 162 165 175 184 181 164 147 245 237 199 147 105 80 80 99 138 157 164 159 155 146 140 144 136 
137 138 141 147 154 161 165 168 171 177 183 187 186 182 177 177 
179 181 183 187 188 182 174 178 183 189 190 187 184 182 182 186 
186 186 186 181 179 185 194 197 192 188 188 188 177 158 143 244 236 197 141 98 75 82 107 143 158 159 151 147 140 137 142 137 
137 138 141 146 153 159 163 162 166 172 177 179 177 172 169 175 
177 179 179 180 183 184 185 186 190 194 194 191 187 184 183 187 
193 199 202 201 199 200 204 208 201 197 197 191 175 155 142 247 238 197 139 94 73 83 111 147 159 156 146 143 138 136 142 138 
140 143 147 152 157 160 162 169 171 173 175 176 177 178 178 177 
179 183 185 184 185 189 193 188 191 195 196 194 190 186 184 190 
196 202 204 202 201 200 200 203 199 199 202 194 174 152 141 252 242 199 140 96 75 85 112 145 156 153 143 142 139 138 144 142 
145 149 154 159 161 163 163 170 171 171 171 173 177 183 188 179 
181 185 189 189 187 190 195 197 196 195 193 192 190 189 188 191 
196 200 198 197 197 196 194 197 195 199 204 195 170 148 139 254 244 201 143 100 80 89 114 137 149 148 141 143 143 142 149 151 
152 155 158 161 163 164 164 167 169 171 171 171 174 180 184 180 
179 182 188 188 184 186 192 200 197 194 192 191 190 190 190 188 
194 195 192 192 195 194 190 193 191 196 202 191 165 144 137 254 245 201 145 104 84 92 115 134 147 147 143 148 149 149 156 158 
158 159 160 161 162 164 165 173 176 179 180 178 177 179 181 183 
180 181 187 187 184 185 191 194 193 192 193 193 192 189 187 187 
193 195 192 193 197 197 192 188 185 191 197 186 160 141 137 247 238 199 145 102 80 86 110 128 138 146 149 151 156 159 159 168 
165 161 159 159 159 158 157 168 173 178 181 181 180 178 178 179 
181 184 187 187 187 185 183 186 187 189 191 191 189 187 186 189 
191 193 197 199 199 196 193 191 186 188 191 178 150 130 124 228 222 188 137 95 71 81 108 135 146 156 158 160 165 169 170 171 
168 164 162 163 164 163 163 161 166 173 177 178 178 178 178 179 
180 182 184 187 189 191 192 189 188 187 187 187 188 190 191 190 
191 194 197 199 198 195 192 190 187 189 188 170 140 121 118 207 207 181 135 91 64 78 112 140 152 163 165 164 167 172 174 169 
165 160 157 157 157 158 157 156 161 169 175 178 179 179 180 178 
178 178 180 183 188 192 195 188 188 189 190 191 192 194 194 196 
198 201 203 203 200 197 194 190 189 191 186 165 133 112 107 200 205 189 147 97 64 81 124 149 162 172 170 163 159 158 158 158 
153 148 145 145 147 149 149 148 154 162 168 171 173 174 175 174 
174 175 177 180 184 187 190 187 189 192 195 196 195 194 193 197 
200 205 208 207 204 202 200 194 192 192 189 171 140 112 98 204 215 206 167 110 68 86 138 166 175 178 168 153 140 132 126 125 
121 118 118 123 130 136 139 132 138 147 154 159 161 163 164 170 
171 172 175 177 179 180 181 180 178 175 172 171 172 174 175 176 
183 193 200 203 203 204 205 201 195 193 194 185 159 125 101 211 227 226 188 122 71 91 149 175 176 170 152 133 117 104 96 81 
78 75 77 84 93 102 106 112 119 131 141 149 154 159 161 164 
164 164 163 162 161 159 159 149 140 127 117 115 122 132 140 144 
155 170 182 190 195 201 204 204 197 194 198 198 180 146 118 218 238 242 206 133 75 96 160 173 168 153 134 119 110 102 95 79 
73 64 59 59 63 67 70 83 93 108 123 137 147 156 160 157 
152 145 136 128 121 116 114 103 95 83 76 78 89 104 114 127 
140 157 171 180 187 194 199 203 197 194 198 202 192 166 142 223 245 251 216 141 79 100 168 173 163 146 128 120 121 120 117 116 
105 89 75 65 60 57 56 55 66 84 104 121 136 148 154 152 
143 128 111 95 83 75 72 72 70 68 69 77 90 103 112 128 
140 157 170 178 183 190 194 201 197 194 197 201 196 178 160 234 231 248 211 166 104 113 169 175 156 140 134 131 127 132 140 135 
128 120 113 100 82 66 60 58 59 71 97 122 138 149 158 150 
145 128 101 79 72 74 77 73 79 94 105 112 133 152 152 172 
170 170 173 180 186 190 191 198 199 197 195 196 196 189 181 237 223 235 203 165 111 122 177 171 154 141 140 139 132 128 130 134 
129 125 121 111 98 90 89 73 71 78 99 121 140 156 167 159 
154 138 115 98 93 93 93 108 107 120 135 143 160 177 179 182 
187 192 194 192 191 190 191 199 201 200 196 196 198 195 190 231 200 206 182 157 115 130 179 173 155 140 135 127 110 96 92 62 
59 57 57 56 58 67 77 81 78 81 95 116 137 159 174 177 
171 155 136 123 116 109 102 95 78 75 81 84 99 125 139 151 
166 185 196 197 194 192 192 198 202 202 199 197 200 201 199 207 158 161 153 145 115 133 175 176 156 132 113 90 64 48 45 31 
27 24 24 26 35 54 72 83 82 85 96 115 140 166 182 195 
187 172 155 141 126 107 90 77 58 53 55 44 44 65 83 80 
100 130 156 173 183 188 191 191 199 203 201 199 201 202 201 173 109 114 126 136 120 141 176 170 149 122 95 66 42 35 40 33 
31 30 28 24 23 32 44 86 90 96 106 124 151 178 195 202 
195 181 166 151 130 102 78 37 36 52 61 40 18 17 24 41 
52 73 101 130 156 174 184 185 195 203 204 202 202 200 197 152 75 82 110 134 129 154 184 161 143 121 103 84 70 71 81 81 
84 89 93 87 76 70 71 93 101 109 117 132 158 186 202 200 
195 184 171 159 139 111 86 62 69 91 100 80 61 59 61 70 
69 72 86 111 139 164 177 185 194 203 205 205 204 199 192 155 66 69 104 133 133 160 187 166 150 137 133 129 121 118 121 113 
115 121 126 123 111 101 97 108 118 124 127 138 163 190 205 202 
197 188 177 167 154 132 113 96 99 112 116 107 108 117 118 124 
124 125 129 139 154 170 180 192 198 204 206 208 207 201 193 168 70 69 102 130 130 158 183 178 162 154 160 164 155 142 135 135 
130 127 126 122 112 105 103 128 137 141 139 147 170 196 212 208 
203 192 181 174 165 149 135 109 113 126 134 134 144 151 143 156 
165 176 182 181 181 184 187 200 203 205 206 209 210 204 195 173 101 79 108 137 142 150 193 180 174 167 164 162 158 150 143 137 
139 137 128 117 111 113 118 133 145 148 144 156 183 201 203 210 
208 200 191 186 180 165 148 125 120 124 137 150 155 154 154 164 
172 186 198 205 205 201 198 207 208 210 211 210 205 197 191 177 112 95 119 142 144 151 194 179 175 171 168 167 164 158 154 148 
147 143 135 127 124 127 131 141 152 155 153 165 191 206 206 206 
208 207 205 202 195 177 159 141 134 133 142 155 162 165 167 178 
184 193 201 207 208 207 206 209 209 210 211 210 205 199 194 181 127 113 129 141 140 148 191 179 178 176 175 173 171 169 168 162 
158 152 147 144 143 145 147 148 156 160 160 174 198 211 209 208 
209 210 210 211 206 192 179 167 156 149 153 163 171 179 185 192 
195 199 204 208 211 213 213 212 211 210 210 209 206 201 197 186 141 128 131 131 128 141 185 180 181 181 179 176 175 176 177 172 
168 164 162 163 162 160 157 149 156 159 161 177 200 213 213 217 
212 206 202 204 205 203 199 189 178 168 169 175 181 188 195 197 
199 202 206 210 213 215 216 215 213 211 209 208 206 202 199 195 157 142 130 119 118 136 182 182 182 181 179 177 176 177 179 177 
175 174 176 177 174 166 160 149 155 160 165 181 203 217 220 223 
214 205 200 200 202 205 206 202 193 185 185 187 189 193 197 198 
200 205 210 214 216 217 217 216 214 211 208 206 204 200 197 207 174 156 132 114 115 136 182 182 180 178 177 176 177 178 178 180 
181 183 185 184 177 166 158 150 160 169 177 190 207 220 225 222 
216 210 209 207 203 201 202 205 199 196 197 198 196 196 199 201 
204 209 214 218 219 218 218 216 214 210 207 204 200 195 192 215 187 168 137 113 115 137 180 181 177 173 173 177 179 179 178 185 
187 188 188 184 175 164 157 150 165 182 193 201 211 219 224 221 
216 214 215 212 203 198 199 202 199 200 204 205 203 202 204 207 
209 211 214 216 217 217 217 215 213 209 206 202 197 190 186 218 192 173 139 114 116 137 177 179 174 170 171 177 182 181 179 189 
191 191 188 181 172 162 157 148 168 190 203 208 211 216 219 223 
216 212 212 208 200 197 200 200 198 200 206 208 207 207 209 210 
210 211 211 212 213 213 214 214 212 209 205 201 194 187 182 216 203 177 144 122 125 149 171 175 166 162 169 178 183 184 185 187 
183 178 177 175 168 157 148 149 165 186 203 214 219 217 214 222 
216 212 210 204 195 189 188 191 195 201 203 204 204 207 209 211 
210 210 209 210 210 211 211 208 208 207 203 198 191 184 180 210 201 181 154 135 136 155 174 173 164 160 166 175 180 181 182 185 
182 178 175 170 162 152 144 156 171 191 206 215 220 222 224 226 
221 217 213 205 193 185 183 182 188 197 202 204 204 205 206 209 
209 209 208 209 209 209 210 206 205 204 200 196 190 185 182 203 198 186 167 151 150 162 175 170 162 158 163 171 175 176 178 180 
179 177 173 166 157 149 143 162 173 188 199 206 211 218 223 231 
226 225 224 216 198 180 170 170 178 189 197 202 202 202 202 207 
207 207 207 207 207 207 207 202 201 199 196 192 189 186 185 199 197 189 176 163 159 164 172 168 160 157 161 167 170 172 174 174 
175 175 171 163 154 147 144 157 158 164 174 182 189 197 204 215 
209 209 217 219 202 177 158 163 169 179 188 195 198 200 200 204 
204 204 204 204 203 203 202 198 197 194 191 189 188 188 188 199 197 192 181 170 163 163 165 166 160 156 160 164 166 168 171 171 
172 171 166 157 147 139 136 129 121 119 128 141 151 160 168 168 
157 155 171 189 189 172 157 163 165 170 177 185 192 197 199 201 
201 202 202 201 200 199 198 194 193 190 188 188 188 189 190 199 198 195 188 178 168 162 159 164 158 155 158 160 161 163 167 170 
169 165 160 151 141 131 125 96 84 77 85 97 107 119 130 128 
114 109 127 153 169 170 166 166 165 165 170 178 186 193 196 197 
198 199 199 199 197 195 194 191 190 189 188 187 188 189 190 198 200 200 197 188 176 164 156 161 156 153 155 156 156 159 163 168 
165 160 157 152 144 133 125 100 88 81 82 83 86 102 120 135 
126 125 137 155 167 173 177 169 166 164 167 175 183 189 191 195 
196 197 198 197 195 192 191 189 189 189 188 188 189 189 190 197 200 204 204 197 182 166 155 159 154 151 152 153 153 155 160 165 
161 157 157 157 152 142 133 130 121 113 106 96 93 109 132 166 
166 171 179 181 179 179 181 170 167 165 168 175 181 185 187 194 
195 196 197 196 193 191 189 188 189 189 189 189 189 189 189 204 206 204 201 201 198 184 168 164 156 149 148 149 150 152 157 161 
160 159 155 152 151 153 155 153 142 136 140 141 141 151 166 183 
196 202 198 195 197 191 179 165 163 164 170 174 176 181 187 186 
190 195 197 195 192 189 187 189 187 189 193 193 188 186 188 209 209 207 204 204 204 194 181 168 158 150 148 148 147 150 153 159 
159 159 157 155 154 155 156 159 152 151 157 158 154 159 169 180 
193 199 194 192 194 191 183 167 163 163 170 176 178 180 183 184 
188 192 194 193 190 188 187 189 187 189 192 191 186 186 188 212 211 207 204 205 206 202 195 174 162 150 146 146 145 146 150 157 
157 158 156 154 153 154 155 156 153 158 167 167 160 157 160 180 
192 200 196 192 194 193 189 174 167 164 170 177 179 178 179 182 
185 188 189 188 187 187 188 189 187 188 189 187 184 185 190 212 209 204 200 200 201 202 202 179 165 150 145 144 143 145 148 153 
152 151 148 147 148 152 155 152 153 159 169 172 166 160 159 174 
187 196 195 190 189 188 185 185 174 167 170 176 178 177 177 180 
182 184 185 184 185 186 188 189 186 186 186 183 181 185 192 212 208 203 199 196 196 200 204 186 169 151 144 143 143 144 147 146 
144 141 138 138 143 151 157 154 155 161 172 179 181 179 179 186 
197 208 209 206 202 198 195 190 177 167 168 174 176 177 177 180 
181 183 183 182 183 185 187 187 184 183 182 179 178 185 195 213 210 206 203 198 195 200 207 194 175 154 144 142 142 143 145 139 
136 132 128 128 133 141 147 141 141 145 154 166 175 179 180 176 
183 191 196 196 193 188 185 175 166 161 165 171 175 177 180 180 
182 184 184 183 183 184 186 184 182 180 178 175 176 187 199 211 209 209 207 201 196 201 211 204 182 158 145 141 140 139 140 136 
133 127 120 113 111 112 114 111 108 107 111 122 133 138 139 123 
124 129 136 141 142 139 137 145 144 148 160 170 175 179 183 182 
184 186 186 185 184 184 185 182 179 177 175 172 175 188 203 208 207 209 209 203 197 202 213 212 188 161 146 141 138 136 137 137 
134 126 114 100 90 83 81 86 81 76 75 82 90 93 92 97 
94 95 103 112 116 116 116 120 125 138 156 169 175 180 184 183 
185 188 188 186 184 184 184 180 178 176 173 171 174 189 205 214 211 208 206 201 199 204 213 222 202 174 151 139 136 137 138 140 
137 130 115 97 82 73 70 78 86 93 91 85 82 86 93 96 
106 120 129 130 123 115 109 111 121 138 157 172 178 177 174 173 
182 188 184 182 183 182 178 172 167 164 166 171 179 192 203 219 214 209 206 202 199 202 208 218 209 190 167 147 137 138 141 135 
134 132 128 123 121 121 122 131 142 155 162 163 162 165 168 183 
183 181 177 172 169 168 169 160 157 156 158 164 171 177 180 177 
183 184 179 178 180 180 176 171 165 162 166 173 180 189 197 221 213 206 205 204 202 204 208 221 221 210 184 153 134 133 139 137 
135 133 133 136 140 142 143 145 156 173 187 195 198 198 198 207 
204 198 192 189 191 197 202 196 185 171 162 162 169 178 184 182 
181 178 173 172 174 174 170 161 156 158 169 182 191 197 202 215 207 201 202 206 207 209 212 227 233 227 200 162 133 125 129 135 
132 129 129 132 133 131 128 126 132 143 155 164 168 168 166 163 
167 173 178 182 185 188 190 192 184 174 167 167 172 178 182 181 
177 172 168 168 168 164 160 151 149 155 172 188 196 200 202 210 202 197 199 204 207 210 213 227 238 241 221 181 144 123 117 122 
121 122 126 129 129 124 119 117 115 114 116 120 124 126 125 127 
138 154 168 176 179 180 179 182 177 172 170 170 172 174 175 176 
171 166 165 163 159 153 148 145 148 160 178 191 196 199 202 205 199 195 197 200 202 207 212 224 238 247 230 191 149 121 110 113 
116 120 125 127 124 119 115 101 95 87 82 82 84 88 90 102 
112 129 145 159 168 175 179 186 181 174 170 168 168 169 168 169 
164 161 160 156 149 143 141 140 151 171 189 197 200 206 215 196 193 192 194 196 199 206 214 227 237 237 210 166 127 109 107 115 
119 124 126 125 122 119 117 99 96 90 86 85 87 92 96 103 
109 120 133 146 159 171 178 188 184 178 173 170 169 167 165 165 
160 156 154 147 138 136 139 145 162 184 194 189 183 190 202 186 186 188 192 194 198 209 219 236 237 222 180 129 97 94 105 116 
121 127 130 129 128 129 132 127 128 128 128 128 131 137 141 138 
141 146 151 157 165 174 179 180 179 178 178 176 173 168 164 164 
158 153 149 140 132 133 140 161 177 194 191 168 148 148 160 184 183 182 183 190 201 213 221 242 231 196 137 80 58 74 98 117 
124 123 127 137 137 136 145 150 155 162 170 178 185 190 193 186 
189 185 177 172 175 181 183 189 185 181 180 182 179 173 167 164 
149 136 131 124 122 135 153 168 175 200 188 146 107 90 112 181 181 182 187 193 204 219 231 242 212 161 103 54 39 62 94 111 
119 122 128 142 146 148 158 164 168 175 181 187 191 195 197 201 
205 204 197 191 191 193 193 189 186 183 183 184 182 175 169 151 
136 125 123 123 127 143 161 179 184 202 177 121 68 40 56 180 179 183 190 195 202 221 240 240 188 125 76 41 29 54 89 104 
115 119 125 141 150 156 167 173 177 183 187 190 193 197 199 205 
211 213 207 201 198 196 194 196 192 189 186 183 176 166 158 138 
125 116 119 127 137 153 169 182 188 203 170 104 44 12 25 182 180 183 189 193 200 221 242 223 160 98 67 46 31 47 79 101 
112 113 116 130 143 154 167 173 176 178 179 180 183 189 194 198 
205 209 204 199 197 195 192 197 195 192 187 180 167 153 143 128 
119 116 124 136 149 162 172 181 188 202 164 94 38 11 28 184 183 184 188 194 206 223 237 192 129 76 61 49 31 40 68 98 
109 107 104 117 133 146 161 171 171 170 167 164 166 173 179 191 
199 204 202 200 200 200 198 194 193 189 181 170 154 138 129 117 
115 119 132 147 159 168 173 185 192 199 151 77 24 5 28 181 185 186 188 200 217 223 220 160 106 65 60 52 34 40 65 93 
106 103 96 106 121 135 148 160 162 160 154 147 145 150 156 175 
185 193 194 194 196 197 195 196 190 179 163 146 128 114 106 108 
113 124 139 154 165 172 175 185 192 195 139 63 15 6 35 179 188 189 189 204 222 212 186 124 88 66 68 61 40 40 61 88 
103 101 91 96 106 113 122 133 137 141 137 130 126 128 132 147 
159 172 176 178 179 178 174 175 166 149 130 114 104 100 99 113 
121 134 146 157 167 174 177 181 190 192 133 56 14 11 45 178 191 192 188 204 220 196 154 93 72 66 76 67 41 35 49 85 
102 101 88 88 92 93 98 103 112 121 123 118 113 113 115 126 
141 156 164 165 165 161 156 137 127 112 98 93 97 107 116 124 
134 145 152 159 167 174 177 182 190 191 130 50 9 8 42 