P2
# Created by IrfanView
64 64
255
74 54 30 25 30 23 21 36 66 106 141 160 177 183 183 186 195 
194 193 196 200 204 206 206 201 197 190 186 187 193 201 207 199 
194 191 193 199 203 202 200 198 200 203 204 202 198 193 190 191 
182 182 185 181 173 150 119 88 53 32 32 32 34 33 25 79 59 33 26 30 24 24 40 68 109 144 164 182 190 190 194 198 
196 195 196 200 204 206 207 208 206 202 200 201 204 208 211 202 
198 196 198 202 207 208 207 209 209 209 207 204 200 195 193 192 
183 183 185 180 172 151 121 90 55 34 32 32 34 34 27 87 66 38 29 32 25 27 45 70 111 146 166 184 192 193 197 204 
202 201 202 205 209 210 211 211 210 210 209 209 209 208 208 209 
207 204 203 205 207 210 212 211 210 209 206 203 200 197 195 193 
184 184 184 178 172 153 126 93 57 34 31 29 32 34 29 94 73 45 35 35 28 30 49 72 111 145 164 181 189 190 194 207 
206 207 209 212 213 213 211 213 213 213 213 212 210 209 208 215 
214 211 208 205 205 209 212 207 207 208 208 207 205 202 201 196 
189 188 187 178 172 156 132 95 59 35 29 26 28 32 28 101 81 52 40 40 32 36 55 78 116 149 167 183 190 190 195 205 
206 208 212 215 215 213 210 216 216 215 214 213 213 213 213 215 
214 212 208 205 204 207 209 211 213 216 217 217 215 212 210 203 
197 196 192 180 172 157 134 98 63 37 30 24 25 29 26 113 90 59 44 43 37 45 68 91 128 158 172 185 190 189 192 199 
200 201 204 207 209 208 206 205 205 203 203 203 204 205 207 205 
204 201 199 198 198 198 198 206 207 209 210 209 207 205 204 199 
195 197 192 179 170 156 136 105 70 45 36 27 26 29 27 127 101 65 45 43 42 56 85 107 142 166 173 179 178 172 173 175 
172 169 170 173 178 182 184 182 183 184 185 186 188 189 190 193 
189 185 183 183 180 175 171 165 164 162 162 162 164 166 168 173 
173 180 181 171 166 157 140 115 81 56 46 35 32 33 30 138 109 68 45 42 45 65 97 118 150 169 170 169 161 150 149 142 
136 130 128 132 140 149 153 167 169 173 176 178 179 179 179 186 
180 173 169 167 162 152 144 115 112 109 108 111 117 124 129 143 
147 160 167 163 164 159 144 123 89 64 54 42 37 37 34 155 117 70 40 33 50 88 122 138 154 167 163 149 134 121 113 106 
91 77 71 70 76 90 105 114 130 147 156 163 170 170 166 163 
165 154 134 119 110 98 84 55 48 50 61 70 76 87 101 111 
120 136 153 163 164 157 150 127 109 84 66 54 44 37 34 166 123 71 40 39 62 98 128 149 165 175 164 143 126 118 115 106 
93 78 66 54 48 52 60 86 101 118 129 140 151 156 156 152 
148 134 113 93 78 66 57 34 37 46 58 69 79 91 102 120 
122 129 144 159 165 162 155 138 125 105 85 66 50 39 33 180 130 69 36 43 76 114 138 155 169 175 161 138 126 127 131 142 
134 121 102 78 58 50 51 66 77 91 104 117 132 142 146 141 
131 115 96 74 54 46 47 47 63 81 94 107 122 134 139 135 
130 128 138 154 164 163 158 152 147 133 111 83 59 41 33 190 133 63 27 43 89 130 150 156 165 167 154 139 137 144 152 164 
163 156 136 109 84 71 67 62 67 76 86 99 113 125 131 127 
113 98 85 66 49 47 56 70 93 115 125 135 150 159 160 146 
141 138 143 154 162 163 160 160 162 153 129 97 68 46 33 197 138 61 21 43 99 144 161 160 161 154 140 130 131 137 142 145 
149 148 135 114 96 86 83 61 61 64 72 84 96 107 114 114 
99 83 71 56 45 48 59 85 105 122 125 128 135 139 137 130 
131 135 140 146 153 158 160 162 167 163 140 110 81 54 36 204 150 73 30 51 110 155 171 164 157 140 117 99 93 91 90 91 
97 99 91 82 77 75 73 60 58 61 73 87 100 112 121 123 
107 86 68 54 46 47 52 74 84 90 89 85 84 85 84 86 
91 99 108 118 131 144 153 163 170 169 152 128 101 68 41 215 167 97 51 68 124 165 177 169 162 139 105 74 56 47 43 39 
43 42 36 35 41 46 46 57 56 66 87 109 127 143 155 153 
137 109 81 65 59 54 49 40 38 37 38 35 33 35 41 53 
55 60 72 91 115 137 150 167 175 177 167 152 125 83 47 223 182 116 70 82 134 172 180 179 173 151 111 70 44 33 30 35 
36 31 24 27 39 47 48 51 52 67 96 126 150 170 184 177 
160 127 93 74 70 61 48 34 25 22 27 30 29 36 47 50 
45 44 56 83 115 142 157 171 179 184 180 169 143 94 51 224 199 144 91 90 134 169 175 181 179 166 139 105 79 68 67 74 
55 42 45 50 48 49 54 62 73 91 112 136 162 184 198 191 
166 137 110 92 90 82 62 49 41 41 48 50 52 65 82 76 
74 73 82 107 139 163 173 182 178 182 184 173 152 106 56 234 214 165 114 108 144 178 187 202 201 194 174 147 126 115 113 106 
88 72 69 68 67 75 87 94 106 122 136 151 169 192 207 203 
181 158 140 127 126 117 96 88 79 76 82 86 90 103 118 113 
120 128 139 157 176 187 189 192 187 188 185 172 153 115 70 234 221 183 138 124 148 178 192 211 212 209 198 181 164 152 147 126 
107 88 78 74 79 96 114 132 143 156 163 168 180 200 216 213 
193 177 166 157 155 145 124 98 84 72 70 71 74 83 95 113 
131 156 178 196 208 213 211 205 199 197 189 173 158 127 90 225 219 194 159 140 151 176 193 207 208 208 204 193 178 164 156 132 
113 92 83 85 97 118 136 165 172 181 186 190 199 213 223 215 
196 184 176 168 164 155 136 112 94 75 67 66 69 78 87 100 
125 156 181 199 212 218 218 213 208 205 195 178 164 139 107 220 217 204 181 161 161 180 199 207 209 212 212 205 193 180 171 158 
140 123 120 129 145 161 172 188 191 197 203 211 218 222 225 217 
199 190 186 177 174 170 158 149 133 116 108 110 118 128 137 140 
158 178 189 197 206 212 214 215 211 210 200 183 170 148 117 217 213 208 196 179 171 182 199 208 213 218 220 217 208 199 193 191 
181 172 173 183 193 196 195 188 191 198 208 218 222 222 219 222 
209 204 201 189 185 186 181 184 176 166 161 162 168 176 181 194 
203 209 207 205 208 213 214 212 208 207 200 185 174 152 121 219 212 209 206 193 178 182 196 205 211 217 219 215 209 203 201 204 
204 205 207 207 201 190 179 168 177 193 207 217 221 220 218 227 
216 214 207 185 172 172 169 193 196 198 198 198 199 201 201 210 
216 218 215 212 214 215 213 209 203 201 195 184 175 154 123 226 216 213 215 204 187 185 198 203 209 214 214 209 203 199 198 201 
209 217 216 205 187 166 151 152 168 192 210 219 223 225 226 227 
219 215 202 170 147 141 139 163 175 190 198 201 203 202 201 205 
212 216 214 213 213 210 205 208 200 196 190 181 175 155 124 222 219 219 216 203 188 186 194 197 201 207 209 209 206 203 202 207 
205 206 199 172 141 132 142 162 188 209 209 208 216 220 217 215 
217 211 196 180 162 139 119 125 150 182 201 206 203 202 204 204 
199 201 209 209 201 199 204 199 195 186 179 180 180 167 151 223 219 218 218 207 190 185 190 191 196 204 209 211 210 207 205 210 
206 199 180 147 124 133 156 189 205 213 208 206 213 218 216 212 
213 213 210 206 193 168 144 118 136 166 195 207 206 203 203 202 
201 203 206 205 201 198 199 189 185 177 172 174 176 167 155 224 218 218 220 211 194 183 183 184 190 199 206 209 208 203 200 203 
201 189 159 122 108 130 163 196 200 200 193 191 194 192 186 187 
188 192 202 213 209 186 163 122 122 140 173 195 196 194 197 199 
202 203 200 198 197 192 187 178 173 166 162 166 172 171 167 224 218 217 221 215 196 180 175 179 184 192 200 203 199 192 186 187 
185 171 139 104 94 116 143 160 158 155 155 157 156 146 135 147 
147 151 164 179 182 170 156 128 109 108 137 163 169 173 181 194 
201 201 193 189 190 183 173 171 166 158 155 160 171 181 186 223 217 217 223 216 196 176 168 172 176 184 192 195 191 181 174 172 
165 144 110 83 79 94 109 105 95 89 96 106 106 98 89 101 
98 98 103 110 114 116 117 112 88 82 108 135 144 151 161 187 
195 195 187 182 182 175 164 168 162 156 154 160 173 191 205 222 217 218 223 215 192 172 163 164 167 174 182 186 182 173 165 160 
147 118 85 69 76 88 94 73 53 39 45 58 62 59 57 53 
47 42 40 39 43 54 66 86 72 73 96 119 129 136 145 172 
177 179 177 174 171 165 158 160 158 157 158 162 174 194 212 220 216 219 223 212 188 168 161 157 159 163 169 173 169 158 150 144 
134 110 85 83 99 112 112 90 63 44 45 51 48 42 41 30 
24 21 21 22 27 42 58 82 79 82 94 106 115 125 133 148 
148 154 160 161 156 152 152 147 150 156 163 166 172 189 207 219 216 220 222 210 185 166 160 155 154 156 160 161 155 144 134 128 
126 113 100 108 130 142 139 128 100 78 77 75 59 43 37 39 
35 35 42 50 59 74 90 98 98 96 93 94 103 116 126 127 
125 132 146 150 143 141 146 136 143 156 166 168 170 183 198 216 219 219 211 199 185 167 152 148 148 146 142 136 130 128 127 122 
113 105 110 127 147 162 168 154 146 135 122 106 82 55 35 37 
56 73 78 83 96 112 120 126 121 109 95 91 100 112 119 112 
111 113 119 127 133 135 135 138 141 155 170 170 161 163 175 218 219 216 207 197 184 167 152 137 136 133 128 122 118 117 118 118 
115 115 123 137 149 155 156 165 164 161 155 140 115 87 68 90 
106 120 126 132 142 151 155 146 136 118 102 98 105 112 113 98 
97 98 103 114 125 133 137 142 145 153 161 159 151 146 146 219 219 215 206 197 185 168 153 137 134 129 122 116 115 117 120 119 
120 125 135 146 155 161 163 171 173 173 168 156 139 121 110 121 
131 140 147 154 162 167 168 165 153 132 116 111 112 110 104 90 
87 85 89 100 114 127 134 140 145 149 152 157 158 150 138 220 220 217 211 205 192 171 153 142 138 131 123 118 119 124 128 125 
125 127 132 141 154 166 174 172 169 162 152 143 139 141 143 143 
144 146 152 163 172 178 180 166 160 148 135 127 122 113 103 96 
92 89 89 96 107 118 126 131 138 143 150 169 188 185 170 221 222 222 220 217 204 178 155 140 136 129 121 117 119 125 130 127 
123 118 116 119 129 138 145 148 142 131 118 110 113 124 133 111 
104 100 104 116 129 136 141 140 145 147 141 133 125 115 106 101 
99 97 96 99 105 112 117 124 133 140 151 180 212 219 206 222 224 225 228 227 214 186 160 139 136 130 124 121 122 127 132 125 
117 107 98 95 91 89 88 91 88 83 76 71 72 78 84 84 
75 68 71 79 86 91 95 92 103 112 114 112 110 106 101 97 
98 100 101 102 106 111 115 124 133 142 156 184 215 226 219 225 225 226 230 232 221 193 166 143 141 138 134 131 131 134 138 127 
116 100 88 79 71 63 57 58 62 67 71 73 74 75 75 72 
64 61 63 63 57 51 50 55 61 68 74 83 94 100 99 93 
96 100 102 104 107 112 116 126 136 149 165 188 210 221 220 228 226 225 229 233 224 197 171 144 144 142 139 136 136 138 140 134 
118 98 82 75 71 65 60 75 81 92 104 113 118 119 119 112 
107 107 110 103 86 70 64 45 44 44 52 71 93 105 107 94 
97 101 103 104 107 113 117 127 138 156 175 194 209 219 223 230 233 231 228 230 227 204 176 153 140 140 144 136 133 141 144 140 
127 114 103 97 95 101 108 117 124 132 137 137 137 139 141 141 
139 135 132 127 119 108 100 90 77 66 69 85 105 117 121 108 
103 99 99 105 111 115 117 126 137 154 176 201 220 223 218 226 229 227 225 229 228 208 184 155 141 141 143 134 131 139 144 143 
134 128 131 135 140 147 155 158 155 150 143 137 134 135 136 129 
128 128 131 135 139 139 139 127 120 110 105 109 118 126 130 122 
115 106 102 103 107 110 112 120 134 155 179 204 220 223 218 223 225 224 224 228 229 214 195 159 141 137 138 130 129 137 141 145 
140 140 151 163 168 172 174 177 168 154 140 129 121 115 113 105 
104 106 114 127 142 154 161 160 159 154 144 134 128 129 132 125 
117 107 100 98 101 104 107 111 130 158 184 207 222 223 217 223 225 224 225 229 230 221 207 166 139 126 127 126 128 134 132 134 
131 137 153 167 172 169 166 167 159 147 135 125 115 104 96 95 
95 97 104 117 133 149 158 164 167 167 159 145 130 120 116 109 
104 97 93 92 95 100 103 105 129 163 191 211 222 222 217 226 227 227 228 231 232 226 218 177 138 113 113 119 126 128 120 114 
115 128 150 168 172 168 165 158 151 141 132 125 118 110 104 109 
109 110 113 121 133 145 152 155 158 160 157 146 126 105 91 89 
88 86 84 85 89 95 99 105 133 170 198 214 221 221 217 227 228 229 232 234 233 230 226 191 144 108 103 109 117 118 109 105 
109 125 148 164 166 160 156 151 144 132 121 116 114 114 114 118 
119 119 120 124 131 139 145 155 154 154 152 142 121 95 76 80 
79 78 76 77 81 88 93 111 142 180 204 216 220 220 218 223 225 229 233 235 234 233 232 204 155 114 100 98 104 107 102 102 
109 125 146 157 156 150 147 146 142 134 124 118 116 118 121 123 
124 124 124 125 131 139 145 157 155 152 147 136 116 94 78 75 
73 69 65 65 72 82 90 119 151 188 209 216 218 219 218 219 222 227 233 236 235 234 236 212 164 121 101 91 93 100 99 95 
104 123 145 156 156 152 152 149 151 151 146 139 133 132 133 136 
136 135 134 134 140 149 156 157 155 150 142 129 113 96 85 71 
67 60 55 55 64 79 90 125 157 193 212 216 216 218 219 221 222 227 232 232 229 232 238 224 192 142 100 81 82 85 84 85 
98 117 134 144 150 154 156 157 159 163 165 164 163 160 159 157 
155 152 152 153 155 155 155 161 150 140 136 128 113 96 86 71 
55 47 50 51 53 73 98 127 169 201 211 216 215 217 225 224 224 227 232 231 229 232 237 225 203 162 116 85 73 71 71 74 
86 106 125 140 150 155 157 162 164 166 170 173 173 172 170 169 
167 165 164 165 165 163 162 161 152 143 137 124 104 85 75 57 
44 39 44 47 52 73 99 138 177 207 213 215 213 213 220 223 223 226 231 230 227 228 232 232 223 192 143 96 71 67 70 68 
77 94 114 134 148 155 158 166 166 168 173 179 182 181 179 178 
176 174 174 173 170 166 163 158 151 143 132 113 87 66 57 43 
34 33 41 47 55 78 104 149 186 212 216 217 213 212 218 220 220 225 231 231 226 223 224 231 234 216 167 110 76 69 74 70 
74 84 102 123 141 152 156 167 165 166 170 177 180 179 176 173 
172 171 170 167 163 156 152 148 142 132 116 91 63 45 40 38 
34 36 45 53 65 90 115 157 192 215 218 219 216 214 220 218 219 225 233 234 228 222 220 220 233 229 189 130 85 65 62 66 
66 70 83 103 124 139 147 160 159 159 162 166 166 163 160 156 
155 154 152 149 144 136 131 127 119 106 88 64 42 31 30 40 
39 43 52 60 75 102 128 168 200 220 220 220 217 215 220 221 221 225 233 235 230 224 222 216 233 236 208 155 103 66 48 53 
52 54 63 78 96 112 121 138 139 141 141 139 136 132 129 125 
124 123 121 118 113 106 101 93 84 72 58 42 29 27 31 42 
43 49 56 65 83 112 138 179 208 224 221 220 216 213 217 224 220 220 226 229 227 225 225 225 233 231 207 165 119 77 50 44 
44 46 49 55 66 77 84 98 103 107 106 99 91 87 86 84 
83 81 79 77 73 67 63 55 47 39 33 29 27 31 38 44 
47 52 59 69 90 122 149 183 211 224 221 220 217 214 219 224 217 214 217 221 222 224 227 233 229 215 189 157 121 85 59 43 
45 46 45 43 45 50 55 63 70 77 75 65 55 51 51 52 
50 48 46 45 41 37 33 30 23 19 21 24 29 37 45 45 
49 55 61 72 95 130 157 180 208 222 220 221 220 219 224 218 225 226 218 220 230 232 228 230 199 162 135 125 128 110 75 54 
43 45 49 42 40 41 36 41 45 48 46 40 35 32 32 37 
37 38 37 35 32 28 26 21 20 20 22 27 32 36 38 43 
45 56 64 69 96 134 153 176 184 210 228 223 217 220 220 226 228 223 217 220 228 225 215 190 141 91 74 95 130 132 105 71 
55 50 49 40 37 37 31 27 28 30 30 29 28 28 28 26 
26 25 25 25 26 26 26 24 23 23 24 27 31 34 36 45 
44 53 64 74 104 138 151 148 152 183 216 221 217 218 218 221 220 217 217 226 230 217 198 143 83 33 35 84 139 149 122 85 
63 50 44 35 33 33 26 21 19 17 17 20 22 24 24 17 
16 16 16 18 21 25 27 26 25 25 25 27 29 31 33 44 
43 53 66 83 116 145 150 123 119 153 204 224 220 218 219 211 211 213 219 224 215 183 152 86 40 15 42 101 151 153 124 98 
71 53 45 37 36 37 30 31 26 19 17 19 22 23 23 18 
18 18 18 20 22 25 26 23 24 24 24 25 27 31 33 39 
45 60 73 92 128 153 153 109 93 124 188 221 219 217 218 210 213 217 219 209 177 126 86 33 9 12 55 111 152 157 136 114 
86 66 55 44 42 41 34 38 31 23 19 20 23 23 23 23 
23 24 25 24 23 22 21 19 21 22 22 23 26 32 37 36 
52 73 86 103 138 160 154 95 71 96 165 209 214 214 214 211 216 220 212 186 140 88 53 21 5 19 64 111 146 160 154 126 
100 80 66 49 40 36 27 32 28 22 19 19 21 22 23 23 
24 25 25 24 21 18 16 19 20 20 20 20 26 35 42 41 
63 89 101 116 148 163 149 83 56 77 146 197 212 214 214 210 213 209 187 147 100 61 42 24 11 30 78 121 150 163 160 136 
113 96 80 58 43 35 25 27 27 25 23 20 19 20 22 21 
21 21 21 20 19 19 18 22 23 22 20 20 26 38 47 54 
76 101 112 128 158 162 136 73 46 65 130 184 207 211 207 212 210 195 159 107 59 32 24 12 3 31 90 138 162 167 159 146 
126 112 97 72 54 44 34 29 31 32 29 23 19 20 21 19 
18 17 17 17 19 22 23 26 26 24 21 20 27 39 50 66 
85 107 118 136 164 160 124 62 38 55 117 171 196 198 191 