P2
# Created by IrfanView
64 64
255
36 12 18 24 36 66 91 115 131 151 169 175 180 191 203 210 212 
222 231 233 237 244 247 244 248 248 249 247 246 247 251 254 245 
248 250 251 250 249 249 249 241 245 250 252 251 248 246 245 242 
247 247 243 243 245 242 234 239 227 207 183 140 76 38 41 30 8 17 23 33 61 84 108 128 150 172 180 181 188 198 205 215 
222 228 230 236 245 249 248 249 249 249 248 247 246 246 246 247 
248 250 250 249 248 248 248 249 249 248 247 245 244 242 241 246 
250 249 245 244 245 242 235 237 229 215 195 153 87 43 41 25 6 17 24 32 57 77 99 129 146 162 165 164 169 182 192 206 
211 218 225 235 245 249 248 248 248 248 249 249 248 245 243 249 
249 249 249 248 248 248 248 245 244 244 246 248 248 245 241 238 
242 243 241 240 241 239 236 235 232 223 207 168 101 52 44 25 7 20 28 35 56 71 91 128 130 130 126 125 134 150 162 170 
176 187 203 221 237 245 248 249 247 247 248 251 252 250 248 250 
249 248 248 249 250 250 250 248 246 245 248 249 244 234 225 219 
223 227 230 233 237 239 240 237 235 227 213 177 114 63 51 25 7 20 29 37 55 65 80 106 101 95 92 95 104 115 124 113 
117 127 148 175 204 229 244 250 249 248 248 250 251 252 252 249 
248 247 248 251 252 251 249 255 249 237 227 219 209 196 187 197 
202 209 217 223 228 234 240 239 236 226 212 180 122 73 59 28 6 18 28 37 55 60 69 73 74 81 92 100 103 105 109 81 
79 82 97 122 156 194 221 244 246 248 248 247 247 249 251 249 
247 246 248 251 250 246 242 240 226 206 189 179 174 171 170 188 
191 197 204 208 210 217 225 235 234 225 212 184 129 78 61 34 8 17 28 40 58 58 63 53 68 94 119 131 132 134 140 121 
114 110 111 117 134 163 187 223 232 242 247 245 244 247 251 250 
247 246 247 248 245 237 230 215 207 195 186 183 187 194 199 207 
206 208 209 205 199 202 210 227 230 226 217 192 136 80 56 40 12 18 30 45 63 60 63 51 75 113 145 158 161 170 183 188 
182 174 164 150 143 152 167 202 217 235 245 245 245 248 253 250 
247 245 246 245 240 230 221 216 217 217 217 219 225 232 237 238 
234 232 227 216 204 202 209 219 226 228 223 200 142 80 51 51 9 10 45 59 60 60 52 40 76 115 140 160 183 203 213 223 
222 214 211 194 171 172 176 190 204 217 225 236 249 251 243 250 
249 248 245 240 233 227 223 225 229 228 238 241 239 246 247 242 
242 238 228 217 211 211 214 221 229 228 216 207 151 74 66 57 15 14 45 55 55 54 44 48 82 111 131 155 178 199 218 219 
235 242 241 229 211 194 177 184 189 208 225 232 243 250 245 251 
249 247 244 240 234 228 224 224 233 234 238 246 254 255 245 235 
236 234 227 219 212 209 209 220 228 232 223 210 148 76 77 56 17 17 47 57 57 56 45 53 88 110 131 162 179 190 212 228 
241 245 237 237 240 221 194 188 176 195 223 227 235 247 245 249 
248 246 245 242 237 230 226 219 220 225 230 235 239 239 239 240 
239 235 228 222 221 225 230 221 228 236 231 214 147 85 103 46 13 18 51 64 67 67 55 50 74 87 111 151 168 174 197 217 
227 241 238 244 255 236 219 204 173 181 211 220 231 246 243 247 
247 247 247 244 236 225 217 228 211 215 223 229 231 235 255 246 
245 239 227 215 214 223 232 224 229 238 237 218 153 106 142 40 12 22 56 70 75 74 60 63 69 73 96 132 144 147 161 163 
164 179 167 165 189 205 234 213 175 164 186 208 231 246 243 248 
248 248 247 242 228 209 195 200 173 163 150 165 194 195 207 216 
226 234 232 222 215 217 223 229 232 239 238 221 165 133 182 42 16 27 60 74 82 83 70 70 61 69 90 98 90 80 74 66 
65 92 81 85 120 146 193 207 181 152 155 194 233 247 246 251 
249 248 246 238 220 197 180 150 126 100 47 55 106 96 84 124 
145 175 200 213 218 221 223 234 235 239 236 225 180 158 211 43 19 30 64 82 98 108 99 80 52 56 65 45 38 48 46 16 
15 58 79 125 170 144 135 197 196 155 135 184 233 244 247 251 
249 246 245 240 225 204 188 156 138 122 51 25 54 49 61 101 
107 121 147 177 202 217 223 237 239 240 234 229 194 175 224 40 17 29 66 91 117 136 132 132 78 61 52 23 47 109 136 64 
26 33 57 151 236 191 142 194 211 165 129 179 232 241 247 250 
247 245 246 245 236 220 208 184 170 180 121 62 51 64 132 201 
175 149 146 171 204 227 236 237 240 240 233 231 202 182 226 29 17 29 71 110 130 151 172 154 126 96 84 92 115 148 174 126 
100 95 138 197 223 208 183 214 231 182 138 175 220 235 253 250 
252 249 243 241 242 234 224 201 200 193 176 155 150 170 194 216 
218 217 212 209 215 230 243 245 236 234 229 225 199 181 217 29 20 31 71 114 143 167 185 178 161 142 132 131 141 163 183 182 
186 196 209 216 219 226 235 229 226 179 144 177 220 235 245 247 
249 248 243 241 243 239 232 226 215 207 208 214 221 230 238 232 
229 226 223 224 227 233 237 239 232 232 229 227 205 190 228 24 19 28 61 108 148 175 188 192 184 173 161 151 151 164 179 200 
205 213 217 214 215 227 240 236 211 172 154 180 220 239 239 244 
247 247 243 241 243 245 243 230 218 211 219 233 240 239 237 240 
235 230 231 236 239 236 232 237 232 233 228 227 208 195 234 22 20 25 51 98 147 177 186 200 193 182 168 158 157 167 177 198 
194 195 204 218 229 234 235 225 189 166 167 184 221 245 240 244 
247 248 244 242 243 247 250 235 233 232 235 234 231 231 235 236 
232 229 232 239 242 239 235 244 239 237 227 223 204 191 229 25 23 27 50 97 150 183 194 211 207 199 189 184 186 190 194 201 
207 214 218 221 226 232 235 206 173 166 177 187 217 245 241 248 
248 248 246 242 242 246 252 240 240 242 243 238 234 237 245 236 
235 235 236 238 241 243 244 247 243 239 224 216 198 186 223 22 20 25 49 94 146 183 200 210 214 216 215 214 215 213 210 210 
216 221 222 221 222 219 216 193 170 169 181 189 215 240 239 252 
249 247 247 244 242 244 249 246 238 233 237 241 240 238 238 245 
246 247 244 242 242 247 251 245 242 238 220 212 196 187 225 20 16 22 47 88 134 174 198 204 216 227 227 225 225 224 222 228 
226 223 224 231 233 220 204 188 174 169 176 190 217 239 241 253 
247 244 247 247 244 243 246 255 247 242 246 250 248 244 242 249 
250 250 248 245 244 246 248 241 241 237 218 210 197 191 229 26 20 25 50 86 126 166 195 207 224 236 233 227 228 234 237 228 
232 231 226 223 221 212 200 185 176 166 170 192 223 242 245 253 
245 242 246 249 245 243 245 243 243 245 248 246 242 243 248 245 
245 245 246 246 245 244 243 241 242 237 217 209 198 192 231 22 16 21 44 77 115 157 187 203 217 230 235 236 238 239 238 231 
239 237 228 229 234 222 201 182 161 151 168 196 217 235 248 249 
239 245 255 251 247 246 239 245 247 248 249 248 246 243 242 244 
244 245 246 246 247 248 248 241 242 233 219 205 190 195 219 22 20 25 41 71 110 153 182 195 210 224 230 233 236 238 238 235 
241 240 232 234 238 224 202 173 156 150 171 203 227 241 249 254 
250 252 251 245 250 254 246 246 247 247 248 247 246 244 243 245 
245 246 246 246 246 247 247 242 240 228 217 207 193 194 213 19 22 26 34 58 99 143 170 185 200 215 223 228 233 236 237 237 
242 241 237 240 241 224 200 160 149 147 166 198 225 238 242 241 
244 249 245 238 245 246 232 246 246 246 246 246 246 245 245 247 
247 246 246 246 246 245 245 243 239 225 216 209 195 193 209 17 22 23 24 43 84 128 155 175 191 208 217 223 230 234 235 236 
240 240 240 244 241 218 191 168 167 167 177 201 228 243 246 249 
244 246 246 241 246 247 236 246 246 245 245 245 246 247 247 248 
248 247 246 246 245 244 244 241 239 228 219 210 196 194 211 25 25 22 20 35 71 114 142 167 183 201 212 219 227 233 235 237 
239 241 244 247 237 206 175 168 179 184 185 200 226 243 244 255 
242 240 245 242 243 247 243 245 245 245 245 245 247 248 249 249 
248 248 247 245 244 244 243 237 240 233 222 210 194 196 218 44 34 23 22 34 61 100 131 157 174 194 206 216 226 234 237 242 
242 244 248 248 228 186 149 168 182 183 174 186 219 241 242 245 
242 249 254 246 245 247 241 243 244 245 246 247 248 248 249 249 
248 247 247 245 245 244 243 236 239 233 223 210 195 200 223 64 42 25 25 33 50 85 118 145 163 185 201 214 227 236 240 245 
243 244 247 242 212 160 117 172 172 150 124 139 190 227 234 233 
244 244 218 200 222 248 248 241 242 245 247 248 249 248 248 248 
247 247 246 246 245 245 244 236 237 228 218 210 198 202 224 76 46 24 25 31 42 72 107 137 156 179 197 212 227 238 243 245 
242 241 243 234 198 140 93 149 130 82 40 58 126 179 193 213 
220 188 118 92 152 223 245 240 242 245 248 249 249 248 247 247 
247 247 246 246 245 245 245 238 234 222 214 210 201 204 222 72 42 20 21 28 39 68 100 125 152 172 188 211 226 234 242 243 
243 243 241 230 196 138 89 115 146 134 68 27 55 111 144 175 
182 167 127 100 123 186 238 232 239 247 250 248 246 247 250 248 
246 244 245 247 247 243 240 243 236 223 215 207 194 203 232 52 37 24 22 26 37 59 81 110 138 161 179 201 217 225 236 241 
242 242 242 237 217 176 141 133 164 185 156 89 48 74 123 170 
203 231 227 204 192 198 208 234 240 246 248 246 244 246 248 248 
246 244 245 246 246 243 240 235 235 228 221 210 193 200 229 44 37 30 27 30 42 62 78 95 125 151 171 194 209 221 234 240 
240 240 239 239 232 214 197 174 178 198 211 184 149 158 195 221 
239 253 250 238 231 232 235 238 242 246 246 244 243 245 247 247 
245 244 245 245 245 242 240 233 236 231 223 211 195 203 233 47 32 21 20 24 32 50 68 85 115 142 166 189 204 217 234 241 
240 238 235 232 230 227 224 231 219 211 219 232 240 243 244 242 
244 245 244 243 245 246 247 244 245 246 245 243 243 245 247 245 
245 244 244 244 243 241 240 240 239 230 220 210 198 206 231 52 29 17 26 32 32 44 64 79 105 132 157 183 197 211 230 239 
239 238 234 227 223 225 228 225 230 229 225 230 243 245 239 247 
242 239 243 248 250 249 247 247 247 247 245 244 244 245 246 243 
244 245 244 243 241 240 240 243 240 228 219 213 198 193 205 29 16 13 26 35 37 47 61 78 99 121 147 175 190 204 223 229 
231 234 233 225 217 219 225 210 213 221 229 234 236 241 247 254 
245 238 240 244 246 248 251 247 246 246 245 244 244 244 245 242 
244 245 244 241 240 239 240 238 238 229 221 214 193 174 173 27 33 31 22 20 30 42 46 71 85 103 129 159 175 187 205 211 
215 222 224 217 207 208 215 227 220 220 229 237 238 239 241 236 
237 245 254 253 244 237 236 244 243 243 243 243 243 242 241 241 
243 245 244 240 238 239 240 233 236 227 218 209 188 169 168 88 105 93 50 28 42 55 49 56 67 80 107 139 154 165 182 197 
201 209 214 207 196 196 203 201 216 226 226 229 238 239 233 241 
239 240 242 240 236 241 251 241 240 240 241 242 242 240 239 240 
243 245 243 240 238 238 240 233 235 225 211 201 185 177 184 162 172 153 72 21 34 47 58 60 49 68 97 114 139 161 157 176 
184 192 189 177 170 180 196 209 211 213 217 228 239 242 238 229 
230 233 237 241 243 242 241 240 237 229 230 238 235 232 242 234 
234 237 240 240 238 237 238 229 228 223 213 198 185 176 173 175 176 163 90 29 34 51 67 66 51 62 86 100 122 143 144 167 
159 155 158 163 166 170 175 187 204 221 227 229 236 245 250 227 
231 238 245 249 248 244 241 228 232 225 219 224 225 221 226 229 
231 235 238 239 237 236 236 230 229 223 210 194 180 173 170 180 172 171 110 36 26 50 77 80 58 58 78 94 112 131 138 152 
145 136 127 119 119 132 146 162 166 164 156 156 174 201 220 225 
217 206 199 201 212 226 236 229 233 219 201 198 200 205 216 221 
227 234 238 238 237 235 233 228 226 220 206 189 177 172 172 178 168 180 134 50 22 47 86 93 65 54 71 97 116 129 136 127 
116 97 74 55 52 69 89 76 82 88 98 115 134 148 151 173 
175 177 179 179 179 180 181 183 185 173 157 148 145 163 194 215 
225 235 238 238 237 234 230 225 222 214 200 185 175 174 176 180 173 192 159 77 28 39 85 99 73 51 64 98 122 129 132 115 
87 54 32 22 20 24 28 17 27 39 49 62 74 80 79 102 
111 123 130 130 124 118 114 112 121 131 139 131 111 124 164 212 
226 237 238 237 236 232 227 227 220 208 193 180 174 174 176 178 176 192 170 107 42 23 64 103 86 59 60 98 129 137 140 142 
126 104 80 55 35 28 29 30 47 63 67 69 81 100 115 118 
124 130 132 131 129 130 132 129 149 177 200 193 160 150 172 212 
228 239 238 234 233 229 223 229 217 200 185 176 172 172 172 173 173 180 170 138 67 15 43 94 93 66 54 90 130 148 157 175 
183 186 166 123 80 59 56 38 74 118 149 168 188 207 219 197 
209 222 228 222 209 198 192 197 219 237 248 247 227 208 207 213 
229 240 235 229 228 224 217 224 208 187 175 172 174 174 173 171 172 172 171 165 94 20 38 77 88 63 43 77 125 152 169 183 
191 202 199 170 123 80 57 51 70 98 128 162 198 224 237 243 
242 237 226 215 209 210 214 219 235 233 225 236 245 235 224 213 
230 239 233 225 224 221 213 214 197 176 167 171 178 180 178 183 173 173 170 176 123 30 18 35 71 76 53 63 107 147 168 183 
188 197 206 203 170 110 60 51 41 50 87 125 153 182 207 206 
207 204 199 194 196 203 211 224 231 239 243 243 240 238 238 227 
226 227 229 227 222 218 218 204 187 170 168 176 182 177 169 177 175 175 173 184 143 53 26 21 52 57 42 53 92 134 163 166 
172 183 198 207 194 159 126 76 59 48 53 66 79 97 114 121 
124 130 138 151 171 194 211 232 236 241 243 241 239 238 239 229 
227 224 221 221 219 213 207 193 176 168 174 179 175 175 182 172 175 176 174 184 148 64 24 11 33 39 31 40 70 113 153 159 
165 175 186 197 201 190 176 146 131 107 83 67 62 63 66 83 
99 125 154 181 207 229 242 240 242 243 242 240 238 238 238 228 
226 218 212 215 218 209 194 176 163 165 179 179 166 171 190 173 175 175 175 168 119 47 12 12 24 28 27 33 51 91 137 156 
163 170 174 180 187 190 188 190 195 191 179 172 174 175 172 181 
192 208 223 232 236 238 239 241 242 242 241 239 237 235 234 223 
222 215 209 215 219 206 185 163 160 166 177 175 166 170 183 179 177 176 179 146 75 23 8 12 18 20 24 29 37 71 117 140 
152 163 166 169 178 189 194 197 213 225 227 231 242 247 243 249 
247 242 237 234 233 234 236 237 238 239 240 239 235 230 227 220 
220 215 211 213 212 195 174 160 168 173 174 174 175 175 172 183 182 180 178 121 39 12 13 7 10 11 18 24 26 51 91 122 
138 153 158 160 170 185 194 205 216 224 224 226 233 237 235 232 
233 234 236 239 243 247 249 235 235 236 236 235 231 225 221 220 
217 213 210 204 191 174 161 160 172 178 174 175 182 180 169 180 187 180 165 94 17 10 13 6 8 7 13 18 16 31 61 96 
113 130 135 140 154 173 186 206 213 221 229 237 244 250 251 237 
240 245 249 250 247 242 238 239 237 234 232 230 227 221 216 214 
208 204 202 188 166 154 154 154 164 172 175 176 178 178 175 174 189 177 149 72 4 8 6 10 11 9 11 15 10 17 39 67 
84 102 110 119 139 165 182 205 208 218 230 237 237 237 237 243 
241 238 238 240 242 244 245 245 240 233 229 226 223 218 215 206 
197 194 193 175 150 144 154 147 151 164 176 175 168 172 182 177 174 174 127 41 5 12 5 9 9 8 8 8 9 10 11 37 
46 62 80 97 116 142 163 186 201 216 226 232 236 235 232 235 
236 237 237 237 238 238 239 239 239 237 232 223 215 208 204 197 
201 184 170 147 134 158 169 140 96 153 181 168 178 166 168 172 175 159 96 23 5 12 3 9 8 8 8 8 9 10 11 24 
28 35 44 56 81 119 151 164 181 199 208 212 218 224 226 228 
231 236 240 242 240 235 232 229 229 228 222 212 201 194 190 183 
174 155 148 136 142 173 174 114 71 136 179 171 181 175 176 184 183 140 60 8 6 10 0 8 8 7 7 8 8 9 10 14 
16 18 19 24 46 85 119 143 168 196 210 213 214 215 215 216 
217 221 227 231 230 224 219 223 221 216 209 198 185 174 167 170 
145 127 132 132 158 191 169 83 41 113 174 173 182 182 181 191 168 100 28 3 9 9 3 7 7 6 6 7 8 9 9 10 
12 15 17 17 24 44 64 92 123 162 190 204 209 206 202 214 
211 211 215 221 224 223 220 218 203 184 171 166 165 162 159 157 
128 119 138 149 183 202 150 60 22 91 165 173 180 182 179 177 124 49 6 5 10 7 10 6 6 6 6 6 7 8 8 8 
8 11 16 16 13 14 18 40 64 97 132 164 191 204 207 194 
191 188 187 187 186 183 180 177 159 140 135 145 156 160 159 134 
119 127 159 177 206 201 124 44 15 68 144 171 179 180 178 161 87 21 6 10 6 3 5 6 5 5 5 5 6 7 8 11 
7 7 12 14 12 9 9 19 25 35 54 87 126 155 168 176 
173 168 160 150 140 132 128 114 118 130 149 164 165 152 138 115 
124 144 178 199 214 185 97 29 14 44 114 166 181 181 183 131 56 11 13 10 4 4 0 5 5 4 4 5 6 6 7 13 
8 7 10 12 12 14 18 9 8 5 4 16 38 58 68 79 
78 75 70 67 70 78 86 111 126 147 162 163 150 131 118 122 
150 169 190 204 201 154 65 19 18 23 82 160 183 180 188 88 23 0 10 4 5 13 5 5 4 4 4 4 5 6 7 7 
5 6 9 8 7 13 21 18 24 24 17 10 8 9 8 14 
16 20 27 44 74 110 136 163 162 155 138 119 110 113 120 142 
180 191 197 201 185 126 39 16 24 12 63 155 182 177 188 