P2
# Created by IrfanView
64 64
255
211 211 224 183 69 18 48 62 52 57 62 66 71 79 86 90 101 
113 125 132 139 149 157 160 165 173 179 178 177 179 181 180 183 
183 183 184 186 188 189 190 193 194 195 196 195 194 192 191 192 
187 181 176 171 166 159 153 151 145 141 138 131 121 115 115 217 213 223 193 71 22 48 54 57 61 65 67 71 77 84 89 99 
110 123 130 138 149 157 160 166 174 179 177 176 179 181 181 183 
183 184 185 186 187 189 190 188 189 190 192 193 192 192 191 189 
186 180 176 171 164 156 150 154 149 146 144 138 129 123 123 223 216 223 210 77 31 56 55 66 69 73 75 76 80 88 95 100 
112 124 132 140 151 160 162 169 175 179 177 176 180 183 184 184 
185 185 186 187 188 189 190 190 191 192 193 194 194 193 193 189 
187 184 181 177 171 164 159 158 154 152 152 147 137 132 131 223 219 225 224 87 38 69 68 69 72 76 80 81 83 92 101 102 
114 126 133 142 152 160 163 172 179 182 179 178 182 186 188 188 
188 189 190 190 191 191 191 194 194 194 194 193 193 192 192 189 
188 186 184 182 179 176 174 163 159 158 157 152 142 136 135 222 223 227 228 100 36 74 78 67 69 76 82 82 82 90 102 104 
115 128 135 143 154 162 164 176 182 185 182 181 185 189 191 191 
192 193 194 194 193 193 192 191 191 190 190 190 190 190 190 192 
190 187 184 182 181 182 183 171 167 164 163 157 147 141 140 220 227 229 223 121 33 73 78 72 75 82 89 87 81 87 99 106 
118 131 139 149 160 169 172 176 183 186 184 183 187 190 191 193 
194 195 196 196 194 193 192 188 188 188 187 188 189 190 190 192 
192 190 187 184 183 185 188 179 174 170 167 161 152 147 147 218 229 228 218 151 40 76 77 79 81 88 94 86 74 76 87 94 
107 122 133 144 158 169 173 174 181 186 185 184 187 189 189 193 
194 195 196 195 193 191 190 187 185 183 180 178 177 177 177 175 
178 182 183 182 181 183 185 180 174 169 166 161 153 150 152 216 228 227 215 175 52 83 80 78 78 85 89 77 60 59 69 74 
87 103 116 130 145 157 162 171 180 185 185 183 186 187 187 191 
193 194 195 194 192 189 188 181 178 173 168 162 158 156 155 148 
155 164 170 173 173 175 176 176 170 165 162 158 152 151 154 220 240 215 219 187 70 71 76 81 83 84 77 60 44 40 45 52 
50 59 80 102 121 139 154 158 172 181 180 178 183 190 193 189 
190 191 191 188 182 175 169 166 162 154 143 132 123 116 113 120 
128 146 165 173 169 164 163 171 161 156 161 162 157 157 162 214 236 224 230 208 81 76 82 74 71 66 56 41 32 37 47 45 
40 41 51 65 81 101 118 139 157 174 178 179 182 186 188 190 
189 185 179 169 156 143 135 128 118 102 88 80 78 80 82 80 
92 117 147 167 172 170 169 167 169 165 158 155 157 159 159 226 231 217 220 221 94 84 86 57 58 61 64 65 71 88 104 102 
92 78 66 59 60 71 84 115 136 161 174 177 179 181 181 186 
182 174 161 143 124 107 97 82 73 63 59 64 73 83 88 79 
80 88 106 122 132 138 143 144 158 164 157 154 161 163 157 237 224 211 217 233 111 85 73 53 62 78 96 109 121 139 154 161 
151 134 111 90 78 79 84 99 120 146 164 171 173 175 176 178 
173 162 145 126 108 95 88 90 91 96 109 125 138 144 146 139 
134 131 130 127 124 125 130 119 132 147 156 163 166 164 160 231 220 222 228 221 109 81 66 74 82 97 114 125 134 146 157 163 
163 155 139 120 107 101 99 96 110 131 149 161 166 170 173 172 
167 157 142 127 116 111 110 118 125 137 154 169 177 178 176 178 
184 193 194 181 161 148 146 130 124 132 155 168 165 163 167 228 218 223 215 157 78 82 88 94 98 107 120 131 141 156 169 167 
171 170 158 141 125 112 102 100 103 115 134 150 159 166 170 171 
168 160 148 136 130 131 133 134 140 150 161 171 178 182 184 192 
199 209 213 203 187 177 176 169 146 140 157 168 161 162 173 232 213 213 198 104 66 93 105 101 102 107 117 125 134 148 161 162 
167 167 159 148 136 121 108 102 97 101 121 142 156 163 167 170 
169 164 153 141 134 134 136 146 152 159 165 168 174 182 188 195 
193 195 200 200 196 193 194 190 172 162 166 169 165 166 174 229 206 210 210 106 88 104 97 103 102 102 104 102 100 103 109 121 
129 136 138 141 142 136 126 102 92 93 113 138 154 161 165 169 
169 165 154 140 129 125 126 139 145 151 151 148 147 153 159 161 
159 166 180 191 189 180 173 186 183 180 177 175 174 173 172 216 201 212 198 120 101 94 106 88 103 91 67 66 76 80 80 70 
91 76 86 113 120 123 124 120 87 82 111 136 150 164 173 183 
170 169 157 127 122 130 123 116 128 88 109 136 126 109 148 129 
155 111 115 144 172 171 194 184 185 186 187 185 182 179 176 212 199 207 187 112 102 96 102 99 81 60 59 66 54 44 52 69 
13 25 34 62 90 95 108 116 95 82 99 131 155 169 180 182 
172 167 150 125 122 122 104 96 90 87 87 51 57 71 101 143 
140 154 152 122 142 159 153 181 181 182 183 183 181 180 179 204 199 204 173 98 100 99 98 82 79 70 60 44 29 55 104 84 
44 91 29 27 54 48 73 92 97 85 89 131 164 174 184 187 
178 169 152 131 123 109 84 69 71 100 99 56 52 14 7 29 
50 119 141 151 145 132 149 176 177 179 181 182 182 182 182 195 200 206 162 83 95 101 99 96 88 63 45 54 84 130 175 118 
79 111 53 95 119 99 111 63 96 93 91 134 169 175 185 195 
184 177 171 153 127 102 85 72 139 190 158 110 94 52 103 76 
47 76 69 110 127 130 171 171 174 179 184 186 186 184 183 191 205 211 157 73 90 103 103 101 96 77 64 79 115 166 214 114 
21 30 36 74 86 138 159 62 103 105 99 134 166 176 189 196 
184 183 194 181 140 111 111 143 188 209 138 57 49 46 129 74 
97 203 167 103 105 134 144 171 176 184 191 193 191 186 183 198 212 216 158 72 90 105 106 91 97 101 103 98 97 135 192 164 
55 42 44 16 49 174 166 88 113 112 107 132 161 177 192 188 
181 182 198 196 158 130 138 210 201 224 182 66 37 28 45 48 
144 236 173 108 129 167 186 177 182 190 196 197 193 187 183 211 217 216 160 77 96 107 105 108 99 91 100 115 114 116 133 164 
98 58 45 40 92 161 112 109 108 107 116 137 160 178 187 182 
183 176 182 192 171 145 144 143 155 208 220 113 57 47 52 100 
165 161 137 165 195 176 178 186 189 193 196 196 192 188 184 221 220 214 161 83 102 109 103 94 116 114 96 97 112 125 133 111 
130 105 99 119 116 104 114 111 95 99 123 145 164 177 177 182 
189 173 163 180 177 149 136 136 135 127 159 136 98 81 104 148 
170 176 205 185 182 185 198 193 194 194 194 193 190 188 186 225 222 231 152 94 113 98 109 105 110 114 114 108 103 100 100 109 
109 107 104 103 104 107 110 107 104 111 132 153 167 178 186 187 
188 184 177 175 175 167 157 121 112 109 115 117 118 129 145 181 
190 195 193 191 194 198 199 200 198 196 194 193 191 187 184 229 224 231 151 100 118 103 113 111 115 119 122 122 121 121 121 106 
108 111 114 116 117 117 117 106 105 113 135 156 171 182 190 193 
194 191 184 181 182 178 172 156 136 116 106 101 105 124 145 146 
160 175 184 193 203 210 212 202 200 196 194 192 190 186 184 231 225 230 148 109 124 106 113 118 119 121 126 132 136 137 137 133 
133 134 137 137 132 122 115 108 109 120 140 160 174 184 190 194 
197 196 190 187 188 188 187 178 163 148 139 131 126 134 147 151 
167 184 195 204 212 216 215 206 202 197 193 190 188 185 183 229 224 230 145 119 129 106 111 121 120 121 126 134 139 140 139 157 
154 151 149 146 136 121 109 108 112 124 142 160 172 180 183 187 
191 194 192 190 190 192 193 184 180 178 177 172 164 162 166 185 
196 208 213 215 217 215 211 210 205 198 192 189 186 183 181 228 225 232 143 130 132 106 110 121 121 123 130 138 142 143 141 151 
147 142 140 138 130 118 109 100 109 124 140 157 169 174 175 177 
182 188 192 191 190 191 194 194 188 182 177 174 174 181 189 191 
199 207 211 214 217 216 213 212 206 199 193 188 185 182 179 229 228 234 139 135 131 106 112 120 124 131 141 148 152 152 151 147 
142 136 132 127 121 112 106 97 110 127 143 158 170 174 173 174 
175 181 188 191 190 192 196 197 193 186 179 175 175 180 185 184 
191 198 203 209 215 217 215 211 207 200 194 189 185 181 178 230 228 232 128 129 123 103 114 119 127 140 151 157 158 157 156 150 
147 141 133 124 116 108 104 112 126 144 156 168 178 179 175 175 
171 173 181 187 189 193 198 194 196 197 194 189 184 180 178 185 
192 198 203 210 216 216 213 210 206 200 195 191 186 180 176 229 226 226 117 121 114 98 114 117 129 144 155 158 157 155 154 144 
143 139 133 124 116 110 108 132 147 162 171 179 185 183 177 177 
168 165 173 181 186 192 199 197 199 199 195 191 189 189 188 183 
190 199 205 212 219 218 213 208 205 201 196 192 186 180 176 232 233 221 125 103 113 106 105 114 124 139 151 156 154 150 147 143 
145 145 137 122 111 114 124 143 163 183 189 190 193 194 192 187 
171 157 156 160 170 191 211 200 202 202 200 196 193 191 191 193 
195 201 208 214 218 218 216 204 201 198 194 190 184 178 173 237 233 218 128 113 125 116 112 117 127 142 153 157 156 152 150 145 
146 146 138 123 113 118 128 169 180 189 190 192 199 201 198 191 
182 173 168 166 168 175 182 202 203 203 201 198 196 196 197 197 
199 203 208 213 215 214 211 202 200 196 192 188 182 176 171 234 231 219 129 109 117 110 112 119 129 142 152 156 155 152 150 158 
146 135 131 132 133 138 144 168 182 195 202 211 219 215 205 193 
195 191 180 174 176 181 184 199 201 202 202 201 201 203 204 203 
204 206 210 213 213 210 207 200 198 194 190 186 180 173 169 231 232 224 132 100 99 97 110 118 127 139 148 152 152 149 148 157 
148 136 122 109 108 121 138 155 174 191 198 207 217 215 205 200 
211 215 207 198 189 173 157 188 192 198 202 204 205 206 208 207 
208 210 212 214 213 210 206 200 197 193 189 185 179 172 167 235 227 216 131 108 108 102 113 117 125 137 146 150 150 149 148 141 
149 146 117 72 49 63 89 145 166 180 179 182 194 199 194 183 
164 140 137 161 188 189 174 174 181 191 200 204 206 206 207 210 
210 212 215 216 215 211 208 200 197 193 189 184 178 171 166 237 212 192 121 119 126 111 112 118 125 136 145 150 151 151 151 145 
142 134 114 84 58 49 53 113 144 170 175 179 188 188 178 109 
65 23 30 86 145 167 162 168 176 188 197 202 204 205 205 211 
212 213 215 217 215 211 208 200 197 192 188 183 177 170 165 234 205 185 117 116 121 106 108 115 122 133 142 147 150 151 152 149 
134 120 114 109 98 85 78 91 122 148 157 167 182 182 169 137 
117 102 112 135 151 153 150 174 180 188 195 199 202 204 205 212 
212 213 215 215 213 208 204 198 195 191 186 181 174 167 162 233 213 200 125 109 104 96 110 111 118 129 138 144 147 149 150 132 
132 128 116 100 94 107 126 104 118 120 114 127 157 172 167 178 
175 168 152 128 119 139 168 183 186 190 194 196 200 204 207 213 
213 213 213 213 210 204 200 196 193 189 184 179 172 165 160 213 211 207 196 201 177 119 102 112 118 128 138 146 150 152 152 140 
130 124 121 109 93 90 98 114 112 104 96 102 120 135 141 153 
151 145 138 138 147 164 177 191 190 190 193 197 201 203 204 211 
212 213 213 211 208 204 202 194 191 187 182 177 171 164 159 223 198 190 202 236 225 142 83 105 111 122 132 139 143 143 142 130 
124 124 127 123 117 121 132 131 144 151 143 134 140 155 167 166 
167 165 162 162 169 181 191 189 188 188 190 194 199 203 205 210 
211 211 211 209 205 201 199 193 190 186 181 177 170 163 159 216 178 200 234 211 143 95 105 101 108 120 130 137 138 137 134 126 
123 124 129 127 124 129 140 127 147 163 161 151 149 158 168 171 
174 176 177 177 180 186 191 189 188 186 186 190 196 202 206 209 
209 209 208 206 202 198 195 191 188 184 180 175 169 163 158 198 198 209 157 74 46 65 97 97 105 117 128 133 133 129 125 124 
123 124 126 122 116 118 125 130 142 156 162 162 161 163 165 165 
168 172 174 175 176 179 181 190 189 187 185 187 192 199 204 208 
208 208 206 203 199 195 192 188 185 181 178 174 168 162 157 208 151 106 46 2 17 55 88 90 98 109 119 124 122 116 112 115 
117 120 122 119 114 114 118 130 138 147 150 148 147 150 156 158 
161 164 167 171 174 178 181 190 190 189 187 186 189 195 200 205 
206 205 204 201 197 192 190 184 182 179 175 172 167 161 156 133 45 11 21 18 8 32 96 88 95 105 114 118 115 109 105 107 
110 112 111 107 105 106 109 122 133 144 141 127 119 130 146 155 
156 158 162 167 173 178 181 185 187 189 188 186 186 190 194 201 
201 201 200 197 193 190 187 181 179 176 173 170 165 160 155 13 14 23 12 8 16 31 70 87 93 102 110 113 110 104 100 100 
101 100 96 93 96 103 108 130 139 150 153 143 137 147 162 161 
160 161 162 166 169 171 172 174 180 186 188 186 185 187 190 195 
196 196 195 193 190 186 184 179 177 174 172 169 164 159 155 14 16 17 5 7 7 16 63 82 87 95 102 104 101 96 92 91 
92 91 87 90 101 115 124 129 129 138 153 162 163 165 170 173 
172 170 169 168 167 165 163 165 173 183 187 186 185 186 188 191 
191 192 192 190 187 184 181 178 176 173 171 168 164 158 154 15 7 4 7 7 8 22 41 70 85 93 98 103 94 83 84 91 
87 88 91 91 95 114 135 142 135 129 144 166 166 160 168 167 
175 174 163 159 164 164 158 161 165 171 174 174 174 178 183 189 
190 191 191 188 183 177 174 173 173 172 169 165 160 156 153 11 7 8 14 13 10 19 33 64 78 86 91 97 90 81 83 85 
76 74 81 89 97 112 127 147 144 143 156 172 167 158 164 168 
175 174 165 159 158 150 139 130 136 151 169 177 175 172 173 185 
186 187 187 185 181 177 175 173 173 172 170 166 161 156 153 8 8 14 21 20 13 14 22 54 68 76 83 92 87 79 81 81 
67 60 69 82 91 102 112 114 120 127 143 158 154 147 154 146 
152 153 147 143 137 122 106 86 90 114 150 172 171 167 169 181 
181 181 181 180 178 176 175 173 173 172 170 165 160 155 152 10 11 18 24 22 14 11 13 44 59 68 78 90 86 77 79 65 
50 42 50 63 72 83 93 103 115 126 140 154 152 150 161 161 
165 167 167 167 161 145 129 88 84 100 136 161 164 163 169 180 
179 178 176 175 174 174 174 172 171 170 167 162 157 153 150 14 15 18 21 19 13 9 9 38 52 63 75 88 86 76 77 72 
63 60 69 82 95 114 131 154 165 171 176 183 180 179 190 198 
199 201 202 202 197 183 170 140 127 126 142 155 158 162 171 180 
179 176 174 172 170 170 170 170 168 165 160 156 151 148 146 18 18 17 17 14 11 8 7 35 48 56 67 81 81 74 75 87 
82 84 97 114 133 162 187 193 202 203 201 205 202 203 214 216 
214 212 209 204 194 181 172 167 158 150 150 153 158 168 177 177 
176 174 171 169 167 167 166 167 164 158 152 147 144 143 142 19 19 16 13 11 10 7 5 36 44 46 54 69 73 69 74 77 
70 71 84 103 126 158 184 194 203 201 198 203 204 206 216 221 
218 213 205 192 175 161 152 151 158 160 155 153 160 169 174 171 
170 169 168 167 165 164 164 164 159 151 143 138 136 137 139 19 18 16 12 10 10 7 3 38 42 39 43 59 65 66 73 79 
67 63 73 91 113 142 167 198 206 203 197 202 202 202 209 210 
208 202 192 173 151 135 127 137 157 169 163 156 160 163 161 165 
165 165 166 165 164 163 163 162 156 146 137 132 132 134 137 21 18 17 15 9 4 7 13 38 45 48 45 45 52 62 67 67 
69 71 69 65 73 104 135 161 178 189 186 185 194 200 199 191 
182 163 140 124 123 136 149 162 162 161 159 158 158 160 162 166 
165 163 163 163 163 160 158 155 143 135 128 124 136 146 140 20 18 16 14 8 4 8 15 39 45 48 44 43 50 59 64 65 
67 70 70 63 59 68 80 102 115 122 119 120 131 138 138 120 
122 122 121 122 131 145 157 158 159 159 159 159 159 161 162 162 
161 160 161 161 159 155 152 151 135 127 127 129 140 144 135 20 16 14 12 7 4 10 18 41 47 48 43 40 46 54 59 60 
61 66 72 71 65 62 62 55 62 63 60 64 76 86 87 92 
100 113 126 136 145 152 156 152 153 154 156 157 158 158 158 157 
157 157 158 157 152 146 141 141 123 118 128 136 144 143 130 19 15 12 10 6 5 11 20 43 48 49 43 39 42 49 52 60 
61 65 70 75 78 81 83 76 78 76 72 78 91 102 104 115 
122 134 145 152 153 152 150 151 151 152 154 155 155 153 151 155 
154 154 153 150 143 135 129 127 114 117 133 142 147 141 125 18 14 11 9 6 4 11 20 45 51 52 45 40 41 45 47 62 
66 69 70 71 77 86 92 99 99 96 94 99 110 119 124 134 
139 146 153 156 156 154 152 158 157 155 156 156 155 151 147 155 
153 150 146 141 133 124 118 115 113 125 140 145 146 135 115 17 14 12 10 6 4 10 18 45 53 56 50 43 42 43 43 53 
64 73 74 74 80 88 93 99 100 101 100 102 108 116 122 148 
153 158 161 162 163 164 166 169 165 162 160 160 158 153 149 152 
148 141 135 129 123 116 111 112 121 137 145 144 144 124 91 16 14 12 11 7 4 8 16 46 54 59 55 48 45 43 41 43 
56 69 74 79 89 96 99 112 116 121 122 120 121 126 132 153 
160 167 170 168 168 171 174 174 169 163 161 161 160 155 150 145 
139 131 123 118 115 112 110 117 131 145 144 142 142 110 60 16 14 13 12 8 4 7 14 46 55 62 58 51 47 44 41 43 
54 63 68 76 89 97 97 112 119 127 130 126 122 126 133 137 
148 161 167 166 165 169 174 174 168 161 158 159 158 154 150 140 
133 123 115 111 110 110 110 124 139 149 142 140 141 100 37 