P2
# Created by IrfanView
64 64
255
149 156 130 127 193 182 173 175 194 204 217 225 227 228 230 233 238 
238 237 235 235 235 235 235 235 235 234 233 233 232 231 231 232 
230 227 226 226 226 225 224 219 220 220 220 218 216 214 212 208 
203 197 193 192 192 191 191 191 188 182 175 164 150 135 125 156 150 113 173 187 153 181 180 202 210 220 226 227 227 229 232 237 
237 237 236 236 236 236 235 235 235 234 234 233 232 231 231 232 
229 227 226 226 226 225 223 219 219 219 218 217 214 212 210 207 
204 199 196 195 195 194 193 193 190 185 178 168 154 137 126 161 138 132 199 163 148 180 187 211 217 223 227 227 227 229 231 234 
235 237 238 238 237 236 236 235 235 235 234 233 232 232 231 231 
229 226 225 225 225 224 222 220 219 219 217 215 212 210 208 207 
204 201 199 199 199 197 196 194 192 188 183 174 159 140 128 157 135 179 178 138 170 174 196 216 220 223 225 226 227 230 232 233 
234 237 239 240 239 237 236 236 236 235 234 233 233 232 232 231 
228 226 225 225 225 224 222 221 220 218 216 213 211 208 207 206 
204 202 202 202 201 199 198 195 193 190 186 178 162 142 128 150 155 192 147 143 171 181 206 218 220 222 224 225 228 231 234 233 
235 237 239 240 239 238 236 236 236 235 235 234 233 232 232 231 
229 226 225 225 225 224 223 222 221 219 216 213 211 209 209 206 
204 202 202 203 202 201 199 195 192 189 187 180 165 144 128 150 179 159 141 167 153 202 213 220 220 222 224 227 230 233 234 235 
236 238 239 239 239 238 237 237 236 236 235 234 233 233 233 232 
230 227 226 226 226 225 224 224 223 220 217 215 214 213 212 209 
206 203 203 203 203 202 201 197 193 189 187 181 166 145 129 158 180 135 147 168 163 215 213 223 223 224 226 229 232 233 234 238 
238 238 238 238 238 237 237 237 237 236 235 234 234 233 233 233 
231 228 227 228 228 226 225 226 224 222 219 217 217 216 217 213 
210 206 204 204 205 204 204 199 194 189 187 182 168 147 131 164 166 139 147 150 196 215 209 227 227 227 229 232 233 233 233 241 
240 239 237 237 237 237 237 237 237 236 235 235 234 233 233 234 
232 229 228 229 228 227 226 227 225 223 220 219 219 219 219 217 
213 208 205 205 206 206 206 202 195 189 187 183 170 149 133 174 158 129 145 173 215 200 228 229 230 231 233 234 235 235 235 241 
239 236 237 239 239 237 234 236 238 240 240 238 235 234 234 231 
233 234 234 231 229 227 227 227 226 224 222 221 221 221 222 216 
216 212 210 212 216 214 209 200 192 192 190 182 175 159 134 170 150 133 147 184 214 205 228 230 230 230 231 234 236 239 241 242 
239 237 237 239 241 240 238 234 236 238 238 236 235 235 236 232 
233 233 233 231 229 228 228 225 225 226 226 226 224 222 221 215 
216 213 209 208 210 208 204 203 194 192 188 177 171 159 137 169 139 139 148 198 212 213 229 234 233 232 231 232 235 238 239 243 
243 242 243 243 241 237 234 233 235 236 236 234 234 236 237 233 
233 232 232 231 230 230 229 225 226 226 226 224 221 217 214 206 
210 211 208 206 209 209 208 205 197 195 188 175 170 162 144 171 127 140 148 208 209 219 229 229 228 227 225 224 223 223 223 226 
229 234 239 241 240 237 234 234 235 236 235 234 234 235 237 235 
234 232 231 231 231 230 228 226 222 216 208 200 194 189 187 189 
196 201 200 200 204 208 208 202 197 196 190 177 173 167 152 174 115 133 146 213 207 222 227 216 218 220 221 220 217 213 210 203 
205 209 214 221 228 235 240 235 236 237 236 234 233 234 235 236 
234 231 230 230 228 225 222 210 203 192 181 173 170 171 172 185 
192 196 193 192 194 196 196 193 190 192 189 179 176 170 155 172 102 119 146 214 210 222 223 215 219 225 229 230 228 223 220 209 
204 198 194 195 204 217 226 231 234 236 237 235 233 233 233 235 
232 228 227 226 222 216 210 180 177 175 175 180 188 198 204 206 
209 209 203 198 196 193 188 187 182 185 184 177 176 171 155 164 87 104 149 215 217 221 219 223 227 232 237 239 238 236 234 227 
223 214 204 197 197 203 208 223 227 232 235 235 233 232 232 231 
228 224 222 220 214 204 196 172 176 184 195 207 218 227 231 224 
225 222 216 212 209 203 196 191 183 181 180 175 178 173 156 156 77 94 152 217 223 221 216 226 228 232 234 236 235 234 233 230 
232 232 228 219 212 208 207 215 221 228 233 234 234 233 232 228 
224 220 218 216 208 196 186 190 197 206 216 222 223 222 220 222 
222 220 218 218 218 212 204 199 187 182 179 176 180 177 160 148 81 117 181 218 217 231 220 235 217 233 240 217 223 239 222 226 
222 235 228 221 233 227 213 214 221 225 224 229 238 236 227 227 
223 221 218 207 194 195 205 210 221 209 209 216 221 228 213 207 
217 216 210 211 207 205 213 206 196 183 177 181 183 173 159 148 87 131 192 224 220 229 218 219 227 230 222 215 217 211 196 203 
215 200 221 241 223 224 236 221 226 229 228 230 235 234 229 226 
221 218 217 210 200 199 203 212 206 217 240 221 201 205 182 174 
171 171 185 197 192 191 203 204 196 183 175 177 179 173 163 139 88 144 202 227 223 228 219 224 238 224 204 203 197 192 206 202 
177 172 171 172 210 233 211 223 226 227 228 228 229 229 227 226 
220 214 212 207 201 197 196 203 207 199 193 160 119 106 88 87 
89 100 126 154 174 186 195 202 197 187 177 174 175 172 167 123 81 152 204 224 224 227 224 227 214 203 211 216 185 137 110 93 
69 98 81 82 151 185 204 220 221 223 227 232 234 231 227 224 
220 213 204 197 194 190 187 181 211 166 107 76 51 50 58 37 
39 43 47 69 118 165 186 193 194 190 182 176 175 172 168 115 78 160 204 219 225 226 228 228 215 204 161 93 65 56 29 30 
86 80 68 62 16 49 166 203 211 220 227 237 244 239 230 220 
220 211 197 188 188 186 181 196 140 67 44 63 99 113 75 97 
73 56 38 21 49 117 167 173 181 187 185 181 178 174 170 113 80 169 206 218 228 226 229 216 212 187 97 26 85 181 200 185 
198 90 113 142 82 101 89 165 191 213 221 231 244 240 225 216 
217 208 191 184 187 180 168 133 62 99 190 193 191 170 60 137 
97 93 92 43 14 60 119 155 168 181 186 186 184 178 172 106 76 174 208 220 233 226 230 237 215 168 113 107 168 211 197 155 
167 125 131 101 99 165 109 125 176 215 219 223 238 239 222 216 
214 201 185 183 184 165 138 72 61 135 205 157 125 150 125 120 
98 120 137 89 53 77 109 158 171 185 192 193 189 181 173 95 68 173 207 222 238 228 231 223 230 219 212 222 218 205 207 179 
159 169 145 115 121 115 100 107 174 225 226 223 239 243 228 218 
213 195 180 181 179 148 108 88 111 126 166 186 164 156 158 144 
142 168 172 140 143 174 179 171 183 194 199 198 193 182 172 81 68 143 219 224 224 229 227 230 230 229 228 225 222 219 217 207 
205 199 188 178 175 179 184 212 218 223 226 230 235 234 231 218 
204 193 190 185 177 177 184 179 166 168 191 208 208 208 215 206 
202 198 196 198 202 204 205 198 198 199 199 196 188 180 177 78 67 125 217 225 221 228 230 229 229 229 229 228 226 223 222 218 
217 211 202 194 192 197 202 214 219 223 225 229 233 232 228 217 
202 190 186 182 176 177 184 182 179 180 189 202 211 214 214 213 
210 207 206 209 211 213 214 201 200 200 200 196 189 181 176 78 67 94 208 227 219 228 233 228 229 230 231 231 230 228 227 223 
222 218 211 205 204 209 214 216 220 223 225 228 231 229 223 215 
201 190 187 183 177 179 186 182 187 188 186 193 206 211 207 211 
209 208 209 211 213 214 213 204 204 203 201 197 190 181 175 83 68 62 187 227 221 229 231 228 229 230 231 231 230 229 228 223 
222 219 214 210 210 213 217 219 222 223 224 227 230 226 219 213 
201 193 193 190 183 182 187 187 190 193 193 195 200 204 204 205 
204 205 207 209 211 210 209 207 207 205 201 198 193 183 173 92 69 43 153 223 227 231 227 230 230 231 231 230 228 226 224 227 
225 223 220 217 217 219 221 222 224 224 224 227 230 224 216 207 
198 194 197 195 187 183 186 197 193 198 209 209 200 201 210 206 
206 206 209 211 212 210 209 208 209 206 201 198 195 184 172 100 73 43 115 213 230 232 226 231 231 231 230 229 226 223 222 225 
224 222 221 220 220 221 222 225 225 224 224 228 230 224 214 202 
194 192 197 195 187 183 186 200 192 198 214 215 202 201 212 208 
207 207 208 210 210 209 207 207 209 206 199 198 197 186 170 103 78 57 82 199 228 232 228 231 231 231 231 229 226 224 222 220 
219 219 220 222 223 224 224 227 226 225 225 230 232 225 214 204 
195 191 194 194 187 186 191 197 195 199 208 211 208 207 211 209 
207 206 206 207 208 207 205 206 209 205 198 198 199 187 170 104 82 71 64 189 225 232 230 230 231 231 231 230 228 226 224 220 
219 220 223 227 229 231 231 228 227 225 225 230 233 226 215 209 
198 191 194 193 189 191 197 199 204 205 205 210 219 220 215 214 
212 209 209 209 210 209 208 205 208 204 197 197 199 187 170 95 111 85 42 154 223 217 237 233 233 232 231 231 231 232 232 228 
226 225 227 231 233 231 229 231 231 228 226 229 230 220 207 205 
196 191 194 197 196 196 197 203 204 206 208 212 216 219 220 217 
216 215 214 212 211 209 209 204 205 204 201 200 196 182 168 94 107 96 48 137 241 233 226 233 232 232 232 232 232 232 232 229 
227 226 228 231 233 232 230 232 232 228 225 228 229 220 208 204 
193 186 190 198 201 200 199 202 203 205 208 211 215 218 219 217 
217 215 214 212 211 210 209 204 205 204 201 200 195 181 167 94 116 115 41 79 217 228 228 232 232 232 232 232 232 233 233 230 
229 228 229 231 233 233 232 233 231 227 224 225 226 218 209 204 
189 179 183 194 201 203 203 203 203 205 208 211 214 217 219 218 
217 216 214 213 211 210 209 205 206 204 201 199 194 180 166 97 121 116 39 67 214 221 233 232 232 233 233 233 233 233 233 232 
230 229 229 230 232 233 233 232 229 225 223 223 222 216 210 204 
189 176 174 181 190 199 206 205 206 207 209 212 216 218 220 218 
217 216 215 213 211 210 210 206 206 204 200 198 192 178 163 101 110 94 52 110 242 227 229 231 232 233 234 235 234 234 233 232 
231 230 229 229 230 232 234 230 226 223 222 222 219 215 212 205 
193 179 170 168 174 190 205 208 209 210 212 215 218 221 222 218 
218 217 215 213 212 211 210 207 207 204 200 197 190 175 161 103 98 81 51 93 197 224 232 230 231 233 235 236 235 234 234 232 
232 231 229 227 228 231 234 228 224 223 225 225 220 216 215 208 
199 185 173 164 166 183 200 210 211 212 214 216 219 222 223 219 
218 217 215 214 212 211 210 208 207 204 200 196 189 173 158 102 81 81 44 28 115 225 232 229 231 233 236 236 236 235 234 231 
231 230 228 225 226 230 234 227 224 225 230 230 223 219 220 213 
204 192 181 172 171 181 193 211 211 212 214 216 219 221 223 219 
218 217 216 214 213 211 211 208 208 204 199 195 187 172 156 100 61 79 51 7 91 245 219 229 231 234 236 237 236 235 234 230 
231 230 227 224 225 229 234 228 225 227 234 234 226 222 223 216 
207 196 189 183 179 182 188 210 210 211 213 215 218 220 222 219 
219 217 216 214 213 212 211 209 208 204 199 195 187 171 155 73 71 70 43 41 61 215 231 228 230 234 237 238 237 235 234 226 
229 230 229 226 225 228 231 230 228 230 238 240 233 225 221 223 
209 200 201 197 187 184 189 207 213 220 223 223 220 220 220 221 
221 221 221 219 216 213 212 211 203 203 200 189 182 171 153 59 53 58 47 45 57 195 225 227 229 233 236 237 237 235 234 229 
230 230 229 228 229 231 234 228 224 225 231 234 229 223 220 208 
193 184 189 194 193 196 202 206 211 218 222 222 222 223 224 222 
222 221 220 218 216 214 212 209 203 204 200 188 180 168 150 53 42 53 61 56 55 169 225 225 227 231 234 236 236 235 234 233 
230 228 228 231 234 236 236 227 222 220 224 226 223 219 218 209 
170 142 159 197 215 203 186 206 210 214 218 220 223 226 228 224 
223 222 220 218 216 214 213 206 203 204 199 185 178 167 148 54 40 55 74 60 50 138 228 224 226 229 232 234 234 234 234 233 
230 226 227 232 237 238 238 231 223 218 220 221 218 216 216 185 
177 172 175 179 185 195 206 208 209 211 213 216 220 223 226 224 
223 221 219 217 215 214 214 205 202 203 195 182 178 169 150 49 39 54 78 55 45 106 225 223 225 227 230 231 232 232 232 231 
228 225 227 232 236 237 237 237 228 222 222 222 218 215 215 192 
197 201 196 186 184 197 213 210 209 208 209 211 215 218 219 222 
221 220 219 217 215 214 213 206 202 200 191 180 180 171 149 44 41 56 79 54 51 79 208 224 225 226 228 229 230 230 230 228 
227 227 229 232 234 235 235 240 232 227 227 226 221 217 216 218 
206 195 197 206 210 204 196 211 209 206 206 209 211 213 213 217 
217 218 219 218 216 214 212 206 202 198 189 180 181 167 138 42 45 58 79 56 59 49 170 225 225 226 227 227 227 227 227 225 
228 231 232 232 233 234 235 239 233 230 232 232 227 221 219 212 
217 217 209 199 197 203 209 211 208 206 206 209 211 212 211 211 
213 216 218 218 216 213 211 205 201 197 189 183 181 158 120 38 45 55 74 52 57 20 129 226 226 226 226 226 226 226 226 224 
229 234 235 233 232 233 235 236 231 230 235 236 231 224 222 231 
223 213 207 209 211 209 203 211 208 205 206 210 213 213 212 207 
211 215 218 219 217 213 210 204 200 197 191 185 181 150 105 40 43 55 82 46 34 37 66 211 218 231 230 223 224 225 225 223 
229 234 234 236 238 236 231 233 232 235 240 239 231 224 221 226 
222 218 215 213 211 208 206 205 213 207 202 212 216 213 213 213 
216 216 216 219 221 217 209 207 200 204 191 178 169 159 45 48 53 58 73 45 48 52 67 168 237 222 221 226 230 229 225 232 
230 224 220 224 234 240 240 237 234 232 231 226 219 217 220 233 
226 216 208 204 204 204 204 211 216 218 216 201 178 185 218 215 
218 218 217 219 220 215 208 202 205 199 193 178 174 120 18 42 51 59 66 50 62 63 61 87 227 223 220 231 229 230 229 236 
229 218 211 216 227 232 231 232 231 233 236 233 227 224 226 229 
224 217 212 212 213 214 215 209 212 206 188 159 131 141 178 218 
221 221 219 219 219 214 207 202 206 190 189 176 167 69 0 35 45 60 64 49 47 44 34 15 164 230 227 235 221 229 234 233 
229 221 217 220 222 215 205 219 211 205 207 209 207 205 205 196 
195 195 195 194 191 187 183 182 174 138 104 110 145 186 218 219 
223 223 220 218 217 212 206 208 200 187 180 175 136 28 1 39 42 58 55 34 13 11 9 6 82 214 225 236 222 231 233 232 
231 228 227 228 224 211 196 179 162 149 152 166 179 186 190 192 
186 174 160 143 126 111 101 120 135 139 147 179 207 212 210 218 
223 224 220 217 216 212 206 212 189 194 177 168 86 2 4 30 29 46 36 18 0 12 18 39 30 166 213 233 231 233 229 235 
235 232 230 231 231 222 212 221 204 188 183 179 168 151 139 155 
151 147 147 150 156 160 162 165 166 168 181 198 199 202 217 214 
220 223 219 216 215 212 208 209 183 196 174 137 37 0 0 12 20 41 23 17 12 36 35 48 18 113 210 226 234 228 230 235 
236 234 231 232 234 232 226 207 206 213 224 229 220 206 197 203 
196 188 181 179 180 182 182 169 181 191 203 211 202 198 209 210 
217 221 218 215 214 213 210 202 185 182 158 77 4 1 0 7 25 50 23 23 27 49 31 28 23 82 217 219 229 220 235 230 
234 236 233 233 234 232 228 227 223 222 222 219 215 215 218 207 
204 199 195 192 190 187 184 192 209 203 186 194 211 214 211 207 
214 219 217 214 214 214 211 197 188 163 139 24 0 16 4 3 33 44 35 34 35 30 28 25 52 99 204 221 219 233 225 232 
232 233 234 234 233 233 232 227 225 222 218 214 210 208 207 204 
204 203 203 204 206 208 210 208 204 201 202 207 210 211 210 212 
216 219 218 217 216 209 201 198 170 146 85 0 9 0 0 7 27 30 26 40 52 49 45 56 59 87 195 220 215 229 230 233 
234 235 235 235 233 232 230 231 229 227 224 221 219 217 216 214 
214 213 212 212 212 213 213 210 208 206 206 208 211 212 213 219 
220 218 215 214 212 205 196 181 159 130 60 0 6 2 2 6 28 35 34 47 59 61 61 76 60 72 186 223 214 223 229 232 
233 236 237 237 234 231 229 233 232 231 229 227 225 224 223 222 
222 222 221 219 217 215 214 211 212 212 211 210 211 214 216 221 
220 216 212 211 209 199 188 157 144 107 27 0 1 4 7 0 33 53 50 48 49 53 63 67 54 63 179 228 221 220 221 228 
230 234 237 238 236 233 231 232 232 231 229 228 226 224 223 223 
223 223 222 220 218 215 213 212 214 216 214 210 210 213 217 214 
215 214 212 211 205 189 174 139 133 86 3 2 0 3 6 0 28 44 41 39 37 42 54 52 52 58 167 225 227 222 217 222 
225 231 236 238 238 237 235 233 233 232 230 228 225 223 221 220 
221 221 221 220 218 216 215 213 215 217 214 211 209 211 214 208 
212 214 212 207 194 172 153 131 125 67 0 8 0 0 1 0 12 13 12 23 31 35 43 44 46 45 152 219 228 224 223 219 
222 227 233 236 238 238 238 235 235 235 234 232 229 226 224 221 
221 221 221 220 220 219 218 216 216 216 214 212 210 210 210 207 
211 212 205 193 176 155 137 129 116 47 0 8 0 0 0 0 5 1 0 11 19 22 30 31 24 20 140 220 227 221 228 219 
221 225 230 233 236 237 237 235 236 237 237 236 233 231 229 224 
223 222 220 219 219 219 219 219 217 216 215 214 213 210 208 205 
208 204 191 175 161 148 139 128 103 25 2 3 0 0 1 0 9 12 7 6 4 7 20 15 0 0 136 228 227 215 229 220 
222 224 228 231 234 235 236 233 234 236 238 237 236 234 232 225 
224 221 219 217 217 217 218 222 219 216 215 216 215 211 207 202 
203 195 178 161 153 150 148 126 94 10 3 0 0 2 5 