P2
# Created by IrfanView
64 64
255
156 164 169 167 164 165 167 168 165 167 171 174 175 178 181 184 185 
183 180 176 172 172 174 177 178 176 172 169 167 168 169 171 162 
166 165 161 161 166 167 163 167 167 165 162 160 160 159 158 151 
158 160 153 148 148 146 142 144 143 142 141 139 134 127 122 157 165 170 168 165 167 169 169 169 170 172 172 172 173 176 178 176 
176 176 173 171 171 174 176 172 171 168 166 165 165 166 167 164 
167 167 163 163 168 169 166 164 164 164 162 160 160 159 157 158 
162 160 151 144 143 142 139 142 141 139 139 137 132 124 118 158 166 170 168 166 169 170 170 169 170 170 169 168 169 172 174 171 
172 173 171 169 168 169 171 167 167 167 166 165 165 165 165 169 
171 170 166 165 168 168 166 161 161 162 162 161 159 157 156 156 
157 153 144 138 137 137 136 139 137 136 136 135 129 120 112 158 165 169 167 167 169 170 169 166 167 167 166 166 168 171 174 171 
173 173 172 168 165 164 163 167 168 169 169 169 168 167 166 174 
173 171 167 165 164 163 162 161 159 160 163 161 156 153 153 148 
148 146 142 139 139 139 139 136 134 133 133 133 127 115 106 157 163 166 165 166 169 170 167 166 167 167 166 166 166 169 172 171 
172 174 173 169 165 163 163 167 168 170 171 170 169 167 166 170 
168 166 165 164 162 162 163 162 159 160 163 161 153 150 151 146 
145 146 147 146 144 142 141 136 133 132 133 133 126 113 102 157 161 164 164 166 170 170 167 169 170 171 169 167 165 166 167 168 
170 172 172 170 168 168 168 166 166 167 168 167 166 164 163 162 
159 159 162 163 162 163 166 164 158 158 163 161 152 150 153 149 
145 145 147 147 141 136 135 137 134 133 135 135 128 112 100 158 162 164 164 167 172 171 167 168 170 172 172 170 168 167 167 169 
171 172 171 169 168 168 169 166 166 166 166 164 163 162 161 161 
157 157 161 162 159 160 165 163 156 155 162 161 153 153 159 157 
150 146 148 147 141 137 137 140 136 135 137 139 130 114 99 159 163 165 165 169 173 173 169 163 167 171 174 173 172 171 171 173 
174 173 171 167 165 165 165 169 168 167 166 164 163 162 161 166 
160 159 162 160 155 155 159 161 153 153 161 161 155 156 164 169 
159 154 155 155 150 148 150 142 138 137 139 141 132 115 100 157 158 160 166 171 172 170 166 161 168 175 178 177 177 181 185 176 
174 175 177 175 169 165 166 168 164 164 166 165 162 161 164 162 
159 161 165 164 158 158 163 164 163 162 161 161 161 161 161 166 
162 157 154 155 156 157 157 149 148 145 141 137 129 111 93 161 161 162 165 169 170 168 165 165 169 173 174 172 174 178 183 188 
184 182 182 178 170 167 168 170 166 165 167 165 161 160 162 156 
153 154 158 158 155 156 161 156 158 159 161 161 160 159 158 162 
160 157 157 158 159 158 157 145 145 142 139 139 134 120 106 165 164 163 164 167 168 167 166 172 173 174 172 170 171 175 180 180 
176 174 175 173 168 168 170 169 165 164 165 163 159 157 159 157 
154 153 155 155 154 155 159 157 160 164 167 169 168 166 164 159 
159 159 160 161 160 157 154 146 145 141 138 139 137 128 117 165 164 164 164 165 167 168 169 175 176 175 173 170 169 171 173 170 
167 167 169 169 165 165 168 162 159 158 160 159 156 155 158 160 
156 152 151 150 150 150 151 158 159 160 161 161 160 159 159 154 
155 157 160 161 158 153 148 151 149 144 138 137 137 130 121 164 164 164 164 165 167 170 173 172 173 173 171 168 164 161 161 163 
160 161 164 163 158 156 158 150 148 149 153 154 152 153 157 156 
152 147 144 143 145 144 141 144 140 134 128 124 123 123 124 138 
140 145 150 154 153 149 145 149 148 144 138 137 136 131 124 163 164 165 165 165 167 171 174 168 168 168 166 162 157 152 149 135 
133 135 140 142 141 142 145 140 138 140 146 149 149 151 155 153 
151 145 140 140 142 139 133 122 115 103 93 87 86 89 92 115 
118 124 132 139 143 143 141 138 140 139 137 137 138 134 128 163 166 167 167 166 166 169 172 170 168 165 161 158 154 150 147 125 
121 119 122 124 125 130 136 135 133 136 142 146 146 149 153 152 
149 142 133 131 130 122 113 99 93 83 76 74 78 84 89 98 
100 105 112 121 126 129 129 128 133 136 136 137 138 134 128 165 168 170 169 166 165 166 169 175 171 165 160 157 154 152 150 154 
144 135 129 124 122 125 131 134 132 135 141 145 145 148 152 147 
144 134 121 115 110 99 86 81 77 72 71 75 84 95 102 92 
92 95 100 107 112 115 116 124 130 135 136 136 136 131 124 172 168 164 167 171 172 168 163 168 166 166 166 160 149 143 142 144 
125 115 112 104 106 116 117 129 134 144 153 151 145 148 156 143 
145 136 116 105 100 89 73 68 79 81 74 75 84 81 70 78 
76 78 83 84 81 84 92 96 104 116 124 123 120 124 131 166 166 167 168 168 167 165 163 156 149 144 144 142 133 125 122 106 
93 91 89 76 76 97 114 129 132 141 153 156 152 152 155 149 
146 135 117 101 90 80 71 52 72 76 60 58 76 87 83 70 
65 62 61 60 62 73 86 78 85 101 118 126 126 127 130 164 167 170 170 165 161 159 159 148 137 128 127 127 123 117 114 108 
79 65 65 58 61 84 104 118 123 135 150 160 161 159 160 158 
150 137 120 98 78 68 67 75 64 56 59 62 58 51 46 53 
57 63 64 59 55 58 66 62 70 90 116 135 139 138 137 167 169 171 170 166 161 156 153 147 136 126 123 124 124 126 130 129 
71 36 44 61 75 85 88 103 114 132 149 160 165 167 170 168 
155 143 129 102 72 60 64 79 50 59 103 108 65 45 61 56 
66 77 78 69 61 60 64 63 72 93 120 138 144 144 144 169 167 166 169 171 168 161 154 149 143 136 133 131 134 145 158 123 
65 31 49 79 96 93 79 104 121 142 154 159 165 172 179 176 
162 152 141 114 80 65 70 58 57 94 138 119 59 49 84 85 
91 93 87 80 81 91 101 90 97 113 129 138 138 139 142 164 162 161 166 173 175 169 163 160 158 156 154 150 152 165 179 127 
97 86 100 112 115 107 91 124 142 159 163 161 165 174 182 181 
169 159 149 128 100 88 91 72 91 119 133 116 87 80 89 109 
117 121 118 116 122 131 138 134 136 142 147 145 138 137 140 162 161 162 166 171 172 171 168 169 168 170 171 169 166 170 177 151 
147 151 150 139 134 131 121 145 158 168 166 163 168 176 181 183 
173 162 153 140 125 118 119 107 119 128 133 142 149 143 131 127 
136 143 143 144 150 154 155 161 157 155 156 153 146 139 138 163 165 167 168 166 165 167 168 168 167 170 175 174 167 162 161 163 
166 171 162 145 146 152 146 155 163 168 164 164 171 178 180 184 
175 163 153 146 141 139 139 135 138 140 141 141 140 138 137 146 
147 141 132 134 147 159 164 161 153 148 151 154 148 138 133 160 164 169 170 168 168 171 174 176 174 171 168 164 162 160 159 164 
151 146 151 145 131 132 145 160 164 168 169 167 167 170 173 174 
173 165 155 153 158 160 156 142 140 136 133 132 136 143 148 147 
147 148 151 155 158 158 157 159 159 159 155 150 144 141 140 162 164 167 169 170 171 173 175 173 173 171 170 168 166 165 164 160 
151 146 148 145 141 146 157 167 170 174 173 171 170 172 175 182 
179 169 157 152 155 156 153 152 150 147 143 140 141 144 148 151 
151 152 155 159 161 160 159 157 158 158 156 151 146 143 142 163 163 165 168 172 175 175 175 170 171 172 172 172 171 169 168 160 
157 153 150 150 157 167 174 174 176 178 176 172 171 172 175 183 
179 169 156 150 151 153 152 159 160 159 157 153 151 152 152 158 
158 158 160 163 164 163 162 157 158 158 156 151 147 144 144 162 161 161 166 172 176 175 173 168 170 172 174 174 172 170 169 164 
168 166 160 161 173 182 183 177 179 180 177 172 169 170 173 178 
174 165 155 149 150 154 157 160 163 166 167 165 162 161 161 163 
163 162 163 165 165 164 162 157 158 158 155 149 144 141 140 160 158 159 164 170 173 173 171 170 171 173 174 173 171 169 167 168 
176 177 170 171 180 185 180 180 182 181 177 172 169 171 173 178 
174 166 158 152 150 155 160 161 164 169 171 170 167 165 164 166 
165 164 164 164 164 161 159 157 157 156 152 145 138 134 133 158 158 160 163 167 170 170 170 172 173 173 173 173 171 169 168 168 
176 180 176 175 179 179 175 182 183 183 179 174 172 174 177 185 
180 173 165 155 149 151 157 161 165 169 170 169 166 165 164 167 
166 164 163 163 161 158 155 154 154 152 147 139 132 127 125 158 160 163 165 166 167 169 171 174 174 174 174 173 173 173 173 168 
173 177 178 178 178 177 176 180 181 181 177 172 171 174 178 186 
181 175 168 156 145 145 151 158 161 164 166 166 166 167 169 168 
166 164 162 161 159 155 152 147 147 146 141 134 127 123 121 158 162 166 167 166 166 169 172 175 175 174 174 174 175 176 177 170 
171 175 180 180 178 179 183 176 177 177 173 169 169 173 177 182 
177 172 166 153 141 141 147 152 155 159 162 165 168 172 175 169 
167 164 162 161 158 154 150 142 142 141 137 131 124 121 119 158 159 160 161 163 166 171 175 166 171 177 178 177 176 177 179 174 
169 171 182 183 176 175 181 175 174 173 172 169 169 174 180 171 
171 171 167 156 143 135 134 143 159 166 160 159 169 174 169 162 
166 169 166 159 155 155 157 145 145 141 135 128 125 128 131 159 160 161 161 161 163 167 171 174 177 179 179 178 176 175 174 177 
170 171 178 178 172 173 180 175 175 175 174 171 171 174 178 182 
180 176 168 155 143 139 142 128 146 161 163 162 164 165 161 164 
165 165 163 159 157 158 159 140 138 134 127 122 119 119 120 162 163 163 162 161 162 165 168 177 177 177 178 178 177 175 172 179 
172 170 174 173 168 169 175 170 172 173 172 171 170 170 171 177 
175 172 165 151 140 141 148 130 142 156 163 163 161 160 161 162 
160 157 156 155 153 151 149 137 133 126 121 117 113 110 107 163 164 164 164 163 163 166 168 170 168 168 172 177 179 177 174 176 
171 170 173 171 166 165 168 166 171 175 175 174 174 171 167 169 
166 165 161 151 142 147 160 150 149 152 159 162 161 163 168 162 
159 155 155 155 152 145 138 138 132 124 119 116 112 106 102 158 159 161 162 162 163 165 168 164 162 162 166 172 175 175 173 170 
169 171 173 171 166 162 161 169 175 177 175 175 177 173 167 169 
158 148 142 134 131 145 164 157 151 149 155 160 160 160 162 162 
159 158 161 162 158 147 138 137 131 123 117 114 110 105 101 152 154 157 158 159 160 163 165 165 164 164 165 168 170 170 169 165 
167 170 172 171 167 162 159 167 168 163 154 153 159 159 153 151 
128 106 94 86 86 105 129 136 141 149 156 159 157 153 149 154 
153 154 157 159 155 145 136 132 126 119 112 108 105 103 102 152 154 158 159 160 161 163 165 168 169 169 169 167 167 168 170 163 
166 168 169 169 167 164 161 162 156 139 119 116 127 133 131 115 
89 66 57 49 45 56 75 109 132 154 158 155 155 155 152 153 
151 149 148 147 142 134 128 126 122 116 108 102 101 103 106 156 159 162 163 163 163 165 166 169 171 173 172 169 168 171 175 163 
166 167 166 166 168 167 165 164 152 125 97 92 106 118 119 93 
71 55 53 48 36 35 46 95 131 160 159 151 155 164 166 161 
158 152 146 140 134 128 124 124 121 115 107 100 99 104 110 158 151 156 164 160 158 160 158 163 163 164 168 172 175 175 175 167 
165 164 165 169 171 169 167 168 162 154 148 144 143 141 140 124 
86 58 57 55 44 48 66 128 148 163 161 156 157 156 151 151 
150 146 140 137 134 125 115 112 108 105 104 103 100 98 98 151 155 157 159 161 160 158 157 159 160 162 166 169 170 167 165 165 
163 162 164 167 169 168 166 175 173 169 166 164 161 157 154 134 
103 73 59 45 41 68 105 141 156 165 160 155 157 157 152 145 
146 144 140 138 136 127 117 111 107 102 98 96 96 98 102 142 162 160 154 165 165 156 159 157 159 161 165 167 166 162 158 163 
162 162 163 166 167 166 165 173 173 174 175 174 169 163 158 140 
115 90 75 65 71 107 146 155 163 164 158 154 156 155 149 139 
139 137 133 131 129 120 111 109 105 98 92 90 92 96 98 131 165 163 152 168 168 155 161 160 160 162 164 167 166 163 161 163 
163 163 164 165 166 166 166 166 167 169 171 171 166 159 153 145 
127 112 108 110 118 135 153 160 163 161 156 154 155 152 145 141 
139 133 126 123 121 114 106 106 101 93 89 92 94 88 80 118 156 159 150 165 165 152 160 162 161 160 161 163 166 166 166 163 
164 165 165 166 166 167 168 167 168 168 170 169 165 159 154 144 
141 139 139 139 140 141 141 158 159 159 158 157 156 150 143 147 
142 133 123 120 121 117 111 103 97 91 91 98 97 78 56 106 138 151 150 159 157 149 156 162 159 157 157 160 163 164 165 162 
164 166 166 165 165 167 169 169 169 169 170 170 167 162 158 134 
148 157 151 144 144 148 150 154 155 157 158 158 154 148 142 139 
134 124 116 114 117 116 111 99 96 91 92 99 97 71 41 102 123 145 156 156 151 151 156 162 160 158 158 160 161 161 160 161 
163 165 165 164 163 166 168 165 166 169 172 173 171 165 161 149 
162 166 155 149 155 159 156 148 149 152 153 150 145 141 139 127 
124 117 109 108 109 106 99 95 96 93 90 93 91 69 43 103 116 145 163 156 151 156 159 164 163 162 162 163 162 159 156 159 
162 164 164 162 162 164 167 163 166 171 177 179 177 170 165 186 
186 175 160 160 168 160 141 143 144 145 145 141 135 133 134 126 
124 118 111 108 106 99 91 93 97 94 87 85 84 70 51 137 101 131 171 151 144 165 163 156 157 159 160 160 159 157 156 161 
161 159 159 164 168 161 150 158 166 170 161 144 132 131 135 176 
156 127 100 88 93 108 120 116 112 112 118 121 122 129 137 132 
119 110 109 105 97 96 102 96 81 78 90 90 70 54 51 128 106 109 141 162 157 151 154 157 157 158 159 160 160 160 160 163 
163 163 162 154 138 117 102 108 114 117 108 87 66 53 48 53 
42 28 20 22 29 36 40 59 54 56 70 89 106 122 134 117 
111 106 106 103 99 96 96 86 80 79 83 78 65 57 58 121 113 87 108 170 172 144 152 156 156 157 158 160 162 164 165 166 
162 163 163 149 122 100 92 95 103 114 121 122 119 115 112 75 
72 72 79 88 91 87 82 77 66 57 61 73 85 94 101 106 
107 106 102 101 100 94 88 77 79 79 72 62 58 60 65 116 106 73 86 149 166 148 156 154 154 155 156 158 162 165 167 168 
159 158 163 154 137 134 142 157 156 158 164 173 179 181 181 166 
167 170 174 176 173 165 158 159 147 132 120 111 104 100 97 104 
109 107 98 96 98 92 81 77 82 77 61 51 55 62 63 110 88 69 77 108 137 152 157 153 152 153 154 157 160 163 165 165 
156 156 163 163 159 169 187 189 180 170 167 170 170 165 160 156 
157 156 152 146 143 143 145 158 160 158 149 136 125 118 115 103 
106 102 91 89 92 89 79 81 82 71 53 48 56 61 58 111 83 79 85 85 112 149 158 152 153 153 155 156 158 160 161 160 
156 157 163 164 163 171 183 168 161 155 154 155 150 137 125 100 
100 98 91 86 90 102 113 114 127 138 138 130 124 118 115 99 
97 92 85 84 86 85 81 80 76 64 51 50 58 61 57 114 93 90 94 89 102 133 153 154 155 156 157 158 158 158 158 158 
159 160 161 161 161 163 165 163 157 151 148 143 130 109 93 78 
76 72 68 69 77 91 101 110 123 133 133 129 125 119 112 100 
93 88 87 85 81 79 80 68 63 56 52 54 59 63 64 111 100 91 94 98 97 112 141 156 157 159 160 160 159 157 156 159 
161 161 157 158 163 164 161 169 162 156 152 147 135 116 101 88 
83 78 76 79 86 94 99 101 109 114 115 116 117 111 102 107 
96 91 93 89 78 73 76 56 53 51 53 56 59 65 71 125 111 115 101 109 127 108 105 143 154 148 154 155 153 163 156 158 
160 160 159 156 156 160 163 157 153 151 154 156 147 129 114 98 
94 99 104 100 103 106 99 108 106 109 114 112 104 101 104 104 
100 93 82 70 63 67 74 38 61 53 52 60 64 78 78 134 121 132 129 133 135 109 105 132 155 153 152 151 150 161 153 159 
160 161 159 156 156 159 162 158 156 154 154 153 147 137 130 130 
124 126 125 114 112 112 104 109 106 106 109 106 100 98 101 95 
87 73 68 80 90 76 51 49 59 53 66 74 61 67 75 142 132 142 147 149 140 111 102 114 156 160 150 146 147 157 149 158 
159 159 157 155 155 156 158 158 158 157 154 151 150 149 150 149 
143 145 143 131 128 129 122 117 111 106 103 99 93 92 94 86 
84 76 75 97 112 83 37 49 48 45 75 87 60 60 72 146 141 142 142 145 137 108 86 93 158 169 151 143 145 154 147 156 
156 156 155 154 154 154 155 159 158 157 156 156 157 159 160 153 
148 150 149 138 136 138 132 125 118 108 100 93 89 87 87 74 
84 87 85 92 93 69 36 44 46 44 78 94 72 69 76 148 153 145 138 138 128 97 56 75 157 175 153 145 144 150 147 154 
154 154 155 156 157 156 156 160 157 155 157 162 164 162 159 157 
148 148 147 138 137 138 130 124 117 106 96 92 90 88 85 75 
76 75 72 66 58 50 44 53 64 60 80 97 86 82 76 150 162 152 146 135 109 76 30 59 152 175 155 149 142 145 147 150 
150 151 154 158 160 159 158 159 157 156 159 163 163 158 152 147 
136 136 138 137 141 141 132 113 108 100 92 90 92 90 85 92 
77 62 56 56 56 56 58 60 79 72 79 91 87 82 67 151 157 147 150 126 78 54 29 47 145 172 156 152 139 139 147 140 
141 143 148 154 157 157 156 157 158 159 159 158 155 151 148 134 
120 118 124 129 137 137 125 103 101 94 86 86 88 84 76 85 
77 63 55 60 67 64 55 54 75 70 77 88 83 79 66 149 147 134 144 112 50 41 41 40 140 168 156 154 137 134 147 131 
131 134 140 148 152 152 151 155 160 163 159 152 146 146 148 133 
115 109 113 117 124 120 104 100 98 91 83 81 82 75 64 53 
66 67 56 57 64 53 31 46 65 65 81 94 86 85 79 