P2
# Created by IrfanView
64 64
255
39 41 56 87 120 142 154 160 160 158 157 159 163 165 164 162 162 
163 165 167 167 167 166 165 163 162 162 161 161 160 160 159 159 
159 159 159 159 157 153 150 145 150 154 151 144 138 138 140 131 
138 141 134 127 125 125 125 110 94 69 47 38 35 29 21 45 47 63 94 127 149 161 165 164 162 160 160 162 163 161 159 163 
163 164 164 163 162 161 160 166 166 165 163 162 160 159 159 161 
159 159 160 162 161 157 153 145 145 145 145 144 142 138 135 132 
135 135 132 132 132 128 122 114 103 80 55 39 34 30 26 44 45 60 91 125 148 159 164 164 162 161 161 162 163 161 160 165 
165 164 163 161 160 159 158 167 166 165 163 161 159 157 157 161 
158 156 159 163 164 159 154 152 147 143 145 151 151 143 135 135 
133 130 131 138 141 133 121 120 112 91 63 41 33 31 30 44 42 53 83 118 143 156 162 160 160 160 162 163 165 165 165 167 
167 165 164 163 162 161 161 162 162 161 159 158 157 156 155 160 
156 153 156 160 161 157 151 157 151 147 149 154 154 145 137 139 
137 135 135 141 144 135 123 123 114 92 64 43 35 32 30 49 45 53 81 117 145 159 165 160 161 162 163 164 165 166 167 165 
165 165 165 164 164 163 163 159 159 159 159 159 158 158 158 163 
159 155 156 159 159 155 150 155 153 151 151 151 148 142 138 144 
145 144 142 141 141 135 127 124 111 87 61 44 38 33 28 49 44 52 82 119 146 159 164 164 165 166 165 163 162 163 164 162 
163 164 165 165 163 162 160 161 161 161 161 162 162 162 163 164 
163 160 159 159 158 156 154 156 158 159 158 154 150 147 146 148 
151 151 145 140 138 135 131 123 110 85 60 44 38 33 27 43 40 52 84 122 147 155 156 164 166 167 166 163 162 164 166 163 
165 167 168 167 164 160 158 163 163 163 163 163 162 162 162 161 
162 162 160 157 156 157 159 159 160 162 162 160 158 155 154 150 
152 149 142 138 137 135 132 122 113 91 63 43 35 32 30 41 40 55 91 129 151 156 154 160 163 166 166 164 164 167 170 168 
170 172 173 171 166 161 157 164 163 162 162 161 160 159 159 155 
158 160 158 154 153 156 161 156 155 156 159 161 160 157 154 152 
150 145 139 137 139 136 131 122 117 98 68 42 32 32 34 48 40 48 80 116 140 153 161 154 161 167 168 169 171 170 167 167 
174 179 175 167 162 165 170 159 162 163 160 155 154 159 164 155 
152 153 157 157 154 155 159 158 148 148 157 155 144 146 159 162 
148 136 136 141 140 135 131 117 108 100 82 53 38 35 28 43 42 56 89 123 143 153 159 160 164 166 163 164 168 170 168 169 
168 169 172 174 171 163 156 159 163 165 164 160 158 160 164 155 
156 157 156 156 154 152 151 143 131 125 126 120 108 112 126 137 
140 145 148 143 135 134 139 130 117 101 76 44 33 38 39 35 45 69 103 133 149 155 156 162 164 163 161 163 169 173 172 173 
172 173 177 178 173 163 154 149 154 159 160 157 155 155 156 152 
157 157 152 150 152 146 135 124 112 104 104 98 88 91 103 106 
116 133 143 140 133 132 138 123 117 115 99 69 50 42 33 30 52 86 119 144 156 158 156 159 163 164 163 166 171 171 168 162 
168 172 168 157 150 151 155 137 143 150 153 153 151 149 149 145 
153 153 144 143 147 136 118 100 87 80 84 84 77 77 82 98 
99 108 122 132 134 132 133 113 112 120 117 95 72 50 28 33 66 106 134 151 161 161 157 160 164 166 165 164 162 153 144 137 
139 136 128 118 117 126 136 128 133 141 148 151 151 150 150 143 
149 147 138 138 140 126 105 94 81 73 80 89 92 94 97 114 
108 105 111 117 121 126 131 126 114 109 106 93 81 65 45 46 86 126 145 153 160 161 156 161 163 162 158 155 148 135 123 128 
116 103 96 98 105 111 114 116 120 128 136 143 147 150 151 146 
146 141 135 134 131 114 93 81 76 78 92 108 121 132 141 131 
127 120 110 99 95 105 119 131 116 109 107 99 94 82 63 65 107 144 153 151 156 158 154 152 152 148 145 146 147 141 132 140 
129 114 106 105 108 110 111 107 110 116 126 136 145 151 154 150 
141 132 129 127 117 97 79 69 83 105 124 134 139 147 156 148 
140 129 115 99 88 88 94 109 104 110 116 110 104 94 77 79 121 155 157 149 152 155 151 140 138 135 135 144 155 159 156 153 
153 146 132 115 108 112 118 107 109 115 125 137 149 157 162 151 
136 125 124 120 104 82 68 99 129 166 184 178 163 157 158 165 
147 130 122 116 103 87 77 88 88 99 107 101 100 100 92 95 148 153 146 153 154 155 146 117 122 136 155 165 165 162 162 160 
159 164 167 155 132 117 115 111 122 132 138 144 152 157 158 147 
128 109 106 98 73 65 86 129 158 181 179 169 167 172 175 163 
171 150 120 113 114 99 83 79 87 97 104 109 110 104 96 103 154 155 146 152 150 149 140 132 150 160 153 150 160 168 167 192 
190 188 185 173 154 137 129 111 116 123 131 143 154 157 154 147 
133 111 95 81 64 71 101 161 197 210 182 157 154 145 126 136 
152 152 139 129 111 93 88 79 83 87 93 102 111 112 107 119 163 161 153 158 154 152 145 141 148 157 163 169 175 176 175 146 
144 135 119 108 108 112 115 101 104 111 123 143 158 159 153 149 
140 114 87 69 62 82 118 163 142 104 72 68 78 75 61 62 
80 97 111 119 107 97 101 79 81 83 88 101 114 117 114 128 167 161 155 162 157 156 151 160 142 150 179 178 135 96 87 53 
57 49 30 23 34 51 59 79 88 102 121 143 160 163 158 146 
136 107 78 65 63 78 104 96 50 36 69 85 56 31 31 39 
49 53 63 81 86 82 84 81 83 85 92 105 117 119 114 134 165 155 151 160 152 151 149 156 147 155 164 129 68 39 47 54 
48 35 26 33 47 46 35 57 76 101 123 142 157 163 163 142 
125 93 71 67 61 58 67 39 27 68 138 137 66 25 36 40 
56 52 39 51 70 78 81 83 84 86 91 103 116 121 118 145 168 154 152 160 150 148 148 133 141 131 89 39 26 67 115 103 
67 30 28 58 80 71 49 59 84 113 133 144 154 161 165 150 
128 98 85 85 73 60 64 75 80 113 152 144 92 52 45 43 
70 67 40 36 52 67 76 82 85 87 90 100 114 123 125 151 170 153 153 164 153 152 154 138 128 99 60 37 54 103 145 128 
84 44 45 75 95 87 72 91 113 137 149 153 158 163 166 163 
142 118 113 114 100 96 112 143 149 160 171 172 151 114 83 101 
109 93 64 53 52 54 60 79 89 99 105 110 117 121 120 146 163 146 149 162 153 153 158 153 117 99 123 154 162 157 155 166 
142 127 135 147 142 126 116 125 141 157 163 163 164 167 167 168 
149 132 131 132 120 130 163 165 166 162 153 149 150 149 145 151 
134 105 93 100 100 92 94 77 95 116 126 126 123 115 108 145 157 157 154 161 163 162 167 157 153 157 168 174 168 158 154 154 
141 134 136 134 123 118 121 138 152 163 162 159 163 169 171 158 
150 145 143 136 131 142 161 158 146 142 146 145 135 130 133 122 
126 133 140 144 142 136 131 121 120 122 128 133 128 114 102 142 155 157 155 162 164 162 167 159 156 159 165 165 159 155 156 152 
141 136 138 134 123 118 122 146 157 165 163 160 164 170 173 166 
153 144 144 142 139 144 155 148 142 145 156 158 149 142 144 153 
151 149 147 145 145 146 147 136 135 134 132 129 121 111 104 135 150 154 154 161 162 159 164 166 165 165 165 161 157 158 163 161 
154 150 150 145 135 134 140 158 164 166 162 160 164 171 176 174 
157 143 144 148 147 146 149 147 143 147 157 160 154 150 153 157 
155 151 145 139 137 141 145 135 135 133 129 123 117 114 112 127 144 151 152 158 158 156 161 168 166 165 163 161 160 161 163 164 
159 156 154 148 144 148 157 167 167 165 160 159 163 171 176 176 
159 146 145 150 149 146 145 157 151 147 148 147 144 146 150 138 
143 147 145 139 134 135 137 130 127 124 121 117 114 110 108 125 144 152 152 158 158 156 161 161 158 156 156 160 162 160 155 154 
151 147 144 141 142 151 160 170 166 161 158 158 162 168 174 171 
159 148 145 146 145 145 145 161 156 150 147 142 138 138 141 135 
142 150 151 146 141 140 141 136 130 122 119 118 113 103 94 127 146 154 154 159 158 157 164 159 157 155 156 162 167 163 155 156 
154 151 148 149 153 161 167 169 162 156 156 159 161 166 172 165 
158 148 142 141 143 146 147 153 155 157 156 152 146 141 140 144 
147 150 148 144 140 139 140 136 129 122 121 122 118 107 96 127 146 154 153 156 155 155 163 161 163 161 159 162 168 167 162 164 
163 162 163 166 169 171 171 166 158 153 157 162 163 166 170 164 
155 144 138 139 145 148 149 148 154 160 162 159 156 153 151 153 
153 152 150 146 142 138 136 131 126 120 118 117 113 106 100 125 144 151 149 152 151 152 160 159 164 163 157 155 161 165 164 161 
162 163 165 170 171 167 162 164 155 152 158 164 165 166 170 165 
154 141 135 140 148 151 149 152 156 160 158 157 159 161 163 163 
163 165 166 163 156 147 140 133 130 123 114 105 97 92 90 145 146 147 148 147 149 152 154 154 155 157 158 159 160 160 161 161 
175 165 155 168 172 164 167 160 155 151 153 160 165 165 163 149 
151 148 141 141 149 152 151 138 164 158 166 165 147 158 160 162 
163 156 146 148 156 153 142 136 128 118 110 105 99 90 83 139 140 140 139 140 144 149 154 154 154 155 157 160 161 161 160 166 
171 168 167 171 167 163 168 161 158 154 154 158 161 162 161 165 
154 144 140 136 134 142 153 152 163 148 155 163 156 162 152 154 
160 159 154 154 156 145 130 127 120 110 103 99 94 86 80 143 142 141 139 140 145 151 157 154 152 152 156 160 163 161 159 167 
160 164 169 164 162 167 168 157 156 155 155 157 160 163 164 169 
147 130 127 118 105 108 124 147 158 152 157 161 161 165 152 150 
156 157 153 151 149 137 122 114 108 101 95 93 89 84 80 145 145 144 143 143 145 150 154 153 151 151 154 160 163 161 158 161 
150 156 159 153 164 174 161 149 151 153 155 157 162 168 172 157 
133 113 108 104 93 87 90 118 142 164 167 154 151 159 155 152 
153 149 142 139 139 133 125 110 105 98 93 89 86 83 80 133 135 138 140 140 142 145 147 152 151 151 154 159 161 159 157 154 
151 159 159 156 173 173 143 150 152 154 156 158 163 169 173 149 
130 109 104 116 127 123 112 108 125 160 165 145 143 150 153 151 
150 144 137 134 134 132 128 118 112 104 95 88 83 79 76 125 129 134 139 141 143 145 147 151 152 154 155 156 157 157 157 154 
159 167 168 168 172 158 130 162 160 158 158 159 161 163 165 150 
135 117 117 142 170 174 162 126 112 140 153 144 149 150 150 144 
145 144 141 137 132 126 122 124 118 108 96 86 78 74 72 133 136 139 141 142 144 147 149 149 153 157 157 154 152 154 157 157 
159 159 163 164 149 135 137 174 169 163 160 160 160 158 156 144 
129 118 127 148 162 162 156 122 87 117 142 142 150 146 147 138 
139 140 138 132 123 116 112 115 111 102 92 83 78 75 75 143 143 143 141 139 140 143 145 149 155 159 158 152 149 153 158 159 
152 141 148 150 123 119 153 179 172 164 160 161 161 157 152 132 
115 112 129 136 124 111 108 92 56 98 134 133 137 133 139 137 
135 132 128 121 112 107 106 101 98 93 86 81 80 81 83 126 138 149 147 137 131 135 143 152 153 155 155 154 151 147 145 162 
139 141 158 140 100 101 135 123 97 129 173 161 142 148 150 121 
91 81 94 81 45 35 54 56 41 55 102 138 140 135 139 127 
130 129 122 113 110 116 122 107 100 92 87 83 78 73 71 132 137 140 139 135 134 138 142 155 153 149 145 143 144 145 146 149 
145 141 132 113 95 94 104 55 26 55 116 138 138 131 109 77 
61 53 54 45 30 29 41 33 43 64 90 110 121 128 131 127 
126 123 118 111 106 104 104 98 94 89 82 75 72 73 76 132 128 124 124 127 131 134 135 148 146 143 141 141 142 144 146 138 
141 136 122 111 113 120 125 121 80 75 100 110 106 83 46 53 
55 51 41 34 35 37 37 32 70 101 105 107 121 131 130 123 
120 116 113 110 104 96 90 88 88 83 75 68 67 73 79 130 125 120 120 124 130 132 132 134 136 140 144 146 146 144 143 135 
130 127 125 122 127 148 170 181 155 139 129 114 102 81 51 57 
65 65 56 48 47 45 41 56 98 130 130 123 129 132 126 115 
113 110 108 106 101 96 91 84 84 79 72 69 71 74 74 129 129 128 128 129 132 135 137 129 132 136 139 141 140 139 138 131 
130 123 113 112 127 153 174 156 157 157 147 132 120 100 75 61 
57 54 53 47 42 44 51 80 101 120 125 124 124 122 116 110 
110 107 102 96 93 93 94 84 82 77 72 74 78 74 66 126 129 131 131 129 129 133 136 136 133 130 127 126 127 129 130 124 
136 127 102 107 144 166 163 158 159 150 140 137 132 111 88 71 
52 39 41 43 44 58 78 102 101 104 111 118 122 121 119 113 
111 105 96 87 83 85 87 83 81 75 71 76 82 74 61 126 127 126 125 125 126 129 131 137 134 129 125 122 121 121 122 123 
128 117 106 126 164 177 163 164 161 147 138 147 148 131 115 91 
68 48 45 51 63 82 100 110 110 110 112 119 126 125 121 120 
113 104 95 88 84 81 79 77 78 74 67 70 78 74 63 133 129 125 124 125 128 130 131 130 131 132 131 128 124 120 117 128 
108 97 111 142 163 165 158 151 160 156 154 160 150 126 111 103 
85 63 54 61 76 91 99 102 114 119 116 118 124 120 107 125 
115 102 96 95 91 84 77 71 76 72 63 63 72 74 67 123 126 127 124 123 131 144 153 130 128 129 131 126 120 124 133 122 
107 104 126 155 166 160 152 155 152 154 159 154 139 126 121 115 
107 96 87 84 86 88 89 102 110 116 117 114 112 110 109 98 
110 102 79 82 104 97 68 73 76 63 61 78 76 69 81 136 133 127 120 118 120 124 127 116 126 126 114 109 117 121 118 117 
116 124 143 158 163 163 164 161 156 152 149 141 130 126 128 112 
112 103 91 90 101 109 110 101 104 107 111 113 114 112 109 96 
97 90 80 79 84 76 61 68 69 59 61 77 75 72 88 134 127 121 118 118 119 119 119 119 122 121 114 110 113 118 120 89 
102 124 146 155 150 142 137 139 142 145 143 135 128 130 136 113 
121 122 114 109 108 103 95 102 98 97 102 109 111 106 101 102 
93 89 92 88 75 67 68 64 64 60 66 75 72 78 101 126 122 120 121 122 122 124 128 134 115 112 126 123 107 112 135 138 
136 135 137 140 139 136 135 146 147 143 132 119 113 121 131 99 
97 100 107 109 102 95 93 103 96 93 100 108 108 103 99 106 
99 98 102 96 81 75 79 64 66 69 73 70 67 85 113 128 126 127 127 122 117 121 129 135 115 112 127 126 110 115 137 124 
129 133 132 127 124 124 124 121 119 111 99 94 103 124 140 117 
87 71 80 85 75 77 92 82 77 78 87 94 97 99 103 108 
109 107 100 91 83 77 75 65 69 78 76 63 64 91 118 126 124 125 127 120 113 119 131 129 130 127 123 124 130 135 135 128 
134 128 103 73 56 53 55 59 66 71 72 77 85 93 97 90 
61 46 58 59 44 41 54 44 44 49 56 59 63 81 101 120 
123 116 98 86 83 77 68 65 69 78 72 58 72 103 118 126 119 118 122 120 114 119 130 133 139 138 131 134 146 149 142 131 
116 89 65 65 91 122 142 137 144 149 150 149 142 126 110 68 
66 72 82 81 67 56 54 49 51 54 50 39 42 74 109 138 
133 120 103 91 86 81 75 69 69 73 66 62 94 124 121 137 124 118 121 120 114 114 121 140 134 134 141 145 144 146 152 155 
133 109 106 131 159 165 156 178 175 170 166 171 174 166 152 173 
184 184 166 145 129 113 98 93 94 92 76 51 50 88 133 147 
133 118 106 96 87 84 85 74 69 70 63 70 114 141 125 134 125 120 122 120 116 122 133 133 138 143 137 133 147 157 147 149 
148 144 142 150 158 156 146 152 161 165 161 154 152 150 147 159 
156 157 148 130 125 127 122 109 101 110 118 89 59 87 146 151 
138 117 102 96 93 81 68 70 77 79 68 112 144 118 126 125 120 117 118 119 118 121 125 120 131 151 152 136 135 148 153 144 
145 143 143 150 157 155 148 146 151 156 155 150 145 143 145 149 
143 142 134 116 111 112 106 107 105 111 113 99 85 99 126 145 
131 108 91 86 86 80 71 77 67 63 80 129 149 126 122 126 125 121 117 118 120 117 112 116 122 142 149 133 127 142 154 143 
145 147 148 152 155 153 149 154 151 151 152 142 127 122 126 121 
113 113 111 101 100 102 97 106 112 114 112 113 115 113 108 127 
117 100 87 85 87 83 75 75 59 59 108 142 134 126 121 125 127 122 116 120 129 127 116 128 121 125 130 127 133 144 145 144 
148 151 154 155 154 152 149 164 154 151 152 140 119 111 117 107 
97 97 100 94 95 99 95 106 115 119 118 121 126 118 105 105 
103 98 93 93 93 86 77 72 64 77 142 151 114 123 128 118 120 117 114 123 137 140 133 141 130 125 124 125 138 145 135 139 
142 147 153 156 154 152 152 158 147 144 147 138 119 112 118 114 
100 98 100 93 90 93 91 104 111 119 121 119 114 111 110 98 
99 97 92 90 89 83 76 76 70 85 151 158 119 128 133 123 122 118 117 123 132 135 133 142 128 126 130 129 133 138 133 133 
133 139 149 155 155 154 154 148 139 134 133 124 109 101 103 105 
92 93 97 90 87 93 95 102 107 116 119 111 100 101 108 103 
101 94 83 77 77 77 74 78 62 63 114 150 142 133 126 127 124 123 125 127 126 127 131 138 99 90 116 128 126 129 134 139 
134 137 148 157 157 155 154 145 141 135 127 118 108 100 95 97 
86 90 98 92 90 101 108 105 110 115 114 108 102 99 99 100 
99 92 81 73 73 73 72 78 56 42 65 129 159 134 123 118 115 121 131 134 131 134 143 137 64 41 89 124 122 124 136 150 
142 141 152 160 158 154 152 146 147 142 134 129 127 121 114 110 
99 104 110 100 96 108 117 110 117 117 110 110 112 104 90 90 
94 93 86 79 76 74 71 81 63 43 41 114 167 137 132 