P2
# Created by IrfanView
64 64
255
28 32 37 39 42 52 68 80 95 113 137 158 176 190 200 204 209 
220 223 228 241 244 239 242 239 243 247 249 246 242 244 248 251 
248 244 243 245 248 249 249 242 248 250 245 243 247 249 247 249 
250 249 247 246 246 242 238 237 236 241 243 232 217 218 231 25 29 33 36 42 53 70 82 96 115 140 161 176 188 198 204 216 
223 221 222 234 238 238 244 241 243 246 248 247 246 247 250 243 
243 245 248 249 248 244 241 243 250 253 250 248 247 244 238 249 
245 243 245 247 247 245 243 236 235 238 240 230 217 217 227 21 24 27 32 40 55 72 84 95 113 138 158 170 181 194 205 212 
219 218 221 233 236 237 246 242 243 244 245 245 247 248 248 243 
244 245 248 249 247 243 239 248 250 247 243 243 247 250 250 251 
241 236 242 246 244 242 244 239 236 237 239 232 220 219 225 18 19 21 27 38 54 71 82 94 107 125 139 144 151 167 182 192 
201 206 215 229 231 232 242 243 245 245 243 243 245 245 242 252 
249 246 245 245 245 244 242 248 247 244 240 239 241 243 244 236 
224 221 233 242 240 240 244 242 239 240 241 236 227 224 227 16 15 16 23 36 51 65 74 84 92 104 111 111 112 125 142 164 
169 171 180 195 200 209 227 239 245 247 244 243 245 243 238 252 
250 247 245 243 240 235 232 226 226 226 221 213 205 201 202 206 
200 204 219 230 231 231 234 237 238 241 242 238 230 226 226 17 14 14 20 33 46 56 61 59 67 84 100 102 99 107 119 128 
125 115 117 132 145 167 196 223 237 246 246 244 246 245 239 242 
245 249 250 245 234 219 209 195 186 172 156 143 142 156 172 189 
194 203 212 217 215 209 204 225 231 238 239 234 227 222 221 19 15 13 18 30 41 46 47 39 52 80 105 110 98 92 95 81 
72 58 58 73 92 123 160 194 217 236 241 241 245 246 241 242 
245 249 250 243 228 209 196 184 167 141 113 93 96 124 154 174 
193 209 214 214 213 203 190 212 224 236 238 231 223 219 218 21 16 13 18 29 37 40 39 37 53 85 113 112 87 63 56 42 
35 23 26 44 64 96 135 170 199 225 234 236 242 245 241 249 
250 250 247 238 224 207 196 190 179 159 130 100 87 103 126 151 
182 208 216 222 228 221 205 206 221 236 238 230 222 218 217 16 12 8 20 37 36 29 35 30 76 107 109 108 104 96 94 78 
65 57 53 53 62 87 116 139 168 187 207 236 242 239 252 247 
246 244 241 234 221 205 194 193 192 174 166 157 156 161 137 138 
160 184 198 222 238 226 224 218 223 229 235 241 237 221 204 20 17 11 19 33 31 27 36 55 87 111 120 131 138 145 156 154 
152 146 147 123 86 77 79 112 143 171 192 214 228 231 233 246 
247 246 240 229 216 206 201 188 203 209 228 234 225 226 212 196 
187 191 200 211 220 230 248 225 228 230 234 238 236 221 205 21 19 13 18 29 27 29 45 75 106 127 134 142 152 169 192 211 
223 212 228 227 192 155 101 99 117 146 169 188 215 234 233 245 
247 247 240 228 219 214 214 231 244 238 248 252 238 243 247 242 
214 199 204 210 221 236 240 232 232 232 233 236 234 221 207 16 17 14 18 26 27 37 58 83 120 138 131 138 161 192 217 211 
255 251 249 242 230 221 168 138 122 132 155 170 202 234 240 244 
245 245 242 235 228 223 220 224 240 230 235 244 241 253 255 254 
249 238 230 216 219 236 227 232 232 232 233 236 235 222 208 15 18 16 19 27 29 42 67 91 126 134 122 143 184 209 214 206 
224 209 208 219 237 255 240 192 144 131 152 166 188 220 235 246 
244 242 242 241 234 221 211 221 235 219 206 196 185 188 177 198 
229 245 254 231 209 229 233 228 229 231 234 239 237 224 210 17 20 19 23 31 32 45 70 99 125 128 122 144 165 147 117 94 
80 78 93 116 145 184 220 200 152 127 145 166 185 212 234 249 
245 242 242 242 232 214 198 197 177 134 93 49 39 63 60 74 
118 148 212 244 222 223 220 227 229 231 235 241 240 228 214 15 18 19 26 37 39 50 73 106 119 114 104 103 90 58 36 15 
19 59 58 59 89 119 178 185 158 129 130 159 189 215 240 248 
246 245 244 241 230 214 201 188 148 118 95 37 24 74 89 29 
85 82 127 201 221 226 207 233 233 233 235 241 242 232 220 9 14 17 28 42 46 56 79 115 112 93 68 46 27 31 54 22 
6 37 41 100 172 139 123 185 177 139 118 147 186 214 240 245 
247 248 247 242 232 221 214 195 160 169 174 86 19 34 32 94 
174 119 74 124 187 233 225 240 238 235 235 240 243 235 224 23 12 16 35 46 48 62 83 100 86 78 49 25 64 113 112 54 
27 24 48 150 237 178 93 133 201 156 111 147 192 228 238 240 
245 247 245 244 244 241 236 212 198 195 177 123 77 72 86 153 
203 214 186 172 176 193 218 235 237 236 236 240 243 238 231 20 14 22 41 51 56 73 97 100 93 96 82 65 101 149 154 125 
102 107 141 194 222 194 168 168 202 165 128 154 191 222 244 242 
246 247 245 244 245 242 238 221 213 219 221 199 182 189 199 223 
242 241 223 217 221 223 225 241 245 246 242 238 237 233 229 16 16 27 46 60 72 96 121 132 127 135 131 117 138 174 182 180 
174 177 208 219 204 209 216 204 195 174 147 161 195 220 252 245 
248 248 244 244 246 245 242 243 233 235 239 232 232 237 234 252 
248 248 246 243 247 248 237 241 248 250 243 235 231 229 227 16 16 25 45 69 94 124 148 172 163 168 169 158 165 185 192 197 
211 201 215 218 211 228 218 216 185 180 159 165 203 223 252 248 
250 248 244 244 247 248 245 246 238 239 241 241 252 255 247 242 
234 246 253 240 241 250 246 237 243 244 239 234 231 229 226 18 13 17 38 75 116 150 169 189 179 179 184 184 188 199 206 209 
227 212 218 225 228 244 223 212 184 186 165 168 210 228 244 249 
251 249 244 244 248 249 247 246 243 245 243 241 251 255 248 249 
239 251 255 242 238 247 244 240 241 239 236 235 235 229 221 17 12 12 33 77 128 164 180 195 191 189 192 198 203 209 217 222 
226 222 230 231 226 233 231 206 192 187 171 174 208 229 236 248 
250 249 245 245 248 250 248 253 249 251 246 236 237 242 235 252 
243 245 251 249 249 248 241 247 246 242 237 236 235 227 217 12 12 15 34 77 130 167 182 199 208 208 204 207 211 216 226 227 
221 231 231 227 222 213 221 199 196 177 173 180 197 227 237 246 
249 248 245 245 249 249 247 249 243 250 254 248 249 255 254 242 
245 241 240 251 253 248 246 248 249 246 239 234 230 223 215 7 12 20 38 76 127 165 179 195 216 221 213 214 218 226 238 232 
226 241 225 224 234 209 206 192 193 163 172 184 186 224 242 245 
248 248 245 246 249 249 246 254 244 248 254 246 241 244 243 241 
255 255 245 251 249 245 254 241 247 247 238 229 224 220 216 10 16 18 30 72 129 165 172 203 216 225 224 220 222 227 231 235 
232 225 237 236 229 226 199 176 175 169 163 170 195 222 237 245 
246 247 246 244 245 247 249 244 244 245 246 248 249 250 250 249 
249 249 249 249 249 249 249 246 248 246 239 234 228 218 208 27 12 6 28 72 119 154 171 205 218 229 229 225 226 229 231 232 
232 227 238 235 226 221 192 172 163 153 151 166 194 221 237 246 
247 248 248 246 245 246 247 246 247 248 249 249 249 249 249 249 
249 249 249 249 249 249 249 246 247 245 238 232 226 216 205 49 13 0 26 68 102 136 165 196 211 226 230 230 231 232 233 229 
232 230 239 233 222 215 184 172 153 137 141 164 196 223 239 244 
246 248 248 245 243 243 243 246 248 250 251 251 250 248 247 249 
249 249 249 249 249 249 249 245 247 244 237 230 223 212 202 53 19 2 23 57 86 121 153 177 195 214 224 228 232 234 233 229 
234 230 237 231 221 213 180 165 143 124 129 157 192 221 238 242 
244 247 246 244 241 239 239 242 244 248 251 251 250 248 247 248 
248 248 248 248 248 248 248 245 246 242 235 227 220 209 198 36 21 11 19 43 76 115 143 163 181 202 215 223 229 232 231 231 
235 230 235 231 223 213 176 144 131 118 120 144 182 216 234 242 
245 247 247 244 241 240 239 235 238 243 247 249 249 248 247 248 
248 248 248 248 248 248 248 243 244 241 233 226 218 207 196 16 18 15 14 30 67 109 135 158 175 194 207 216 224 227 226 234 
237 229 234 232 225 210 165 129 137 135 127 139 177 216 236 244 
246 248 248 246 243 243 243 232 234 238 243 246 247 248 248 247 
247 247 247 247 247 247 247 242 243 240 232 225 217 206 195 14 15 12 10 21 52 94 122 152 167 184 197 209 219 225 225 235 
237 230 236 236 226 202 149 130 160 168 145 138 171 213 233 243 
244 245 245 243 242 243 244 233 234 237 240 243 245 246 247 247 
247 247 247 247 247 247 247 241 242 239 232 225 218 207 196 22 15 8 8 16 39 78 111 143 157 175 189 203 217 225 227 235 
237 230 238 238 226 195 135 134 177 190 155 132 160 201 221 239 
240 240 240 238 238 240 242 236 236 238 240 242 244 245 246 247 
247 247 247 247 247 247 247 240 242 239 232 225 218 207 197 38 15 5 15 20 26 57 97 119 141 170 188 197 204 217 229 228 
234 239 235 233 225 174 104 125 165 176 152 139 152 178 202 213 
223 237 229 218 237 248 227 241 240 238 238 240 243 247 250 247 
248 249 250 249 247 244 243 241 242 234 228 227 214 202 203 49 21 3 8 18 31 58 87 115 134 160 179 190 202 216 228 229 
232 237 236 234 219 157 80 96 142 151 113 94 112 143 164 183 
183 191 197 200 217 236 243 237 238 238 237 237 240 246 250 246 
246 247 247 246 245 243 242 237 240 235 231 230 216 203 205 41 24 9 8 15 30 55 78 104 119 142 163 180 197 213 223 228 
229 234 236 233 211 141 61 72 113 110 57 28 44 76 97 136 
141 141 130 110 101 135 189 222 230 239 243 243 243 245 249 245 
245 244 243 243 242 241 241 235 239 235 233 230 213 200 204 24 24 20 14 13 25 50 71 87 101 125 150 173 193 209 218 227 
227 232 235 229 207 147 78 39 71 71 35 9 7 23 41 52 
74 81 73 58 43 72 133 207 223 242 253 253 248 246 246 245 
245 243 242 241 241 241 241 237 239 235 231 225 206 195 204 38 32 21 11 12 27 48 61 73 89 115 144 171 192 206 214 228 
228 234 235 226 210 173 128 62 78 90 93 86 69 69 89 125 
143 146 151 166 168 172 193 215 229 246 254 253 248 246 246 246 
245 244 243 242 242 242 242 239 240 234 229 222 203 198 213 73 46 15 3 13 32 45 51 68 85 112 141 167 188 203 211 226 
226 232 232 222 214 199 175 147 138 135 150 158 147 155 186 220 
221 204 186 191 207 219 228 236 242 247 248 245 242 244 247 246 
246 245 245 244 243 242 242 240 240 235 230 222 204 203 224 80 51 20 9 14 23 35 46 67 83 108 134 156 176 193 204 218 
216 222 223 214 211 207 194 186 171 158 166 176 172 183 212 232 
222 205 182 170 192 228 245 243 245 247 247 244 243 243 244 244 
245 246 246 245 243 241 240 240 241 236 232 221 199 198 220 61 46 33 24 13 9 24 47 67 82 104 126 145 164 183 196 210 
205 210 213 206 204 202 192 177 180 184 196 206 196 189 199 235 
213 207 207 202 217 238 235 234 239 246 251 252 249 243 239 243 
244 245 246 245 243 240 238 241 242 238 233 218 191 187 208 78 52 83 101 45 6 23 38 59 76 101 124 143 160 178 190 196 
201 206 206 203 201 199 196 190 187 191 201 204 200 198 201 218 
213 206 201 202 212 229 243 245 236 232 239 244 244 244 247 246 
245 245 244 243 240 236 232 237 239 236 223 205 191 187 188 163 140 158 163 92 23 19 38 59 73 95 117 136 153 168 178 188 
192 198 203 208 210 210 208 218 215 205 192 190 197 201 199 206 
191 179 182 195 207 211 209 216 227 243 250 242 233 238 252 246 
245 243 243 243 243 242 242 239 237 231 220 206 194 188 185 204 191 201 202 134 42 13 39 55 65 84 106 130 150 165 173 188 
191 197 204 209 209 205 203 188 191 179 160 164 189 206 205 219 
210 203 208 220 227 223 215 219 212 213 224 232 232 234 241 243 
242 239 238 237 239 241 242 239 234 226 217 207 197 188 183 194 189 195 204 159 63 14 36 51 58 74 98 126 151 167 175 173 
177 183 186 178 164 153 150 154 157 151 141 149 175 196 202 225 
234 240 234 224 216 211 209 216 197 187 200 215 220 223 229 239 
239 238 237 235 234 235 236 236 232 225 214 203 194 188 186 198 196 195 204 182 96 27 25 54 58 70 91 118 143 159 167 157 
161 165 160 139 112 96 94 119 111 103 98 98 105 120 134 170 
188 199 188 168 153 146 142 148 154 165 168 154 148 174 211 227 
231 236 238 237 234 233 233 232 231 225 212 197 188 188 192 204 205 197 202 196 133 51 15 58 60 68 84 107 130 146 154 136 
132 127 115 89 60 47 49 48 40 37 40 42 47 63 80 110 
124 135 135 133 130 120 108 92 95 99 92 71 69 114 168 206 
215 226 233 234 231 230 229 231 230 223 208 192 185 189 197 195 201 196 195 200 165 84 16 49 52 61 78 101 126 146 158 129 
108 84 63 38 16 9 14 12 25 43 60 78 98 117 128 128 
141 152 159 169 175 167 152 132 109 93 93 94 98 125 158 198 
209 222 230 232 230 229 230 234 228 217 202 189 186 191 197 191 201 200 196 203 186 109 24 35 41 54 74 101 131 157 172 165 
129 87 58 36 19 15 21 23 57 93 118 145 176 190 188 188 
204 216 217 217 220 214 203 209 186 178 195 204 196 190 195 207 
217 229 236 237 235 235 236 238 227 211 197 189 188 192 196 190 199 202 201 194 197 159 56 18 40 58 50 74 123 153 185 179 
168 155 137 105 67 41 33 47 60 88 120 139 149 166 186 190 
202 219 232 234 224 209 198 179 192 209 224 232 232 229 227 234 
233 233 235 235 234 234 235 227 224 211 194 186 190 192 190 193 198 199 202 198 205 181 97 25 30 43 42 62 102 137 181 192 
190 190 186 161 117 75 52 46 50 69 99 122 134 148 162 184 
188 194 199 202 201 199 197 206 211 219 227 231 235 238 241 241 
238 236 235 234 233 231 231 229 216 199 188 189 194 194 190 199 198 195 201 200 208 200 145 48 24 28 35 47 71 112 172 182 
185 195 204 193 156 108 74 60 55 63 86 110 125 135 144 159 
161 165 172 183 195 206 213 228 231 234 236 237 240 244 247 242 
239 235 232 231 231 229 227 226 204 184 183 192 198 195 190 204 201 193 201 199 201 205 175 81 26 17 31 35 44 85 155 175 
177 184 195 200 184 150 120 95 87 88 102 120 133 144 151 148 
154 165 179 195 210 221 227 233 237 244 247 247 244 242 241 238 
236 230 226 226 229 227 223 212 193 179 183 194 197 193 190 205 204 195 203 201 196 203 190 110 28 7 26 26 27 63 129 166 
169 171 177 186 187 171 150 131 128 127 133 143 153 165 174 175 
182 193 206 217 225 229 231 234 240 246 250 249 246 243 241 239 
238 231 224 223 226 221 213 193 187 185 189 193 193 191 190 200 206 198 206 207 199 205 200 130 30 0 19 20 19 46 96 149 
162 170 170 175 180 172 157 154 155 158 161 166 174 186 195 207 
211 217 225 231 236 239 240 242 243 245 244 244 245 247 250 245 
243 235 224 221 221 212 199 181 191 198 196 192 192 192 192 196 209 200 206 211 202 207 204 151 40 1 15 17 18 32 59 127 
155 176 176 176 182 180 170 163 168 174 179 186 196 205 211 222 
225 229 235 241 245 247 248 245 245 243 241 240 243 248 252 242 
241 232 220 216 215 203 186 180 200 210 199 191 195 198 194 195 211 202 205 210 202 205 202 168 53 7 17 17 18 22 33 89 
127 157 160 159 168 173 169 166 172 179 188 200 211 219 221 229 
233 239 244 247 246 244 242 241 242 242 242 241 241 244 247 233 
234 226 214 211 211 197 179 184 208 217 200 190 199 203 196 197 202 207 207 205 204 208 212 179 65 9 14 6 9 21 13 51 
96 142 161 166 171 173 169 172 172 178 190 197 201 209 220 233 
235 240 246 249 248 244 240 243 244 245 246 243 240 241 244 234 
239 224 213 211 190 173 184 206 224 231 191 185 206 192 194 196 200 205 205 202 201 204 208 177 73 4 9 8 5 20 15 28 
65 107 135 154 170 174 169 170 170 176 188 198 205 214 224 226 
230 236 241 244 244 242 240 241 243 245 247 246 244 243 245 241 
228 212 212 209 180 171 198 225 225 222 193 192 203 186 191 198 201 205 204 202 201 202 205 183 91 3 8 13 0 16 14 14 
37 71 105 140 168 180 178 179 178 181 190 200 208 215 221 227 
233 240 243 243 242 243 245 245 246 247 247 247 247 245 244 231 
222 205 194 184 169 180 214 242 228 215 198 201 202 186 193 202 205 207 206 204 203 204 205 194 109 10 12 20 0 11 10 13 
23 43 74 114 152 176 186 178 177 180 189 200 210 217 220 230 
236 243 244 241 240 243 247 246 246 244 242 243 245 242 237 216 
221 203 170 159 178 208 229 238 230 214 199 199 196 187 192 205 206 207 207 206 204 204 205 190 104 13 13 21 0 6 8 10 
11 21 43 75 114 152 178 163 167 174 185 198 212 221 225 223 
228 233 234 232 233 239 244 243 243 240 236 239 243 238 229 215 
202 179 160 168 204 233 239 229 235 215 195 191 190 189 188 204 205 205 206 205 205 204 203 170 73 9 10 16 9 5 8 9 
6 9 22 42 72 115 149 158 168 178 187 198 210 219 222 215 
218 222 223 225 229 236 241 240 242 240 237 240 242 231 215 201 
156 140 167 199 223 236 236 236 239 207 189 191 192 197 190 205 205 206 206 207 207 206 205 148 37 6 8 11 20 4 9 12 
7 7 15 22 37 69 102 140 155 171 180 188 201 211 215 212 
211 211 212 215 219 225 228 230 234 234 230 229 223 199 174 151 
122 139 191 220 230 236 233 244 222 172 172 193 195 202 193 208 208 208 209 211 211 210 209 138 17 7 8 7 27 4 9 13 
6 6 10 10 11 32 58 101 123 147 161 174 192 208 215 209 
205 201 199 201 205 207 208 212 218 219 213 207 192 158 125 101 
118 171 218 227 235 245 239 240 193 129 148 188 191 198 191 