P2
# Created by IrfanView
64 64
255
2 4 3 3 11 25 37 41 46 48 53 59 64 69 73 74 82 
88 97 106 116 126 135 141 146 149 152 152 150 150 153 156 157 
156 154 152 151 151 152 152 144 144 144 145 145 142 137 133 120 
118 115 111 106 102 99 97 98 93 82 69 57 49 45 44 3 4 4 3 11 26 38 42 49 51 55 61 66 71 75 76 82 
86 93 101 111 122 134 141 146 150 154 156 156 157 162 166 158 
157 155 152 150 149 149 149 141 141 141 142 142 140 136 133 124 
123 120 116 111 107 103 102 98 93 85 73 62 52 46 44 4 5 4 4 12 27 39 44 52 54 58 63 68 73 77 79 84 
87 91 98 108 120 133 142 147 151 156 158 159 161 165 170 161 
159 156 153 149 147 146 145 137 136 136 138 139 138 135 132 127 
125 123 119 114 110 106 104 97 95 89 80 70 59 50 45 5 6 5 4 12 28 41 46 53 55 59 63 69 74 78 80 84 
87 93 100 110 121 133 141 148 151 155 156 155 156 160 164 163 
161 158 154 149 145 143 141 133 132 132 132 134 134 132 130 124 
123 121 118 113 108 104 101 98 96 93 88 79 68 56 48 6 7 5 5 13 29 43 49 52 54 57 62 68 74 79 82 82 
87 94 103 112 122 131 138 146 149 153 154 154 154 158 162 164 
162 159 155 150 145 142 140 133 130 128 128 129 129 128 127 122 
121 120 117 112 107 102 99 98 97 95 92 86 75 63 54 8 8 6 5 14 30 45 51 51 52 55 60 67 74 80 84 82 
87 96 105 113 122 131 136 145 149 154 156 156 158 163 167 163 
162 160 156 152 147 143 141 134 131 127 125 125 125 124 123 121 
121 120 117 113 107 102 98 97 95 93 91 88 79 68 59 8 9 6 5 14 31 46 53 50 51 55 60 68 76 83 87 89 
93 100 107 116 126 136 143 149 153 157 158 158 160 164 168 162 
162 160 158 154 150 146 144 137 133 127 124 122 121 120 119 120 
120 119 116 112 106 100 97 94 91 87 86 85 80 70 63 9 9 7 6 14 32 47 53 49 51 55 61 69 77 85 89 97 
100 105 111 119 131 143 151 154 157 160 160 158 158 161 164 162 
161 160 158 155 151 148 146 139 135 128 123 120 119 118 117 117 
117 116 114 110 103 98 94 91 87 83 82 82 79 71 64 16 12 6 5 17 35 48 52 51 55 63 72 76 76 81 87 96 
102 114 127 140 147 149 148 155 164 168 163 161 164 166 164 158 
165 167 162 156 153 149 145 141 138 136 136 131 122 117 116 123 
114 108 110 111 105 97 92 86 85 84 82 78 74 70 67 18 14 8 7 19 37 49 52 51 55 61 66 66 67 75 86 92 
98 109 122 136 148 158 163 160 166 170 168 168 171 171 167 167 
167 164 161 161 164 161 155 157 150 144 141 134 127 124 126 100 
100 105 111 110 102 95 93 86 85 83 81 78 74 72 70 21 16 9 9 22 40 51 53 57 60 65 67 62 57 61 70 77 
84 94 105 115 126 138 147 158 165 172 174 175 176 172 167 170 
168 164 164 168 169 159 147 127 121 118 117 114 108 107 109 91 
91 98 111 116 108 95 87 87 85 82 79 76 74 74 74 21 16 9 10 23 42 51 52 59 59 62 64 59 50 46 47 47 
55 65 72 77 85 96 105 137 150 166 174 175 171 167 165 163 
165 166 164 160 150 130 111 91 89 90 93 92 86 82 83 89 
81 83 102 120 120 104 90 87 84 80 76 73 73 73 74 20 14 8 9 25 43 52 52 54 49 47 50 53 52 52 54 40 
43 44 44 44 51 64 74 99 120 147 163 165 161 160 163 155 
160 159 147 128 108 87 73 69 65 65 67 67 63 62 65 78 
74 78 92 106 109 106 103 88 85 79 74 71 70 71 72 19 13 7 10 27 46 54 53 55 47 42 47 58 71 85 96 84 
78 67 54 45 45 52 58 70 91 121 144 151 149 153 159 151 
154 147 123 96 76 65 60 60 56 55 61 68 75 85 95 92 
97 103 101 89 81 86 97 91 87 82 75 71 68 68 68 19 13 7 11 30 50 58 56 58 55 56 62 71 86 108 127 131 
125 114 100 85 73 64 59 68 79 101 124 136 138 141 147 146 
149 140 117 92 78 73 73 80 81 88 102 116 127 140 150 137 
140 140 128 104 82 78 84 96 92 86 79 73 69 66 65 19 13 7 13 32 53 61 58 54 61 71 77 79 86 106 126 141 
143 145 141 130 110 88 73 81 81 92 112 127 130 131 133 141 
146 142 126 107 96 91 89 94 100 115 134 146 151 154 158 173 
166 158 150 135 113 94 85 100 96 90 82 75 69 66 64 17 12 4 13 40 56 61 69 66 70 72 82 93 96 107 132 146 
160 155 147 146 138 117 108 88 78 77 93 113 126 135 141 150 
147 141 126 103 87 90 101 124 128 143 161 152 149 166 159 176 
172 166 148 131 133 134 123 105 111 103 82 72 75 71 59 17 13 5 15 42 56 61 70 62 73 77 81 89 91 96 111 103 
129 119 127 126 137 116 121 99 85 79 94 117 134 141 143 153 
154 146 127 105 94 97 105 122 121 120 118 127 142 152 164 169 
167 156 143 136 133 134 136 121 125 114 92 80 81 76 65 18 13 7 19 45 58 62 73 71 74 68 67 74 70 59 58 72 
61 47 30 56 72 87 86 96 80 71 84 111 132 140 141 150 
152 143 120 101 97 99 98 82 83 87 57 56 75 74 104 104 
121 123 127 140 134 125 133 133 138 128 104 87 84 79 69 18 13 9 23 48 58 63 75 77 75 62 50 43 38 57 91 63 
35 88 41 67 42 109 79 83 70 63 74 99 122 135 139 144 
146 133 111 101 103 98 86 77 58 82 57 49 73 50 49 50 
83 86 86 114 121 112 123 130 141 138 115 91 80 76 72 17 13 10 27 51 59 63 78 78 77 68 51 28 27 90 176 119 
29 68 41 82 90 161 81 78 72 68 75 93 116 132 139 144 
140 125 107 106 111 101 82 97 120 205 162 54 37 52 79 65 
94 74 47 70 97 105 117 120 137 143 123 94 78 75 75 16 12 11 30 53 58 63 79 87 78 69 65 55 47 81 139 148 
38 10 19 43 111 149 74 77 76 75 78 92 113 128 134 140 
132 116 103 103 107 100 87 114 108 161 133 46 25 30 31 89 
107 84 51 62 89 101 108 116 133 141 125 99 81 77 78 15 11 11 31 54 58 62 80 90 83 70 70 77 70 62 69 97 
87 82 93 68 98 104 90 75 75 74 79 97 119 131 132 139 
129 114 102 97 98 101 103 101 108 126 120 88 74 91 117 110 
110 99 83 82 92 101 106 122 129 131 119 101 87 80 76 14 10 11 32 55 57 61 80 75 89 83 65 65 74 82 91 86 
110 106 99 109 103 82 82 74 73 73 83 106 132 141 138 144 
135 121 108 96 94 108 124 107 118 93 96 116 102 110 147 148 
124 109 103 90 88 104 118 128 126 120 110 100 90 80 72 23 11 12 32 49 56 64 75 74 71 75 83 85 78 73 74 87 
86 88 93 98 98 91 84 74 80 87 97 113 132 144 147 152 
136 121 112 102 97 109 127 130 122 107 94 89 94 106 116 115 
107 99 98 102 108 109 109 114 117 119 116 105 91 78 71 15 12 16 29 45 57 67 72 77 79 87 98 102 100 99 102 88 
94 102 109 109 102 90 82 76 80 86 99 120 139 146 144 142 
138 136 128 110 94 99 115 141 139 135 131 126 123 122 122 119 
121 127 133 134 128 116 106 111 112 112 108 101 90 78 71 14 15 19 29 44 58 67 69 78 84 97 110 115 116 120 125 128 
129 129 123 111 97 85 78 79 82 89 105 129 147 148 140 136 
135 137 133 117 96 88 92 116 119 125 132 137 138 135 132 131 
132 133 132 130 126 122 118 110 107 102 99 95 88 79 72 21 14 16 33 50 58 63 68 78 88 101 110 112 112 115 119 128 
121 109 96 85 77 72 70 81 87 96 112 132 145 144 135 133 
126 122 126 125 117 108 104 95 94 96 102 112 121 126 128 129 
126 121 117 115 117 123 128 113 106 98 93 92 88 80 73 21 6 9 36 55 55 59 71 84 94 105 108 105 103 102 102 94 
91 88 87 88 88 84 81 81 91 103 115 128 136 135 129 122 
117 114 116 120 126 134 141 125 119 110 104 103 105 109 112 113 
118 124 128 129 127 125 124 115 107 98 93 90 87 80 74 16 7 15 39 53 53 59 73 90 100 109 110 108 105 102 98 93 
100 109 115 114 104 91 82 86 96 108 117 126 133 132 128 113 
117 117 109 99 102 120 138 152 151 145 137 126 118 114 113 118 
123 131 137 138 135 130 126 111 106 98 93 89 85 79 74 15 29 43 47 46 51 61 70 87 97 107 112 116 119 115 109 111 
120 127 124 111 98 91 89 101 107 114 123 135 144 142 136 125 
129 129 120 110 106 111 118 136 146 156 157 150 141 136 134 141 
137 134 133 134 132 128 124 101 99 96 92 87 81 76 73 21 56 73 55 40 51 64 64 78 90 102 110 121 129 128 120 128 
135 136 124 109 108 125 143 116 117 120 130 147 158 155 145 147 
144 142 145 152 151 138 124 112 128 148 159 157 152 151 152 150 
146 142 141 139 132 120 111 91 93 93 90 85 79 74 73 39 57 60 43 41 58 65 56 75 86 101 114 123 131 140 146 150 
148 111 90 111 119 123 149 144 129 142 183 199 179 163 166 182 
181 177 177 183 184 172 157 123 109 114 143 164 162 157 160 157 
159 155 147 141 134 120 106 89 80 78 86 88 78 69 67 33 68 85 65 44 48 61 67 72 86 105 119 128 137 148 157 147 
140 109 93 96 73 57 78 109 115 146 184 195 181 181 197 180 
172 147 103 66 65 101 137 123 111 116 140 157 158 160 168 164 
166 163 156 150 142 127 112 88 78 75 81 83 76 69 69 24 62 85 69 46 45 59 67 67 83 104 121 133 143 155 164 145 
136 114 104 94 54 31 50 63 75 103 135 148 151 164 184 152 
114 64 24 6 18 58 95 117 114 123 142 154 154 159 169 168 
170 171 168 161 150 131 115 88 76 70 74 77 71 67 69 19 36 46 43 44 54 59 56 66 77 97 117 134 147 155 160 151 
146 129 117 104 76 62 78 79 73 76 93 114 131 143 151 114 
71 39 46 71 86 92 96 119 125 139 153 155 150 151 158 160 
165 172 174 169 152 128 111 89 75 66 69 71 66 64 67 18 15 13 19 39 57 60 52 68 74 88 109 131 146 151 150 154 
157 145 123 108 98 94 97 114 97 82 84 99 111 114 113 77 
73 85 111 125 123 123 130 144 151 160 162 155 146 142 143 146 
153 165 173 169 148 122 103 90 75 65 67 68 62 60 63 19 14 11 18 36 52 59 58 67 71 82 101 123 138 143 142 144 
152 147 127 113 112 111 103 113 101 92 90 89 86 85 88 81 
98 122 134 127 122 138 160 170 174 173 165 154 144 136 130 129 
136 149 162 159 139 113 96 88 74 65 68 68 62 59 61 20 16 17 28 41 50 55 57 58 65 78 94 110 123 132 137 141 
140 139 131 117 114 115 108 109 98 95 101 101 95 97 106 121 
125 128 129 129 137 151 163 164 170 172 166 159 149 132 116 113 
117 128 141 140 123 102 91 83 71 65 70 72 65 61 62 20 14 15 31 49 55 53 49 48 59 75 87 97 109 123 134 152 
136 133 131 115 104 106 107 105 85 78 94 109 111 117 127 127 
122 114 110 117 129 133 130 139 152 164 168 168 157 130 104 102 
103 111 123 124 110 94 86 78 68 65 72 75 68 63 64 22 16 16 28 43 52 54 52 52 59 62 71 87 98 116 143 143 
137 125 113 107 108 111 112 95 97 96 89 84 89 105 119 116 
129 130 117 116 129 134 127 143 142 143 147 153 150 130 109 95 
80 83 106 114 97 84 85 77 74 71 71 72 70 63 56 21 14 13 23 40 52 54 53 45 52 58 67 81 91 108 130 137 
127 113 100 96 99 105 108 113 104 88 72 63 64 73 81 96 
101 111 121 123 122 122 125 132 133 132 132 135 136 129 119 107 
92 88 100 104 92 82 81 76 73 70 71 72 69 63 57 19 12 7 16 35 51 55 53 44 48 55 64 72 81 96 111 110 
103 93 88 89 94 100 105 97 85 70 60 60 65 69 71 71 
60 66 89 100 97 110 133 121 126 127 125 124 126 127 125 116 
103 91 89 89 84 78 74 74 72 70 70 71 69 63 58 16 9 3 9 29 48 56 54 49 49 56 62 64 74 90 98 90 
84 80 81 85 87 89 92 59 57 58 65 76 85 89 89 109 
90 82 90 88 78 84 104 97 106 113 116 118 122 124 122 116 
108 96 86 85 86 82 75 72 71 70 70 70 67 62 58 12 8 2 5 22 45 56 56 54 49 57 62 60 74 93 93 88 
77 70 71 75 76 78 82 97 103 112 122 131 137 142 144 142 
136 132 131 123 108 99 98 77 84 89 92 97 105 109 108 106 
105 99 92 92 95 90 81 71 70 70 70 68 65 61 57 7 8 4 4 17 40 55 57 54 47 58 64 58 74 93 86 77 
61 51 55 64 72 83 93 102 109 117 121 123 127 134 140 138 
140 138 134 131 130 125 117 92 92 86 76 71 75 79 81 86 
88 90 92 95 95 88 79 71 71 71 70 67 63 58 56 3 9 8 4 14 36 53 58 56 48 62 68 55 67 82 65 56 
42 36 48 63 73 84 96 94 102 112 118 121 123 126 130 143 
139 131 123 118 114 109 103 104 106 98 78 60 54 58 62 71 
74 81 92 96 90 81 75 71 72 72 70 66 60 56 54 0 9 11 5 12 34 53 59 60 51 67 71 51 59 67 44 49 
38 38 53 66 68 70 76 79 90 105 117 122 121 117 113 127 
125 129 137 136 123 109 103 86 97 100 84 62 52 56 62 72 
73 83 97 101 92 82 79 72 73 73 70 65 59 55 53 6 2 4 3 7 29 51 53 53 57 65 63 57 64 64 49 56 
38 30 47 71 86 98 108 106 109 112 112 108 101 94 90 109 
105 100 98 102 112 123 130 112 126 124 96 65 53 57 62 74 
85 96 99 97 91 80 68 78 77 73 66 61 58 54 51 10 6 12 17 15 23 41 53 58 51 56 64 65 72 77 70 62 
48 43 57 73 81 87 94 117 130 146 155 155 150 147 146 152 
154 158 162 166 167 165 163 123 118 106 92 84 82 78 74 82 
86 93 96 93 85 77 72 74 72 68 60 54 50 48 47 9 8 14 21 20 19 35 54 58 44 47 59 64 71 79 78 72 
61 56 63 71 76 83 92 112 133 161 180 185 183 183 184 173 
177 185 192 195 190 179 170 135 123 107 93 81 77 83 92 91 
87 88 92 87 75 71 75 70 67 62 57 53 49 47 47 9 12 14 18 26 30 38 51 51 45 50 56 57 66 74 70 81 
71 63 62 65 73 87 100 91 111 139 161 171 173 173 172 176 
176 177 180 180 175 164 156 134 115 96 85 75 72 85 102 96 
87 85 89 81 66 64 73 70 62 57 58 59 55 49 46 11 24 22 22 37 43 37 40 41 46 56 56 54 67 75 66 84 
78 71 66 64 68 79 90 96 106 123 142 155 160 159 156 163 
160 155 152 149 143 135 129 112 86 69 77 94 102 102 103 95 
86 84 86 75 58 56 67 69 57 50 55 59 53 44 38 12 31 30 28 42 40 35 50 41 40 47 50 49 62 72 67 81 
81 81 77 71 67 67 69 86 86 90 99 109 114 113 110 102 
101 99 95 91 87 83 82 87 82 85 98 112 115 111 107 91 
86 83 80 67 53 52 60 63 51 45 49 50 44 38 38 22 37 36 38 44 35 59 121 71 43 35 46 47 48 59 66 76 
80 84 83 80 76 73 71 66 62 57 53 52 52 51 50 46 
48 49 49 50 57 68 77 97 111 121 121 114 110 109 108 88 
87 82 71 57 50 51 56 53 47 45 47 44 40 48 62 40 46 43 48 49 40 98 207 113 57 32 50 51 39 47 66 73 
77 80 82 85 89 91 91 94 89 80 66 54 47 46 47 44 
46 47 50 59 79 106 125 131 133 127 118 117 120 113 100 87 
89 81 64 50 48 52 54 46 45 49 50 44 43 65 93 36 58 46 49 35 94 172 217 157 54 41 42 37 50 43 62 67 
71 74 75 82 94 97 93 109 107 106 103 96 83 68 57 67 
59 66 90 112 121 127 134 137 132 125 118 111 103 96 92 88 
78 64 54 51 51 52 52 49 46 56 42 36 59 126 120 55 56 30 40 85 173 224 208 121 43 44 47 40 48 41 58 63 
73 82 85 89 96 99 98 103 104 108 112 114 110 102 95 91 
90 101 121 133 133 132 137 134 130 124 117 110 102 94 88 86 
76 63 54 52 52 52 51 47 47 55 43 45 74 137 127 45 37 67 140 193 193 201 186 76 31 48 52 42 47 40 52 55 
70 85 92 94 97 100 102 107 110 114 119 123 122 118 115 111 
112 122 136 139 134 132 136 130 127 122 116 109 100 90 83 78 
70 59 52 50 50 50 48 46 49 52 38 52 86 143 125 89 128 175 191 209 201 211 173 49 27 46 50 44 48 42 49 49 
61 77 88 93 98 101 104 116 117 120 123 125 124 121 119 120 
117 120 128 132 130 131 134 125 123 120 115 107 97 85 78 66 
60 52 48 48 49 47 45 47 48 43 26 50 87 136 114 176 197 207 189 202 206 210 153 45 32 39 42 44 49 45 48 49 
53 63 77 89 97 102 105 116 119 124 127 129 130 129 129 127 
122 121 129 136 137 133 129 121 119 116 111 104 93 81 73 58 
54 49 48 49 49 46 43 43 43 30 16 51 87 129 109 205 195 185 191 206 202 192 145 50 38 31 35 43 45 44 46 50 
49 54 67 81 91 98 103 114 118 124 127 127 127 126 127 128 
126 128 136 143 140 127 116 117 114 111 105 97 86 75 67 57 
54 50 50 50 49 44 39 33 31 18 14 59 90 127 112 184 204 178 152 151 199 213 168 49 39 25 33 44 38 38 43 46 
45 50 61 69 76 86 95 109 114 120 123 122 121 120 120 125 
126 130 134 136 130 118 107 111 108 104 98 90 79 68 61 57 
54 51 49 48 43 35 28 22 20 10 18 70 93 122 113 158 154 126 138 127 153 173 175 45 38 22 33 44 32 32 40 40 
42 49 57 59 62 73 87 99 106 116 122 125 125 126 128 124 
127 128 126 123 120 116 112 108 104 99 92 84 74 64 57 56 
52 49 46 43 35 25 18 15 13 7 23 77 92 115 109 