P2
# Created by IrfanView
64 64
255
55 66 82 97 109 124 146 165 176 179 183 188 193 196 197 198 200 
201 203 205 207 208 209 209 212 214 216 217 215 214 215 216 214 
215 217 219 221 222 223 223 221 221 222 223 224 224 225 225 223 
223 222 222 220 218 217 216 204 185 164 153 148 139 127 117 57 69 84 96 110 130 151 166 179 181 185 189 193 196 197 197 199 
201 203 205 207 208 209 210 212 214 216 216 215 214 215 216 215 
216 218 220 222 223 224 224 224 224 223 223 222 222 222 222 222 
222 222 221 220 218 217 216 212 195 171 154 145 137 123 111 60 72 84 93 111 138 160 169 182 184 187 191 194 196 196 196 198 
200 202 204 207 208 209 209 211 213 215 216 215 214 215 216 217 
218 219 221 222 223 225 225 227 226 224 222 221 220 219 219 222 
222 222 221 220 219 217 216 219 208 185 158 140 131 117 103 64 73 80 88 111 145 169 175 185 187 190 193 195 196 196 196 196 
198 200 203 205 207 208 208 211 213 215 216 215 214 215 217 218 
218 219 220 221 222 224 225 227 226 224 223 221 220 219 219 222 
222 222 221 220 219 218 217 220 219 201 166 138 123 111 100 67 69 72 83 113 150 175 181 187 188 191 193 195 195 195 195 195 
196 199 202 204 206 207 208 211 213 216 216 216 216 217 218 218 
217 217 218 219 220 222 223 224 224 224 224 224 223 222 221 221 
221 221 221 220 219 218 217 215 222 213 179 141 116 104 98 63 58 61 83 119 154 175 183 186 188 191 193 194 195 195 194 196 
197 200 203 206 208 209 210 212 214 217 218 217 217 219 220 218 
218 217 217 218 219 221 223 222 223 226 227 228 226 224 222 220 
221 221 221 221 220 219 218 212 219 216 192 151 115 96 91 55 45 52 87 128 156 171 180 185 187 190 192 194 195 195 194 198 
200 203 206 209 211 213 213 213 215 218 219 219 219 220 222 220 
219 218 217 218 220 222 224 221 224 228 231 231 228 224 221 220 
220 221 221 221 220 219 218 214 213 213 201 165 118 88 79 48 36 48 92 136 157 168 177 184 186 189 192 194 194 194 194 201 
203 205 209 212 214 216 216 214 216 219 220 220 220 222 223 222 
221 219 218 219 221 223 225 222 226 231 234 233 229 223 219 220 
220 221 221 221 220 219 219 218 209 208 205 175 123 82 68 34 31 48 90 137 165 174 175 184 187 189 190 190 193 199 203 196 
203 210 212 211 213 219 225 220 217 216 218 222 224 223 220 219 
218 219 221 225 227 227 227 232 231 231 233 236 235 231 227 217 
220 222 223 220 217 216 215 211 210 211 204 187 120 96 45 30 30 51 97 143 168 175 175 179 186 195 199 198 195 191 189 207 
210 213 216 217 219 220 221 219 218 219 220 222 223 222 220 221 
220 221 223 226 228 228 227 232 231 229 230 230 228 223 219 215 
217 219 220 219 219 220 221 212 212 208 203 193 126 94 52 23 28 57 108 152 171 174 175 178 181 184 188 191 196 201 205 208 
207 208 212 216 218 216 214 218 220 223 223 222 221 221 221 222 
222 222 225 228 229 229 227 227 227 227 229 231 230 228 225 221 
221 221 219 217 218 220 222 213 216 204 201 201 136 90 62 16 27 64 119 160 173 172 173 181 180 180 182 187 195 204 210 206 
208 211 216 221 224 225 225 218 222 225 225 222 219 219 221 223 
222 223 225 228 229 227 226 225 225 225 225 225 224 222 220 215 
216 215 215 215 217 222 225 215 218 202 201 207 150 89 69 13 27 71 129 167 172 169 170 177 180 184 187 188 185 179 176 182 
189 196 201 204 208 215 221 218 221 225 224 221 218 219 221 222 
222 223 225 228 228 225 223 226 224 221 215 209 203 198 196 196 
199 201 204 207 213 219 224 216 218 202 202 208 165 91 70 15 32 79 139 172 172 166 170 165 166 168 171 173 172 169 166 172 
178 185 188 188 193 203 212 219 220 221 220 219 219 220 221 223 
223 224 226 228 227 224 221 220 220 217 211 205 199 196 196 198 
200 202 202 202 202 203 205 217 216 205 205 204 180 98 63 20 39 87 147 176 171 166 172 159 158 160 167 178 188 194 197 205 
206 206 205 205 209 216 222 220 218 216 216 218 220 221 221 224 
224 226 228 229 228 224 221 218 219 219 217 214 212 213 215 217 
219 220 217 211 205 200 197 217 213 210 209 198 191 105 54 25 44 93 152 179 172 166 173 160 167 181 199 214 222 222 220 225 
220 213 209 209 212 215 216 221 216 212 212 217 221 222 221 226 
226 227 230 231 229 225 222 224 225 225 223 218 217 218 220 225 
228 232 233 229 222 217 214 217 211 213 211 193 197 110 48 28 43 97 158 181 175 167 161 189 206 216 213 215 225 226 218 214 
225 203 209 207 217 208 209 214 219 216 215 220 217 214 223 222 
224 229 233 232 227 224 224 219 226 218 212 202 227 224 228 222 
230 230 224 227 235 233 224 220 216 208 215 210 190 135 41 30 46 101 163 182 176 176 180 206 209 213 216 215 209 200 192 179 
190 197 192 189 197 201 220 210 208 198 198 212 219 221 229 223 
226 230 233 233 229 226 224 214 217 214 220 204 185 189 201 205 
208 221 235 233 221 221 231 225 222 212 214 209 195 142 46 32 48 106 169 186 180 187 202 211 208 212 217 208 183 159 149 119 
112 134 175 193 186 182 202 218 215 204 204 220 224 216 215 225 
228 231 232 231 229 225 222 217 209 177 145 131 141 155 155 172 
196 205 199 212 241 244 224 228 229 218 215 210 202 151 54 31 47 107 172 191 186 195 211 213 215 209 187 152 114 86 72 76 
96 66 97 110 157 190 176 190 193 187 190 209 219 217 218 226 
229 230 229 228 226 220 214 194 169 145 115 95 133 103 111 114 
130 167 204 208 198 215 246 227 231 222 216 211 207 161 65 30 49 109 173 195 192 198 206 204 212 191 137 92 80 82 83 77 
91 49 166 136 110 149 166 179 187 183 180 194 208 216 225 224 
228 229 225 224 222 213 203 198 152 166 170 116 142 86 171 125 
98 83 109 159 200 215 217 222 228 222 219 213 209 170 82 30 57 118 174 194 195 198 197 194 197 162 98 64 84 119 135 87 
158 97 134 102 150 197 132 142 168 184 190 201 208 209 213 218 
224 226 222 222 221 209 195 159 149 198 187 110 137 100 208 100 
144 137 84 87 165 224 227 219 223 220 220 212 208 180 108 33 71 133 176 188 194 199 193 199 191 157 110 89 105 127 135 112 
145 133 157 150 173 186 110 91 129 160 179 198 207 205 206 210 
219 222 221 222 223 210 193 115 143 196 175 137 153 130 163 147 
161 173 175 177 188 202 211 220 220 216 219 209 205 191 137 35 82 145 179 183 192 200 194 194 186 175 167 170 175 174 168 189 
169 197 195 191 177 194 170 142 166 176 175 186 195 198 202 205 
215 220 221 224 226 213 194 202 184 186 178 205 198 205 195 208 
205 204 208 217 224 222 216 223 218 213 218 207 202 198 157 43 106 156 170 182 193 194 194 190 194 199 202 205 208 212 214 211 
211 210 207 202 196 190 187 189 187 184 183 186 192 198 202 206 
209 212 214 216 219 222 225 215 208 205 211 216 216 217 221 228 
228 227 227 226 225 224 224 216 220 213 213 202 196 196 169 80 130 168 175 180 189 191 189 192 196 200 204 207 209 212 214 215 
214 212 208 203 197 193 190 188 186 185 185 187 191 195 198 203 
206 209 212 214 217 220 223 217 210 208 213 218 219 221 225 229 
229 229 228 227 225 224 224 217 219 211 212 203 197 195 166 122 154 177 176 175 184 189 186 194 197 202 206 208 209 211 213 217 
215 212 208 204 200 197 195 188 187 185 185 186 189 192 194 200 
202 206 209 212 215 219 221 220 215 213 216 219 221 224 228 230 
229 229 228 227 225 224 223 217 218 209 211 205 198 194 162 146 161 175 173 169 180 191 188 193 196 202 205 207 208 209 210 214 
212 210 207 204 203 202 201 192 189 184 181 181 185 190 194 198 
201 205 208 211 214 218 221 223 220 218 218 219 221 223 226 227 
227 228 227 226 224 222 221 218 217 207 210 206 200 194 160 155 158 171 173 166 178 193 189 189 193 199 203 204 205 206 207 208 
207 206 205 205 205 205 206 197 191 182 176 176 182 191 197 199 
202 206 209 211 214 218 221 225 225 223 220 218 219 220 220 223 
224 225 225 224 222 220 219 218 217 207 210 206 201 196 163 154 151 170 179 167 176 191 185 185 189 196 200 202 203 204 204 203 
203 204 205 205 206 206 206 201 193 182 174 174 181 192 200 201 
204 207 210 211 214 217 220 223 227 227 222 219 219 219 217 219 
220 222 224 224 222 220 218 217 217 208 210 205 201 199 169 142 139 167 184 169 174 188 179 182 187 194 199 202 203 203 204 203 
204 205 207 207 206 205 204 200 193 182 175 175 183 193 201 202 
205 208 209 210 212 215 218 219 226 229 225 222 222 221 218 216 
218 221 224 225 224 222 220 216 218 209 210 203 200 202 176 129 127 162 185 170 172 185 175 181 186 194 199 202 203 204 205 205 
206 208 209 208 206 204 202 198 192 183 177 177 184 193 200 203 
205 207 209 209 211 213 215 216 225 230 227 225 226 224 220 215 
218 221 224 226 225 223 222 216 219 210 210 202 200 204 180 99 147 146 199 163 178 186 171 185 190 196 199 200 202 205 208 207 
205 204 206 207 206 201 196 192 194 189 179 177 186 196 199 205 
206 204 203 207 216 221 220 225 226 226 227 227 226 226 225 222 
224 225 227 226 225 222 221 214 214 215 216 211 204 199 198 48 135 169 197 172 173 173 185 186 190 196 200 201 203 206 208 207 
206 205 205 205 203 200 197 200 198 189 179 179 188 197 200 204 
205 203 201 206 216 221 222 227 227 227 226 226 225 225 225 222 
224 226 227 226 225 222 221 220 218 214 209 202 196 195 196 17 124 197 193 182 175 163 192 187 191 196 200 202 204 206 208 207 
207 207 205 202 200 199 200 203 195 183 173 176 187 196 198 202 
204 203 200 204 213 220 221 230 229 227 225 223 223 224 224 223 
224 226 227 226 224 222 220 215 216 215 209 203 200 201 203 12 97 204 186 181 183 174 191 188 190 195 199 201 203 205 206 206 
208 208 205 200 198 200 202 204 191 176 170 177 190 198 201 204 
206 204 200 201 209 215 217 232 230 227 224 222 222 223 223 223 
224 226 227 226 224 221 220 210 215 217 213 207 204 201 198 6 59 198 193 175 183 189 189 188 190 193 197 201 203 204 203 206 
208 208 206 201 199 202 204 203 189 175 173 183 195 204 208 208 
211 209 204 202 206 211 212 232 230 227 223 221 221 222 222 224 
225 226 227 226 224 221 219 217 220 217 209 202 200 195 189 13 45 188 208 178 176 189 184 190 191 193 197 202 204 204 203 206 
207 208 207 205 204 205 205 196 183 173 175 185 195 203 208 212 
217 217 211 207 208 211 211 231 229 226 224 222 221 221 221 224 
225 227 227 226 223 221 219 221 220 213 203 202 207 204 195 22 40 146 193 185 176 179 185 193 193 195 199 204 207 206 204 206 
206 206 208 210 210 208 206 196 185 178 183 191 198 204 210 216 
223 225 220 215 215 216 215 228 227 226 225 223 222 221 221 225 
226 227 227 226 223 220 218 216 216 210 204 207 211 200 183 16 22 86 154 188 185 177 194 196 195 197 201 207 209 208 205 206 
205 205 209 213 213 210 206 205 196 192 197 204 207 212 219 218 
226 230 226 221 220 221 220 226 226 226 225 224 223 221 220 225 
226 227 227 226 223 220 218 212 214 212 207 207 200 174 144 25 13 143 201 209 182 195 179 189 196 201 202 204 208 209 207 210 
207 206 209 215 217 214 211 204 209 208 196 184 186 206 225 216 
228 231 217 202 201 211 218 225 226 226 224 222 220 220 221 225 
226 228 228 227 225 222 220 217 213 206 207 212 150 60 37 1 135 238 232 155 135 190 190 188 195 201 202 204 209 210 209 211 
209 207 210 214 215 211 207 190 204 210 194 170 167 190 216 220 
227 228 218 208 209 214 217 225 226 226 225 223 222 222 223 225 
226 227 228 227 224 221 219 218 211 203 204 197 110 37 16 75 225 205 147 50 73 173 176 186 194 200 202 205 210 213 211 213 
211 210 211 213 212 207 202 201 201 197 190 184 185 194 203 222 
226 226 221 217 218 219 218 223 225 226 225 224 223 224 225 225 
226 227 227 226 223 220 218 221 212 203 209 182 62 19 3 211 219 93 38 0 54 175 179 184 192 199 202 205 211 214 213 214 
213 212 212 211 208 202 198 208 200 193 194 202 209 210 208 221 
224 227 226 223 222 221 221 221 222 224 224 223 222 224 226 225 
226 227 227 225 222 219 217 218 208 203 212 162 25 13 5 215 122 34 7 3 47 170 182 182 190 197 201 205 211 214 214 214 
213 212 211 208 205 200 196 193 199 203 202 199 202 211 220 217 
222 228 229 225 221 221 225 218 220 221 221 220 221 222 224 225 
225 226 226 224 221 218 216 213 202 201 209 131 3 8 9 111 22 20 4 11 32 151 169 180 189 196 199 203 210 213 212 214 
213 211 208 205 202 199 198 197 199 201 201 201 204 209 214 216 
219 225 228 225 219 220 224 217 219 220 220 219 219 221 222 224 
225 226 225 223 220 217 214 218 206 207 206 99 0 6 14 46 5 23 5 18 26 142 174 179 187 195 198 202 208 211 210 213 
211 209 206 202 201 200 201 206 201 197 199 206 210 211 209 218 
215 218 224 225 220 217 219 218 220 221 221 219 219 220 222 224 
225 225 225 223 219 216 213 220 208 211 199 66 6 3 17 20 22 24 5 16 8 125 180 179 187 194 197 201 207 210 209 212 
211 208 204 201 200 201 203 192 202 210 206 197 196 208 222 221 
213 211 219 225 222 216 214 220 221 222 222 220 219 221 222 224 
225 225 224 222 219 215 213 214 201 205 187 41 8 0 14 33 32 19 4 20 15 95 178 168 190 189 196 204 201 210 209 210 
209 207 206 205 205 207 208 207 203 202 204 205 203 205 209 212 
211 210 211 214 217 218 218 214 217 221 223 224 223 222 222 223 
223 224 223 222 219 217 215 210 216 202 154 24 14 3 13 31 34 28 13 14 6 69 174 172 189 192 201 201 197 210 208 211 
211 211 211 209 205 200 196 206 203 202 202 198 195 197 203 215 
215 215 216 218 220 223 225 228 225 224 226 230 231 228 225 224 
224 224 224 222 220 217 216 218 202 214 119 13 16 16 19 33 37 39 28 14 2 33 161 175 184 190 203 197 192 210 208 204 
202 202 205 211 215 216 215 209 205 201 198 191 185 186 192 197 
199 200 197 193 191 193 195 210 206 205 211 220 226 225 221 225 
226 226 225 223 221 218 216 221 200 221 78 10 24 29 22 40 37 41 39 23 12 6 130 177 180 184 199 193 191 211 206 223 
220 217 213 208 197 183 172 174 168 164 165 166 166 169 174 181 
186 191 190 185 180 179 181 172 174 180 192 205 214 218 219 226 
227 227 226 224 221 218 217 213 215 192 42 14 25 23 16 48 34 35 39 33 25 0 84 175 184 184 194 194 194 209 203 201 
204 208 205 192 166 136 116 110 102 100 110 124 134 141 146 146 
156 166 170 168 164 164 165 164 173 186 197 205 212 219 224 227 
227 227 226 224 221 218 216 205 226 128 14 13 17 10 14 55 34 31 33 36 30 3 38 154 188 189 191 198 196 204 202 214 
216 217 215 208 198 187 181 153 144 140 147 160 169 176 181 174 
181 189 193 192 188 186 185 189 198 209 213 213 214 220 225 227 
227 227 225 223 220 217 215 213 202 65 4 15 18 12 25 64 45 40 30 32 26 21 11 108 180 191 186 200 197 198 206 219 
215 206 194 184 182 187 193 184 177 171 170 169 171 177 185 188 
190 193 195 196 196 196 195 214 217 219 218 215 215 219 222 226 
226 226 224 222 219 215 213 216 132 24 12 21 27 23 29 71 56 51 30 29 21 37 1 65 165 188 181 200 196 195 212 208 
212 213 207 196 189 189 192 191 189 186 180 172 170 180 194 192 
192 194 199 208 216 222 225 224 221 217 214 215 218 221 223 226 
226 225 224 221 218 215 213 206 60 3 18 23 30 25 18 59 65 66 53 33 18 16 21 27 138 187 184 190 201 200 198 207 
209 208 204 196 190 189 189 190 194 198 200 199 199 199 200 201 
206 213 218 220 220 220 220 217 216 215 215 216 219 222 223 221 
225 228 219 220 218 210 222 147 22 2 27 47 53 16 12 54 57 61 62 56 41 22 9 16 123 180 180 189 200 199 199 204 
206 207 202 195 190 189 190 198 200 202 204 205 207 210 213 209 
213 218 221 222 222 222 222 218 217 216 215 216 218 220 222 223 
224 223 217 220 219 208 209 97 32 47 54 38 33 16 30 63 54 50 56 65 58 36 15 7 104 172 174 186 195 198 200 201 
204 205 201 195 191 191 192 197 198 200 201 203 207 212 217 212 
215 217 218 218 217 218 219 219 218 217 216 216 217 218 219 223 
223 217 215 219 218 206 192 79 36 48 41 22 23 12 19 78 59 41 38 49 54 48 37 10 92 170 169 182 188 194 200 199 
202 204 201 196 193 193 195 195 196 198 200 201 204 209 212 212 
214 215 215 214 215 217 219 220 219 217 216 216 216 217 217 219 
221 215 216 215 214 205 176 78 31 20 11 9 21 16 19 73 60 43 34 35 40 45 46 21 85 172 167 178 180 189 199 198 
201 203 201 197 194 195 197 198 201 204 206 206 206 207 208 212 
214 215 216 216 218 222 224 219 219 218 217 216 216 215 215 212 
221 215 219 211 206 204 161 52 24 20 19 16 19 26 44 52 52 49 43 36 32 32 33 27 77 174 166 177 173 183 195 196 
199 202 200 196 194 195 197 198 201 205 206 205 203 202 203 206 
208 210 212 213 215 219 222 218 218 217 217 216 216 215 215 210 
222 214 219 206 199 198 141 32 29 35 43 41 30 28 38 45 46 44 41 35 29 25 23 23 63 172 166 178 169 177 190 194 
197 199 198 194 191 192 194 195 196 198 198 197 196 197 198 200 
202 205 207 208 210 212 215 216 216 217 217 217 216 215 215 214 
222 209 217 202 193 190 116 28 43 44 47 54 52 45 36 55 45 33 26 26 27 27 26 15 52 170 166 179 168 174 186 192 
195 197 196 192 189 190 192 195 195 195 194 193 194 197 200 202 
204 208 209 210 211 212 214 215 216 216 217 217 216 216 215 219 
223 205 213 199 190 184 98 17 53 55 43 48 63 76 73 