P2
# Created by IrfanView
64 64
255
2 11 23 21 14 22 25 12 20 39 81 134 166 170 168 170 181 
185 188 187 182 180 183 188 184 182 180 179 178 176 172 170 175 
172 171 174 180 185 187 187 186 187 189 190 191 191 193 194 199 
188 180 181 180 171 162 158 153 140 107 63 33 22 19 15 1 6 16 19 14 16 17 9 27 55 102 148 175 182 184 187 195 
198 201 199 194 188 184 184 182 182 182 183 185 184 181 179 179 
178 178 180 182 183 183 182 187 191 196 199 199 198 198 199 192 
183 178 180 179 170 161 158 153 141 109 65 33 21 16 12 2 3 12 20 20 15 13 15 39 80 131 166 182 190 195 197 198 
201 204 205 201 193 185 180 181 180 181 183 185 185 182 180 181 
184 187 188 188 187 187 188 191 197 204 207 205 201 198 198 194 
189 187 188 185 176 166 161 155 145 115 70 35 21 16 12 3 4 10 23 28 18 18 32 57 104 152 170 171 173 175 173 170 
173 179 186 191 192 189 186 179 177 175 175 175 175 173 172 176 
180 185 187 187 188 192 195 199 204 208 208 203 198 195 194 198 
197 197 196 189 177 164 157 159 150 120 74 37 22 19 18 2 5 7 17 27 18 23 51 81 121 153 151 136 128 123 117 110 
114 124 140 157 172 182 187 173 170 167 166 167 168 168 167 171 
175 177 178 177 178 182 186 190 190 189 188 186 184 182 182 185 
190 194 192 183 170 156 147 158 151 122 75 36 21 20 20 2 8 5 7 18 15 29 68 105 125 134 116 93 80 72 64 52 
57 68 84 106 129 149 160 155 155 156 159 163 166 167 166 172 
172 171 167 162 159 157 156 144 139 135 136 141 145 145 144 152 
164 177 179 175 167 156 148 154 151 126 79 37 19 16 16 2 21 13 3 13 16 38 87 121 119 106 82 63 55 53 50 42 
46 52 59 71 88 107 120 129 134 141 150 157 159 157 154 159 
157 153 147 138 127 115 107 88 80 75 78 89 96 95 91 102 
123 146 159 164 165 163 157 154 155 135 90 45 20 11 8 12 35 24 6 14 22 49 101 127 112 87 64 52 53 58 62 69 
70 69 66 65 72 85 96 109 116 129 141 149 148 142 136 135 
132 128 122 111 95 76 63 58 49 42 47 60 67 63 56 59 
85 117 137 151 160 164 161 156 160 144 101 53 23 9 3 19 81 22 4 19 39 69 124 136 112 94 84 77 85 100 104 113 
113 109 98 83 73 73 76 89 98 113 127 135 136 132 127 115 
111 103 90 75 60 50 44 54 55 56 59 66 69 61 49 48 
59 77 98 118 137 153 162 159 158 146 115 70 31 12 9 46 105 39 7 15 38 77 130 147 122 108 106 109 125 144 148 146 
144 136 122 105 91 85 84 86 94 107 119 127 126 121 117 105 
100 89 76 65 62 66 70 78 89 102 110 114 110 98 85 77 
77 78 86 102 121 140 151 169 162 146 117 80 46 25 17 84 137 65 11 10 37 88 140 159 137 126 129 133 145 156 155 155 
149 138 123 108 94 84 79 83 89 100 111 118 118 113 107 93 
86 73 62 61 71 90 103 109 126 144 154 155 150 140 131 117 
109 99 97 107 125 145 158 176 167 149 124 95 66 41 25 117 163 88 16 9 36 101 149 166 147 139 138 131 129 129 123 124 
116 104 94 86 80 74 69 76 81 92 105 114 116 111 106 94 
83 70 65 71 87 105 116 117 129 141 147 151 153 151 147 143 
141 138 135 137 146 159 169 174 168 155 135 111 84 55 34 144 180 106 24 12 36 110 154 170 149 133 120 100 91 91 87 82 
74 63 57 57 59 59 58 59 66 79 97 111 117 114 109 105 
90 76 71 78 86 90 89 84 88 93 96 104 111 112 109 122 
134 148 154 153 153 158 164 167 169 164 150 131 105 73 47 172 194 120 33 19 34 114 156 168 136 104 77 51 43 48 47 48 
40 31 27 29 33 37 38 43 52 70 93 114 124 122 117 109 
93 74 64 62 60 53 45 37 39 41 42 47 53 52 47 59 
79 105 125 135 142 150 157 159 166 169 162 150 129 95 65 202 209 132 43 25 32 115 156 155 115 76 50 33 32 36 33 39 
35 29 26 25 27 29 30 41 52 74 102 128 141 141 135 119 
103 80 60 48 41 36 34 32 34 32 26 23 25 27 25 27 
37 55 76 99 120 137 147 152 158 161 162 163 151 116 81 223 220 140 49 29 29 114 156 141 101 67 55 53 60 63 54 53 
52 50 47 44 43 42 42 49 60 84 116 144 159 158 153 135 
120 96 69 50 44 49 55 62 63 56 41 30 31 39 45 43 
38 37 48 72 99 120 131 147 149 150 156 167 163 128 89 216 200 140 54 15 49 113 152 145 113 87 91 107 107 93 81 82 
77 75 77 76 70 66 66 77 84 103 131 160 178 181 177 155 
131 103 82 70 70 79 91 99 93 82 69 61 66 80 93 95 
93 89 86 90 104 123 136 150 155 156 156 156 150 126 101 204 192 137 55 13 43 107 150 150 125 110 121 137 132 111 94 85 
87 89 87 79 72 75 83 93 102 120 147 173 186 185 180 164 
144 116 94 87 90 95 98 100 96 91 86 87 97 112 124 138 
135 131 125 123 129 141 150 163 167 168 166 163 151 122 93 192 185 140 65 18 39 101 149 159 137 123 128 133 118 91 71 68 
72 75 72 65 67 86 106 115 124 142 165 184 192 188 182 173 
157 130 106 101 106 101 90 83 82 85 90 98 108 118 125 130 
134 138 141 144 150 160 167 169 174 176 174 169 152 116 83 186 184 150 84 34 42 97 146 164 140 118 112 106 85 60 45 54 
50 46 47 52 69 97 121 132 141 157 175 188 192 188 182 179 
169 145 122 118 121 107 84 66 67 68 72 78 83 86 86 80 
91 108 124 137 150 162 170 165 171 174 173 169 150 112 75 184 184 161 107 56 50 93 139 160 138 118 110 101 83 66 58 59 
49 44 56 77 99 118 131 143 152 167 181 191 193 190 187 183 
177 160 142 140 143 128 105 83 75 64 56 54 55 58 60 64 
77 97 117 133 145 156 163 163 168 170 170 166 148 108 71 180 180 167 128 80 61 89 128 151 137 126 124 117 101 89 85 74 
68 72 96 124 140 143 142 147 159 176 191 199 201 199 197 180 
175 162 149 147 150 143 131 116 103 84 66 59 62 72 80 89 
101 118 134 145 153 161 166 170 171 170 167 163 146 107 71 177 177 171 146 103 76 90 121 150 141 136 139 136 127 123 126 120 
118 125 140 152 151 144 138 144 161 184 203 211 211 208 206 183 
173 157 141 131 128 131 133 138 133 123 113 108 113 124 134 135 
143 153 160 163 166 170 173 175 173 168 163 160 146 110 75 177 176 174 157 119 88 94 120 154 146 144 150 155 156 164 175 180 
178 175 170 156 137 124 119 139 160 188 210 218 217 213 210 195 
179 156 133 113 104 111 123 146 152 160 163 164 168 175 181 177 
181 183 181 176 172 171 172 174 171 164 159 158 146 114 80 172 178 180 165 135 111 111 125 149 141 140 148 155 161 174 189 193 
190 173 140 110 101 110 120 145 166 191 204 212 216 213 207 202 
187 164 140 115 95 90 94 119 135 155 171 185 196 199 196 191 
191 191 189 184 178 172 169 170 165 162 166 166 151 123 100 175 176 175 169 151 134 129 134 148 146 149 156 162 166 172 178 177 
169 143 107 84 89 115 137 154 170 187 195 199 201 199 194 204 
197 183 165 148 132 119 112 95 107 127 148 164 175 183 188 190 
190 191 188 183 178 173 171 165 163 164 166 166 156 138 123 176 171 168 170 168 158 147 141 144 150 156 161 165 167 163 156 151 
136 106 74 67 93 137 169 186 190 192 189 189 192 194 193 198 
202 201 194 189 179 156 133 89 87 93 111 128 142 159 175 180 
182 184 182 178 173 171 170 161 161 162 164 165 163 157 152 172 166 164 169 173 167 152 139 138 148 154 155 158 159 147 130 122 
104 77 60 72 112 157 185 184 177 167 158 157 163 170 174 182 
194 203 206 211 208 180 148 107 83 68 77 94 111 135 158 165 
168 171 171 167 165 164 165 160 157 155 157 163 168 170 169 169 167 166 169 171 164 147 131 134 140 144 143 145 144 127 107 93 
78 60 59 82 116 140 148 140 134 128 127 131 136 141 143 147 
161 173 181 191 193 169 139 107 76 52 57 75 91 112 130 145 
149 154 155 154 153 156 159 159 152 145 149 160 170 174 174 169 170 171 169 167 158 141 125 128 127 127 128 130 125 106 88 72 
63 56 64 85 102 96 83 82 80 86 99 109 109 105 101 94 
102 110 116 126 130 120 104 83 63 49 54 67 79 89 98 120 
126 133 136 136 138 144 149 152 144 139 144 159 172 177 177 168 170 169 166 163 156 137 119 117 110 107 114 116 105 85 70 62 
62 67 79 93 94 73 49 36 33 39 54 65 63 55 50 48 
48 47 49 54 61 66 69 72 68 63 60 61 64 70 74 91 
99 108 113 114 118 127 134 139 137 138 146 160 173 183 187 166 167 165 162 161 155 136 116 108 96 93 104 107 91 69 57 60 
68 81 96 105 100 76 52 38 28 25 34 42 40 34 32 31 
24 18 16 17 24 40 56 80 85 82 67 54 52 58 63 71 
79 89 95 97 102 112 121 128 133 140 149 161 174 188 196 167 166 163 162 167 163 138 111 97 94 85 77 76 76 66 53 57 
71 88 100 111 114 104 91 66 55 44 36 27 20 23 30 22 
28 34 34 35 46 67 84 105 107 104 89 69 53 48 49 58 
65 76 83 84 85 96 108 117 127 141 152 161 171 182 191 169 168 164 163 168 166 143 117 93 89 79 70 68 70 65 56 66 
80 97 111 122 126 119 107 97 86 73 60 44 31 29 34 41 
49 59 64 69 82 101 117 122 121 114 99 79 63 57 56 61 
65 73 80 81 82 91 101 110 121 135 147 156 166 177 185 170 170 167 166 171 170 150 125 96 92 83 73 71 73 73 70 80 
92 106 119 130 134 130 123 120 113 102 86 66 51 47 50 69 
78 90 98 104 114 129 141 133 129 120 107 91 77 69 65 64 
65 70 78 83 85 91 98 110 121 136 149 157 165 175 183 167 170 170 170 176 174 153 129 99 96 90 83 80 81 84 85 95 
101 110 120 127 132 133 132 126 125 120 108 93 82 81 84 94 
101 110 115 117 120 126 132 128 124 117 109 99 88 78 72 63 
63 69 81 91 96 101 107 113 124 139 150 156 163 171 178 164 169 172 175 179 176 153 129 96 94 91 90 88 87 87 88 104 
105 109 114 121 127 133 138 139 141 140 132 122 117 117 119 115 
119 124 125 123 120 119 119 119 116 112 107 100 91 81 74 62 
63 72 89 103 111 116 120 113 123 135 144 149 154 162 168 166 172 175 177 180 175 153 129 100 96 95 99 100 97 94 94 105 
104 105 109 113 118 126 135 146 147 144 136 130 129 127 124 122 
124 126 127 126 123 120 118 108 105 100 95 89 83 76 71 62 
66 78 97 111 117 121 124 112 121 132 139 143 148 157 163 172 177 178 176 177 174 154 133 111 103 101 107 111 108 104 103 100 
97 98 101 100 98 102 110 115 115 109 101 99 100 96 90 91 
92 93 97 100 101 100 98 84 81 75 68 64 62 64 65 66 
72 86 102 111 111 112 114 107 115 124 131 135 142 153 161 179 181 179 174 175 172 156 136 116 106 101 108 114 112 108 107 93 
92 91 92 86 77 76 81 70 69 62 56 58 62 59 50 45 
45 46 51 58 62 63 62 61 57 50 43 40 44 53 60 70 
77 90 104 107 103 101 102 96 104 113 119 125 134 146 155 176 181 181 177 180 182 168 148 122 104 100 108 111 113 109 97 78 
77 72 63 58 57 51 43 29 29 31 35 40 42 40 38 36 
32 26 19 15 17 22 27 33 28 30 37 37 34 43 58 71 
79 87 90 90 91 93 94 89 92 110 123 119 125 143 153 180 184 185 184 190 191 174 153 122 102 95 100 101 103 99 87 76 
66 53 43 36 32 29 28 23 27 32 37 40 43 46 48 46 
41 33 25 20 20 25 30 36 33 36 42 40 37 46 60 76 
81 82 81 79 80 84 87 91 93 108 118 116 123 138 143 182 186 189 191 195 196 181 161 128 102 87 88 89 93 91 80 69 
54 41 40 39 36 39 45 44 53 62 65 64 64 70 75 77 
71 62 52 45 44 49 53 62 60 62 64 57 51 57 69 84 
82 77 73 72 74 80 85 91 92 104 110 109 117 126 123 181 187 192 193 194 193 184 173 142 106 80 75 79 89 91 81 69 
56 53 65 71 66 66 73 80 92 104 106 100 96 99 104 110 
105 96 86 79 79 83 87 100 98 96 91 79 68 69 77 83 
75 68 66 66 69 76 83 86 87 96 101 101 109 111 98 181 189 195 193 188 186 186 187 157 113 76 65 68 83 91 84 76 
69 76 96 104 91 79 78 91 103 117 122 118 113 113 116 118 
115 109 102 99 100 105 110 123 120 116 107 94 81 77 79 76 
64 56 55 58 59 64 70 77 81 89 91 93 104 102 83 182 189 194 191 185 182 186 192 168 125 85 64 56 67 82 83 80 
80 94 116 126 114 97 87 84 92 103 109 111 109 108 108 102 
102 102 101 103 108 115 121 131 128 122 115 106 96 89 85 76 
61 49 50 55 53 56 61 69 76 82 82 86 104 107 87 181 183 186 186 184 181 182 185 175 142 107 75 48 48 67 79 86 
91 104 122 135 134 120 107 86 84 83 86 88 88 83 79 76 
80 85 92 99 108 117 124 133 128 121 116 113 107 97 89 76 
57 43 45 50 52 56 63 66 72 77 74 81 110 123 107 178 176 177 181 183 181 176 174 179 156 127 88 45 35 57 76 99 
103 110 120 133 138 129 115 95 84 72 66 66 64 55 47 54 
60 70 80 91 103 114 121 131 124 116 112 112 108 96 84 68 
47 32 35 44 48 55 64 65 71 75 69 79 116 137 125 176 174 172 174 174 172 170 170 178 177 155 109 65 48 53 62 96 
106 117 123 127 127 121 113 98 81 63 56 55 55 56 57 57 
63 73 84 96 106 112 116 121 120 119 117 112 101 87 77 61 
40 36 42 39 42 54 61 70 73 67 62 82 123 151 157 183 185 185 184 178 171 166 165 172 176 167 133 89 61 58 67 83 
95 107 116 121 123 117 110 92 79 67 65 67 66 65 65 65 
70 79 90 100 109 115 117 119 120 119 117 110 96 80 69 52 
36 37 45 42 43 54 60 65 70 68 68 92 133 161 168 199 200 199 194 185 176 168 163 169 176 179 158 112 69 57 67 76 
89 103 114 121 125 121 115 98 90 85 88 92 90 87 86 88 
93 101 110 118 125 129 130 128 129 129 125 114 97 78 65 45 
36 42 51 48 49 58 62 63 71 75 81 106 145 171 179 201 199 194 188 186 183 175 166 172 173 174 158 109 58 43 55 70 
83 98 111 122 130 130 125 118 112 110 115 118 115 111 110 117 
121 127 134 140 144 145 145 140 140 139 131 117 96 75 62 47 
40 48 57 53 55 64 67 66 76 86 96 120 153 176 182 197 191 184 182 190 196 190 177 166 155 145 126 81 33 22 37 54 
67 83 99 115 131 138 138 142 137 134 137 137 133 129 129 137 
140 145 150 152 153 152 151 143 142 137 126 108 86 67 56 50 
43 50 56 54 59 69 70 68 81 97 111 134 161 179 184 199 198 194 194 203 208 196 178 133 114 96 78 46 15 10 24 40 
51 67 84 105 128 143 148 161 156 153 155 153 147 143 143 149 
151 154 157 157 154 151 148 140 136 127 112 94 76 63 56 48 
41 45 52 54 63 73 71 71 87 107 126 146 167 180 185 186 194 197 193 187 176 150 125 79 61 44 36 25 13 13 20 33 
41 52 66 87 113 133 142 158 155 156 159 157 150 145 145 148 
149 152 152 150 145 140 137 127 121 109 92 76 64 58 57 44 
36 41 51 58 72 79 72 80 97 119 139 156 170 178 180 155 170 180 168 146 117 80 48 37 22 13 13 18 20 21 23 28 
33 39 48 67 93 114 123 141 140 144 150 149 142 136 134 137 
139 141 140 137 131 125 121 110 103 89 72 57 50 50 52 41 
34 40 53 64 80 85 75 91 107 129 147 160 169 173 173 96 101 103 95 76 55 37 29 16 19 21 19 16 14 15 17 16 
21 28 38 49 62 74 82 94 103 115 124 127 124 120 117 114 
112 109 109 109 107 102 97 90 83 71 57 46 42 43 46 39 
41 45 54 65 77 88 95 102 120 141 152 156 161 168 173 50 47 43 39 34 29 22 17 18 19 18 15 10 8 9 11 18 
21 26 33 41 48 55 59 67 74 84 91 92 90 86 84 82 
80 78 76 74 72 69 66 67 63 55 46 39 37 40 43 40 
42 46 53 65 79 91 99 111 128 146 156 160 162 165 167 25 17 11 13 21 26 25 20 20 19 17 14 11 9 11 12 16 
21 27 32 34 35 35 36 42 48 54 59 59 57 55 54 53 
52 50 47 42 40 39 39 41 41 39 36 34 34 37 40 40 
41 45 53 66 82 96 105 120 135 150 158 161 164 162 157 25 21 20 24 31 33 28 22 14 15 15 15 14 14 14 14 11 
21 33 37 33 27 26 27 28 32 36 38 38 37 38 38 39 
39 38 33 27 24 26 29 27 29 31 32 32 33 35 37 36 
38 43 53 68 86 103 112 125 137 148 154 160 165 159 150 25 26 28 28 26 22 17 14 11 12 14 16 17 15 12 10 8 
24 40 44 35 24 22 24 17 20 23 24 24 25 27 29 31 
32 31 27 21 19 21 23 24 26 29 29 29 29 31 32 33 
36 44 57 73 92 108 117 129 138 146 150 160 167 159 143 29 31 31 26 19 15 18 21 19 19 20 21 21 19 14 11 9 
24 41 47 41 30 23 21 16 18 20 21 21 22 24 26 30 
30 29 27 24 22 23 24 24 25 26 25 24 24 26 28 33 
39 50 65 81 97 110 117 132 140 145 150 162 168 153 129 22 24 24 20 14 13 18 24 23 21 18 18 19 19 17 14 13 
21 34 47 53 48 35 25 23 24 26 26 24 24 25 27 31 
30 29 30 30 29 27 25 24 24 22 21 20 22 26 30 39 
47 60 75 90 102 110 114 130 139 145 150 161 163 137 103 4 5 5 5 3 2 4 5 15 11 7 5 8 12 14 14 15 
17 27 47 65 66 50 33 27 28 29 27 25 24 24 25 29 
27 26 28 31 31 27 23 24 23 21 19 19 23 30 35 45 
53 67 83 96 105 109 111 127 137 144 149 158 155 121 81 