P2
# Created by IrfanView
64 11
255
0 0 0 0 0 0 0 0 248 12 0 9 0 1 4 254 248 
254 250 255 254 247 255 254 255 0 12 1 2 2 3 2 0 
0 0 0 0 0 0 0 255 0 9 0 0 1 3 0 255 
239 17 2 2 0 7 1 0 0 0 0 0 0 0 0 0 0 0 0 0 0 0 0 1 1 2 0 2 3 4 4 7 
0 2 0 251 255 254 255 242 255 0 5 0 11 0 1 0 
0 0 0 0 0 0 0 0 10 0 5 7 0 11 1 0 
12 253 0 2 2 0 11 0 0 0 0 0 0 0 0 0 0 0 0 0 0 0 0 5 0 11 8 0 19 0 0 0 
1 8 13 0 0 253 241 253 254 20 0 0 0 16 0 0 
0 0 0 0 0 0 0 7 1 5 10 0 1 10 0 0 
0 4 7 3 9 1 2 0 0 0 0 0 0 0 0 0 0 0 0 0 0 0 0 0 5 0 4 0 0 17 1 1 
7 0 1 3 2 1 10 255 248 0 11 8 3 0 2 0 
0 0 0 0 0 0 0 1 0 2 2 252 254 246 255 252 
253 2 0 0 3 2 9 0 0 0 0 0 0 0 0 0 0 0 0 0 0 0 0 12 0 15 1 3 255 255 251 255 
251 254 249 244 255 247 1 4 2 8 0 2 4 5 0 0 
0 0 0 0 0 0 0 0 255 252 252 255 236 255 255 243 
253 252 4 0 0 0 0 0 0 0 0 0 0 0 0 0 0 0 0 0 0 0 0 11 3 0 3 254 253 240 255 247 
254 252 252 254 243 254 4 3 6 1 7 8 2 10 7 0 
0 0 0 0 0 0 0 0 5 246 247 255 255 0 254 247 
255 253 246 16 0 11 8 0 0 0 0 0 0 0 0 0 0 0 0 0 0 0 0 0 4 1 1 255 254 255 254 255 
250 242 255 240 255 254 0 2 10 255 0 13 8 0 0 0 
0 0 0 0 0 0 0 1 253 5 255 250 243 22 237 252 
0 255 249 248 0 0 3 0 0 0 0 0 0 0 0 0 0 0 0 0 0 0 0 0 2 16 0 247 254 3 253 253 
255 255 248 255 249 255 0 1 0 0 254 0 0 2 5 0 
0 0 0 0 0 0 0 1 0 0 0 255 254 251 254 252 
4 0 254 255 252 7 0 0 0 0 0 0 0 0 0 3 0 8 7 0 4 8 0 2 2 7 255 248 255 7 1 255 
236 255 255 0 0 17 0 0 0 0 0 0 0 0 0 0 
0 0 0 0 0 0 0 2 0 2 0 9 251 255 252 0 
0 0 0 0 0 0 0 0 0 0 0 0 0 0 0 0 20 3 0 2 255 251 254 1 8 3 3 255 6 0 2 6 
6 0 6 2 4 0 1 0 0 0 0 0 0 0 0 0 
0 0 0 0 0 0 0 11 1 1 0 1 14 3 1 0 
0 0 0 0 0 0 0 0 0 0 0 0 0 0 0 2 0 0 14 0 1 0 5 5 0 6 0 2 2 0 3 1 
3 0 0 7 3 0 2 0 0 0 0 0 0 0 0 0 
0 0 0 0 0 0 0 0 3 3 8 9 0 6 6 0 
0 0 0 0 0 0 0 0 0 0 0 0 0 0 0 