P2
# Created by IrfanView
64 15
255
4 248 254 254 255 255 0 6 6 0 6 0 0 9 0 15 4 
0 8 0 0 3 0 11 5 0 0 8 0 16 0 255 12 
0 9 0 1 0 5 0 3 0 4 4 0 1 6 0 7 
8 0 0 0 0 3 0 0 0 0 0 0 0 0 0 255 255 255 254 250 255 255 0 0 6 6 0 8 0 0 0 0 
0 0 13 9 2 0 0 3 249 5 0 10 0 0 251 0 
5 0 14 0 0 4 0 0 5 0 3 0 3 0 10 0 
0 2 10 11 0 0 13 0 0 0 0 0 0 0 0 252 249 255 243 255 246 249 14 4 0 244 13 0 1 7 12 3 
0 0 0 8 0 16 0 0 255 255 253 0 6 9 6 4 
14 250 249 255 0 255 255 0 6 7 0 23 0 4 2 9 
4 0 0 0 14 0 1 0 0 0 0 0 0 0 0 7 255 251 252 255 255 253 0 8 247 255 244 0 10 0 0 0 
4 5 0 0 254 244 255 255 243 251 255 255 255 0 2 0 
249 255 255 254 0 11 0 9 250 253 255 0 0 1 0 0 
0 0 12 0 4 9 0 0 0 0 0 0 0 0 0 1 0 1 3 252 254 255 255 0 255 255 255 255 0 9 12 0 
11 0 0 255 253 247 255 249 255 255 255 246 247 255 245 255 
238 255 255 248 255 255 255 246 255 239 255 255 255 11 0 7 
5 0 14 0 0 10 0 0 0 0 0 0 0 0 0 0 7 3 10 250 255 253 240 0 6 253 247 255 16 0 0 0 
255 255 255 253 252 255 245 255 255 246 244 255 255 255 251 250 
255 255 248 255 244 255 255 255 255 255 248 240 255 254 248 0 
12 0 0 3 2 3 0 0 0 0 0 0 0 0 0 7 9 0 0 255 242 255 255 0 4 2 255 252 242 8 0 255 
252 255 249 255 253 234 255 252 255 252 255 255 255 234 255 252 
255 250 252 255 255 255 255 254 245 255 255 255 244 255 255 15 
0 16 0 0 0 0 1 0 0 0 0 0 0 0 0 4 0 15 9 0 255 254 251 3 0 0 255 245 255 3 0 255 
254 248 255 246 255 255 253 255 255 255 255 245 251 255 252 251 
255 255 251 255 251 255 254 255 255 249 255 255 254 253 254 255 
0 0 3 1 6 6 0 0 0 0 0 0 0 0 0 7 0 5 0 2 255 252 255 255 6 0 251 255 255 245 9 255 
252 250 255 247 255 253 255 255 240 252 255 247 255 253 253 255 
255 244 255 247 255 255 255 255 255 252 255 254 255 255 245 0 
0 0 0 0 0 0 0 1 0 0 0 0 5 0 12 0 7 0 1 8 0 255 244 249 0 11 255 244 251 255 0 0 
255 255 249 255 255 251 249 255 255 255 255 254 241 254 8 0 
12 255 244 255 5 0 0 0 0 6 0 0 0 239 13 0 
0 0 0 0 0 0 0 3 1 2 0 4 0 7 0 0 2 0 5 0 17 255 255 252 255 237 253 255 255 249 255 0 
13 0 244 255 255 247 255 250 236 253 254 255 255 252 0 254 
255 237 255 246 255 5 255 13 0 0 3 5 1 0 4 0 
0 0 0 0 0 0 0 0 10 1 0 0 14 0 0 0 2 7 6 0 0 255 255 255 255 248 255 255 255 255 250 6 
0 3 0 255 252 250 250 255 254 255 255 249 255 255 245 255 
237 255 255 255 248 0 8 0 4 0 6 0 12 3 0 0 
0 0 0 0 0 0 0 20 0 255 4 0 0 0 4 0 13 0 0 9 12 0 255 252 245 255 3 245 253 254 255 3 
0 0 17 0 245 253 255 248 255 235 246 255 247 248 255 253 
255 251 250 255 2 1 0 10 0 4 0 9 0 0 11 0 
0 0 0 0 0 0 0 0 250 0 2 1 0 19 0 0 0 2 1 0 4 0 254 255 255 255 0 255 255 255 255 0 
23 0 0 3 13 5 244 255 242 255 253 255 251 255 247 255 
255 248 255 8 0 0 19 0 0 0 12 0 2 10 0 0 
0 0 0 0 0 0 0 252 255 2 0 17 0 0 0 0 7 0 0 11 2 0 10 255 255 247 8 0 251 255 255 4 
0 1 9 1 0 0 4 0 5 251 255 254 252 250 255 249 
255 0 0 0 2 0 0 11 0 6 0 2 0 10 0 0 
0 0 0 0 0 0 0 255 0 0 0 0 6 7 12 