P2
# Created by IrfanView
64 17
255
0 10 3 253 253 255 0 5 1 3 0 8 0 10 0 0 0 
0 0 11 0 0 8 0 0 7 0 0 254 0 10 0 0 
0 0 0 0 0 0 0 0 0 0 0 0 0 0 0 0 
0 0 0 0 0 0 0 0 0 0 0 0 0 0 0 16 0 246 243 255 250 255 0 0 13 10 0 8 0 3 0 6 
0 12 0 5 0 22 0 246 0 24 0 255 255 0 7 0 
0 0 0 0 0 0 0 0 0 0 0 0 0 0 0 0 
0 0 0 0 0 0 0 0 0 0 0 0 0 0 0 0 0 253 255 242 255 255 0 10 0 0 8 0 3 0 5 0 
0 4 11 10 1 0 7 6 255 242 0 1 252 0 5 0 
0 0 0 0 0 0 0 0 0 0 0 0 0 0 0 0 
0 0 0 0 0 0 0 0 0 0 0 0 0 0 0 2 9 251 255 252 252 253 255 6 5 0 13 0 0 0 0 6 
6 0 0 4 0 10 2 252 0 6 5 2 2 6 1 0 
0 0 0 0 0 0 0 0 0 0 0 0 0 0 0 0 
0 0 0 0 0 0 0 0 0 0 0 0 0 0 0 0 245 255 254 245 255 247 255 247 0 3 0 0 9 7 0 0 
0 6 0 4 3 1 245 255 0 10 0 255 0 5 0 0 
0 0 0 0 0 0 0 0 0 0 0 0 0 0 0 0 
0 0 0 0 0 0 0 0 0 0 0 0 0 0 0 255 249 255 255 247 255 254 252 255 4 2 12 0 2 0 7 0 
0 5 0 9 1 245 255 255 0 0 255 254 252 0 9 0 
0 0 0 0 0 0 0 0 0 0 0 0 0 0 0 0 
0 0 0 0 0 0 0 0 0 0 0 0 0 0 0 253 255 246 255 255 253 248 255 248 255 0 0 7 1 8 0 0 
8 0 11 0 0 255 247 247 11 255 248 255 251 0 0 0 
0 0 0 0 0 0 0 0 0 0 0 0 0 0 0 0 
0 0 0 0 0 0 0 0 0 0 0 0 0 0 0 4 244 255 255 248 255 255 252 252 255 6 0 1 0 3 3 0 
2 0 0 3 12 246 255 255 255 247 255 255 252 255 0 0 
0 0 0 0 0 0 0 0 0 0 0 0 0 0 0 0 
0 0 0 0 0 0 0 0 0 0 0 0 0 0 0 4 0 5 249 255 255 255 251 255 0 7 0 0 0 3 0 3 
0 2 0 0 6 255 255 255 244 254 255 255 249 255 0 0 
3 2 2 1 4 3 0 0 0 5 0 0 4 0 0 0 
0 0 0 0 0 0 0 0 0 0 0 0 0 0 0 1 0 3 255 255 248 255 255 0 11 0 0 16 7 0 8 0 
3 8 4 0 0 248 255 246 255 255 245 255 255 242 2 2 
0 1 7 0 0 0 14 0 3 0 17 0 0 23 0 0 
0 0 0 0 0 0 0 0 0 0 0 0 0 0 0 5 0 0 0 245 244 255 244 255 0 0 8 0 0 2 0 4 
2 0 0 0 22 243 255 255 255 248 255 255 243 255 251 8 
1 0 3 10 0 7 0 11 0 0 0 7 5 0 1 0 
0 0 0 0 0 0 0 0 0 0 0 0 0 0 0 1 255 8 0 255 255 244 253 245 255 0 11 0 0 12 10 2 
0 5 2 3 242 251 255 249 255 254 255 255 243 244 255 249 
255 241 255 249 11 2 5 0 0 18 0 0 8 0 4 0 
0 0 0 0 0 0 0 0 0 0 0 0 0 0 0 0 0 0 0 8 244 251 255 255 255 251 0 0 2 0 0 0 
0 7 0 2 255 255 254 255 255 251 245 251 255 255 255 254 
255 255 246 255 241 253 0 0 10 0 0 17 0 0 8 0 
0 0 0 0 0 0 0 0 0 0 0 0 0 0 0 5 0 2 7 0 255 253 248 251 255 255 250 0 0 0 6 4 
0 0 0 4 237 255 254 255 245 255 255 254 242 240 254 255 
253 255 255 255 253 255 249 0 0 8 0 0 12 0 0 0 
0 0 0 0 0 0 0 0 0 0 0 0 0 0 0 9 0 10 0 5 255 243 255 249 255 249 250 5 0 9 0 0 
0 9 7 2 255 255 253 255 254 253 249 255 255 255 255 255 
255 254 248 242 255 247 255 255 6 0 14 0 6 9 3 0 
0 0 0 0 0 0 0 0 0 0 0 0 0 0 0 250 255 0 14 0 5 0 3 255 246 255 255 0 0 0 4 0 
10 0 0 1 0 245 255 249 255 255 246 255 251 254 254 254 
255 251 255 255 254 246 255 2 0 3 3 6 3 0 3 0 
0 0 0 0 0 0 0 0 0 0 0 0 0 0 0 0 255 254 0 0 0 0 1 0 255 254 255 0 2 0 0 0 
1 0 0 2 0 0 255 255 255 255 255 255 255 255 255 255 
254 255 255 254 255 255 0 0 0 0 0 0 0 0 0 0 
0 0 0 0 0 0 0 0 0 0 0 0 0 0 0 